<?xml version="1.0" encoding="utf-8" ?>
<svg baseProfile="full" height="300mm" version="1.1" viewBox="0,0,200,300" width="200mm" xmlns="http://www.w3.org/2000/svg" xmlns:ev="http://www.w3.org/2001/xml-events" xmlns:xlink="http://www.w3.org/1999/xlink"><defs /><rect fill="#222222" height="300" width="200" x="0" y="0" /><text fill="#FFFFFF" style="font-size:12px; font-family:Arial; font-weight:bold;" x="10" y="20">Over 3km Runs</text><text fill="#FFFFFF" style="font-size:4px; font-family:Arial" x="10" y="280">ATHLETE</text><text fill="#FFFFFF" style="font-size:9px; font-family:Arial" x="10" y="290">V</text><text fill="#FFFFFF" style="font-size:4px; font-family:Arial" x="120" y="280">STATISTICS</text><text fill="#FFFFFF" style="font-size:3px; font-family:Arial" x="120" y="285">Number: 3</text><text fill="#FFFFFF" style="font-size:3px; font-family:Arial" x="120" y="290">Weekly: 1.5</text><text fill="#FFFFFF" style="font-size:3px; font-family:Arial" x="141" y="285">Total: 45.1 km</text><text fill="#FFFFFF" style="font-size:3px; font-family:Arial" x="141" y="290">Avg: 15.0 km</text><text fill="#FFFFFF" style="font-size:3px; font-family:Arial" x="167" y="285">Min: 13.0 km</text><text fill="#FFFFFF" style="font-size:3px; font-family:Arial" x="167" y="290">Max: 17.8 km</text><polyline fill="none" points="95.5,64.35312607430751 95.30573210216244,64.37779169295027 95.22316824560403,64.38395809549911 95.11632090178318,64.40862369730894 94.92205300397472,64.40245729811068 94.70350161890383,64.40862369730894 94.48009353640373,64.3901244972185 94.28096894110786,64.39629089808659 93.99442379182437,64.414790095645 93.60588799617835,64.43328928563278 93.10079146179487,64.42712288980692 92.89195347164059,64.43945568060735 92.50827437342377,64.43328928563278 92.12945197266527,64.46412125209463 91.98860774675268,64.48262042187343 91.83319342846517,64.47028764286006 91.61949874085258,64.48878681010683 91.20667945797322,64.50111958407433 90.64330255426466,64.50111958407433 90.225626573927,64.54428426640152 89.78852380381431,64.55045064622027 89.49226525961421,64.54428426640152 89.41455810051411,64.56278340334029 89.38056121836416,64.5997816544841 89.37570452093496,64.62444713840887 89.39998800813919,64.80327149397999 89.39513131070998,64.88343390625596 89.36599112601834,64.9204318947086 89.29799736180576,64.96359617626149 89.2591437822266,65.00676041655606 89.24943038733909,65.03142567820396 89.24457368988078,65.0869224676535 89.29314066431834,65.88853515290248 89.28828396691824,66.24000699723183 89.29799736180576,66.39416045202597 89.3271375464683,66.62230659947818 89.3368509413558,66.7641265967759 89.34656433624332,67.18341789718033 89.3271375464683,67.30673812708847 89.31742415158078,67.5225477192289 89.3319942438975,67.62736914906782 89.34656433624332,67.97882746202231 89.37570452093496,68.85437838393773 89.39998800813919,69.43395909475657 89.39513131070998,69.87788822654693 89.4048447055975,70.14917610370321 89.39027461325168,70.19233538847766 89.34656433624332,70.22932902832326 89.28342726945993,70.24166023487487 88.95317184313899,70.24166023487487 88.62777311427635,70.25399143803952 88.38008154454292,70.25399143803952 88.17124355438864,70.26015703837766 88.00125914378441,70.28481943127917 87.6224367429968,70.29098502739362 87.20476076265913,70.32797858644699 86.91821561337565,70.32181299538934 86.63652716152137,70.29715062266041 86.3596954071254,70.34030976606664 85.83517208296689,70.37730328471662 85.56319702602923,70.38346886821819 85.15523444057908,70.37113770038195 84.80555222448311,70.38963445088666 84.51900707517052,70.36497211520691 84.2761722028954,70.38346886821819 84.09161769994535,70.38346886821819 83.87792301236186,70.42046235151429 83.8342127353535,70.46362137709366 83.81478594554937,70.55610486445221 83.70793860175763,70.58693265147667 83.69336850941181,70.64858816246124 83.70308190429932,71.28363502793945 83.71765199664515,71.64123030466362 83.74193548384937,71.86934995052798 83.73222208896186,72.09130309483226 83.74679218130768,72.44272667638143 83.74193548384937,72.77565175815471 83.74679218130768,73.07774832011273 83.73707878642017,73.15789604849124 83.69822520687012,73.19488725977135 83.67394171960768,73.20721765679991 83.54281088858261,73.21338285406819 83.07171123637818,73.21338285406819 82.52290442498634,73.2318784407762 81.9789543110528,73.2318784407762 81.24073629931081,73.26270440181543 80.39567094374797,73.27503478032668 80.30339369230205,73.2688695914876 80.07027221488534,73.22571324605087 79.8954311068519,73.21954805047062 79.25920374144334,73.2318784407762 78.68125674541807,73.26270440181543 78.25386737019289,73.26270440181543 78.09359635447618,73.28119996832902 77.69049046648433,73.28119996832902 77.41365871205926,73.29353034178712 77.02997961384244,73.2996955272938 76.93770236239652,73.28736515547644 76.81628492622986,73.30586071190919 76.05378342728363,73.33668662244963 75.08730063555413,73.36134733573999 74.83475236839149,73.38600803558438 74.60648758843308,73.37367768733384 73.79056241753278,73.42299906007611 72.92607027219492,73.43532939484794 72.76579925650731,73.42916422788767 72.57153135866974,73.447659726251 72.25584602469462,73.45999005428894 72.06157812685706,73.47848554002849 71.51762801295263,73.48465070026577 71.14366230962332,73.50931133280392 71.01253147859825,73.50314617592448 70.6871327497065,73.52164164399437 70.15289603068959,73.5278067983345 69.8663508814061,73.54630225632354 68.97757524883491,73.56479770673104 68.49676220168476,73.6202840125261 68.3024943038763,73.62644915342025 67.75854418994277,73.62644915342025 66.90376543949242,73.6572748452054 66.04898668904207,73.66960511603247 65.67016428828356,73.70043077837181 64.91251948673744,73.71276103741548 64.76681856336654,73.71276103741548 64.55798057321226,73.72509129310129 64.37342607026221,73.72509129310129 64.24715193666634,73.70659590830837 63.97032018227037,73.69426564759124 63.2466722628742,73.74358667030901 62.964983810990816,73.73742154541105 62.62501498981146,73.71276103741548 62.24133589156554,73.73742154541105 61.886796978040366,73.74358667030901 61.716812567436136,73.76208203995338 61.47397769516101,73.77441228216048 61.30884998201509,73.79907275652295 60.73090298596071,73.79290763918834 60.59005876001902,73.80523787299535 60.44921453410643,73.786742521017 60.26466003115638,73.81756810342631 59.98782827676041,73.82373321739215 59.65757285046857,73.84222855422922 58.763940520439064,73.86072388348111 58.647379781730706,73.85455877456116 58.05486269335961,73.88538431070992 57.6760402926011,73.87305409877081 56.72898429070483,73.89771451925844 56.35501858734642,73.89154941540255 56.141323899733834,73.91004472446366 55.75764480154612,73.92237492629647 55.582803693483584,73.91004472446366 54.946576328075025,73.92854002596505 54.78630531238741,73.92237492629647 54.64546108644572,73.94087022273379 53.95095335174119,73.95936551161867 53.606127833074424,73.9840258850054 52.901906703424174,74.01485133278038 52.36766998440726,74.00868624492068 52.19282887634472,74.0210164198179 51.833433265361236,74.0210164198179 50.55612183714402,74.07650216528418 50.41527761120233,74.06417200551368 49.92475116919377,74.10116247472615 49.40994123995188,74.10732754998753 49.26909701403929,74.11965769796006 49.2059599472268,74.1443179838534 49.14282288044342,74.15048305322489 48.63286964863073,74.16281318943584 48.36575128912227,74.13815291363062 48.10348962704302,74.13815291363062 47.60324979014695,74.15664812174145 47.365271615301026,74.15048305322489 47.151576927659335,74.16281318943584 46.88445856817998,74.15048305322489 46.36964863893809,74.16281318943584 45.91797577647958,74.18747345175143 45.72370787864202,74.18130838743673 45.57800695527112,74.19980357786699 45.23318143663346,74.19980357786699 44.912639405200025,74.23679393602288 44.60666746611241,74.2552891037376 43.98015349562047,74.2552891037376 42.41144022066146,74.30460951395798 41.89177359393216,74.30460951395798 41.4740976136236,74.35392987035084 40.92529080223176,74.37242499012427 40.536755006585736,74.36009491112418 40.26963664707728,74.34159978630123 39.82282048207708,74.32926969890104 39.6916896510229,74.34159978630123 39.63826597912703,74.35392987035084 39.65283607147285,74.44640539346437 39.64797937401454,74.54504574277598 39.66740616381867,74.72383082698798 39.67711955867708,75.03824425885978 39.65283607147285,75.10605863375895 39.58969900466036,75.21086246746563 39.44885477874777,75.37731511542734 39.3954311068519,75.45129387323686 39.21573330136016,75.64240510353193 38.96318503416842,75.9753066063422 38.788343926134985,76.17258041345849 38.545509053830756,76.505478009738 38.433805012580706,76.64726698181039 38.27353399689309,76.87536135104165 38.030699124588864,77.15893652864906 37.7587240676221,77.49799147001977 37.62759323659702,77.68292945653957 37.394471759180306,77.96649956564579 37.185633769026026,78.23773887424977 36.7922412759508,78.72473263756547 36.70482072190498,78.81719921491458 36.6416836551216,78.92199444045764 36.31142822880065,79.29185799966945 36.22886437221314,79.4213095301493 35.72862453531707,80.06856161956239 34.89812927210005,81.085653314316 34.61158412278746,81.46166323561556 34.456169804529054,81.64658500000223 34.37846264539985,81.7575376953937 34.29589878881234,81.83767002819877 34.077347403770545,82.13354202606934 33.305132509878604,83.10127648899652 33.26627893032855,83.1320957173848 33.21285525840358,83.13825956053915 32.29008274374064,82.97183550028058 32.22694567692815,82.93485229253565 32.17837870249059,82.81773860169415 32.15895191268646,82.79308304917504 32.1103849382489,82.7684274831845 31.639285286015365,82.78691915894888 31.2944597673486,82.78075526786779 30.779649838106707,82.69446070452614 29.900587600423023,82.51570715625348 29.439201343077002,82.44173996392419 29.41491785584367,82.44173996392419 29.361494183947798,82.503379299269 29.196366470772773,82.49721536952711 29.15265619379352,82.52803500985465 29.13322940398939,82.55269070701979 29.0652356397768,82.75609969515062 28.841827557247598,83.29851918744316 28.662129751755856,83.69916576837568 28.64270296198083,83.7669671460244 28.414438182051526,84.1799369769833 28.263880561222322,84.40799332591996 28.035615781263914,84.80863007114385 27.812207698763814,85.0921554678389 27.579086221347097,85.51127670919595 27.51109245713451,85.5975658940406 27.452812087751226,85.63454692283631 27.375104928651126,85.64687392569249 27.316824559296947,85.64071042468277 26.952572250855155,85.55442132220924 26.56889315263834,85.5051131896762 26.403765439492417,85.49894966933425 26.214354239113163,85.52976726266934 25.92295239237137,85.51744022784987 25.257584842300275,85.4496414762798 25.131310708704405,85.41882382831682 24.597073989687487,85.52976726266934 24.529080225445796,85.55442132220924 24.485369948437437,85.52360374567797 24.37852260461659,85.37567908584606 24.208538194012363,85.29555302627341 24.077407362987287,85.25240816613223 23.907422952383058,85.21542682466315 23.703441659657983,85.19693614256175 23.50917376182042,85.18460901697108 23.324619258899475,85.19077258017205 23.14006475597853,85.18460901697108 22.945796858140966,85.14762761999737 22.8972298836743,85.15995475568343 22.766099052649224,85.15379118827695 22.620398129249224,85.17844545291882 22.26100251826574,85.17844545291882 21.74619258902385,85.17844545291882 21.250809449556982,85.166118322275 20.949694207927678,85.14762761999737 20.677719150990015,85.15379118827695 20.366890514444094,85.14146405090287 20.12405564216897,85.14762761999737 19.852080585202202,85.166118322275 19.453831394639565,85.15995475568343 19.26927689171862,85.17228188801164 19.128432665776927,85.19077258017205 18.667046408430906,85.166118322275 18.63304952631006,85.15379118827695 18.608766039076727,85.11064619279568 18.545628972293343,84.83944813519702 18.482491905480856,84.64221216205624 18.45335172081832,84.50044827467354 18.35621777191409,84.1244636370102 18.283367310243193,83.90256959621911 18.05995922771399,83.0149825377157 18.035675740480656,82.97183550028058 18.006535555818118,82.95950776772224 17.967681976238964,82.91636067732179 16.379541911475826,82.90403292964402 16.170703921321547,82.91636067732179 15.923012351588113,82.91636067732179 15.78702482310473,82.90403292964402 15.087660390941892,82.910196803914 14.844825518637663,82.89786905453002 14.747691569733433,82.91636067732179 14.563137066783383,82.89786905453002 14.53885357955005,82.91636067732179 14.5,82.97799936528463" stroke="#4dd2ff" stroke-linecap="round" stroke-linejoin="round" stroke-width="0.5"><title>2024-07-26 17.8km</title><desc>11984363624</desc></polyline><polyline fill="none" points="104.5,93.26503137622058 104.91101005265955,93.26503137622058 105.46936333170743,93.21582519340154 106.6868836763897,93.18630146759824 107.3305409286695,93.14693648110551 108.61010052656638,93.11741272710788 108.86601244614576,93.09773021774163 109.64150311151752,93.10757147308323 110.47127812349936,93.06820644365507 111.92920057443553,93.0386826574395 112.39449497367605,93.00915885918221 112.89856390617206,92.93042867144686 115.14748683580547,92.87138097426214 115.48870272855856,92.85169839778973 115.89195787458448,92.85169839778973 117.25682144565508,92.81233322875778 117.6833413116401,92.83201581596222 118.3037338439317,92.80249193315831 118.93963618957787,92.71392021223437 119.68410722832778,92.63518970241421 120.37429392052582,92.50725244073692 121.6150789851672,92.32026680413401 122.75505026325118,92.10375651445065 123.65461943511036,91.98565971895005 124.05787458110717,91.96597690095223 124.77908089992707,91.88724557511887 125.05050263280282,91.90692841466807 125.82599329820368,91.87740415336884 126.88841550977668,91.88724557511887 127.17534705597791,91.90692841466807 127.80349449496134,91.97581831065327 128.5169459071185,92.00534253164369 130.3858784107142,92.14312206996692 131.26993776924792,92.19232898418704 131.68094782187836,92.23169449142006 131.9291048348241,92.28090134524973 132.5882719004003,92.33994952557987 133.13887027284363,92.42852170544211 133.5731450454623,92.52693511114194 133.9531354715,92.62534838265128 134.14700813786476,92.63518970241421 134.28659645761945,92.61550706153503 134.42618477737415,92.56630043585756 134.93025370989926,92.22185311663634 135.06208712302032,92.0742323336599 135.28697941594874,91.67073398626235 135.51187170893536,91.34596538502228 135.57391096214997,91.2672333827868 135.64370512205642,91.20818432472879 135.77553853514837,91.1491352183948 135.91512685496127,91.09992759286251 136.05471517471597,91.09008606371208 136.24858784108073,91.09992759286251 136.4424605074164,91.15897673946893 136.7061273336294,91.2967578937023 136.97754906653427,91.4837461822317 137.25672570604365,91.57231941296777 138.6526089037652,91.52311207598541 139.12565820963937,91.4837461822317 140.0174724748358,91.44438026703574 140.436237434129,91.4050143303175 140.6146002871974,91.41485581651796 140.79296314023668,91.4739047054245 140.88602202010225,91.5427950148005 141.03336524651968,91.71009977803624 141.0954044997343,91.84787988003518 141.18846337959985,91.93645266384556 141.30478697939543,91.97581831065327 141.3590713260055,91.97581831065327 141.39009095256915,91.8970869955665 141.40560076589463,91.80851416343648 141.5219243656902,90.87357208318281 141.67702249877038,89.96814294448995 142.4835327908222,85.93294016993605 142.60761129725142,85.25382288482069 142.7859741502907,84.34832322844159 142.85576831019716,84.0530491444515 142.93331737670815,83.60029320209287 143.27453326949035,81.89751172300748 143.39085686931503,81.23804220427701 143.45289612252964,81.05102736312983 143.49167065578513,81.01165575581399 143.55370990902884,80.9821270362736 143.56146481569158,80.95259830460418 143.56921972232522,80.83448325717472 143.55370990902884,80.54903776089486 143.6235040689062,80.1356319364786 144.38348492101068,76.21800201074075 144.9108185734658,73.65863139024441 144.9495931067213,73.37315749975096 145.011632359965,73.02861854118964 145.14346577308606,72.17218600059277 145.2132599329634,71.9556152416626 145.27529918620712,71.86701792559325 145.32182862612535,71.83748546272545 145.40713259932818,71.81779714742879 145.74059358544764,71.83748546272545 147.64830062229885,71.7488880015735 148.2221637146722,71.7488880015735 149.01316419336945,71.70951131723268 149.49396840590634,71.70951131723268 150.06007659164607,71.67013461139868 150.73475347054773,71.66029043158778 151.1690282431664,71.58153694472276 151.31637146958383,71.57169275279011 152.14614648153656,71.5421601689959 152.4718525610224,71.55200436495215 154.29425562469987,71.4929391691694 155.41096218285384,71.46340655314998 156.58195308758877,71.46340655314998 157.56682623262168,71.40434128482593 158.79985639060033,71.3649644124016 159.1333173767198,71.3649644124016 159.56759214933845,71.42402971296542 160.00962182861986,71.40434128482593 160.19573958826368,71.41418549956143 160.60674964095233,71.41418549956143 161.94834849206381,71.3649644124016 163.10382958353148,71.34527596811677 165.39152704644948,71.27636637086835 165.9964097654156,71.236989428573 168.12900909522432,71.21730094937811 169.9901866921864,71.18776822050859 170.6726184777217,71.1385469788438 171.44035423645983,71.12870272649889 171.9599329822522,71.08932570360776 172.2391096217907,71.09916996132961 172.94480612731422,71.07948144451075 174.48027764476137,71.01057159333868 175.55820966968895,71.03026012895134 176.36471996168257,71.02041586180712 176.65940641451743,71.04010439475678 176.73695548105752,71.03026012895134 176.79899473427213,70.97119450595346 176.80674964096397,70.89244026672532 176.77573001434212,70.65617703311727 176.76797510770848,70.52820079177764 176.78348492097575,69.97691592568299 176.76022020101664,68.59868532649853 176.74471038772026,68.30334677180508 176.74471038772026,67.80126845347695 176.72144566776115,66.46237585098424 176.6516515078838,65.09392316932644 176.65940641451743,64.70011902538681 176.59736716130283,63.282406302583695 176.5896122546401,62.60307574647595 176.55859262804734,62.1994125301062 176.56634753468097,61.96312081846554 176.59736716130283,61.87451122701168 176.6516515078838,61.81543810557196 176.73695548105752,61.78590152670222 177.0316419339215,61.79574705432606 178.48956438485766,61.756364935710735 179.28831977018854,61.71698279560951 179.70708472951083,61.726828332655714 180.102584968874,61.71698279560951 181.00990904736682,61.70713725722453 181.14174246048788,61.68744617640186 181.20378171370248,61.64806399864756 181.28133078024257,61.57914513583819 181.3278602201899,61.510226207159576 181.7466251794831,61.43146163658821 181.7698898994131,61.41177048051031 181.77764480610495,61.352696980015025 181.75438008611673,60.58473706992663 181.70009573956486,60.0727592531548 181.669076112943,58.89125811093254 181.69234083290212,58.54664996470092 181.67683101963485,57.7294297775079 181.7078506461985,57.59158449573442 181.76213499280857,57.512815645000956 181.83968405931955,57.453738950469415 181.9870272857661,57.41435446055402 182.85557683100342,57.41435446055402 183.5147438965796,57.37496994914545 185.3604116801871,57.345431551475485 185.44571565341903,57.3158931417056 185.49224509330816,57.25681628584425 185.5,57.10912393446051 185.46898037334904,56.93189271349547 185.4224509334599,56.85312314215116 185.34490186691983,56.813738324191945 185.10449976063683,56.78419969660172 183.58453805645695,56.8432769396677 183.54576352320146,56.833430735867296 183.4914791766205,56.79404590716149 183.48372426995775,56.73496862377942" stroke="#4dd2ff" stroke-linecap="round" stroke-linejoin="round" stroke-width="0.5"><title>2024-07-26 13.0km</title><desc>11982980752</desc></polyline><polyline fill="none" points="94.72591399040539,240.97300832242036 94.77991999109508,241.04154884690797 94.84292699187063,241.04154884690797 95.01394599396735,241.00727859165636 95.23897099675378,240.9844317470488 95.40098899876466,240.9273146082778 95.45499499945436,240.8587739903087 95.4639959995402,240.8245036603039 95.45499499945436,240.63030485868512 95.5,240.45895260099496 95.49099899985595,239.81923440803075 95.45499499945436,239.61360966543725 95.4459939993103,239.3051716049813 95.43699299922446,239.00815610279096 95.45499499945436,238.74541074207082 95.43699299922446,238.52835960497032 95.4459939993103,237.93432203741395 95.42799199913861,237.61445390967128 95.45499499945436,237.4430954815325 95.43699299922446,237.3288563346723 95.43699299922446,237.0432577857282 95.47299699962605,236.7690822624354 95.36498499830486,236.72338625462726 95.22996999666793,236.71196224875894 94.64490498939995,236.7462342616418 94.18585398379946,236.7462342616418 92.961717968632,236.7919302569935 92.51166796305915,236.7919302569935 92.28664296027273,236.7690822624354 91.94460495607927,236.8147782453234 91.17051894654287,236.83762622739596 90.9004889432108,236.8147782453234 90.59445493941894,236.84905021611485 86.54400488943793,236.98613795903657 86.02194688294549,236.974713989046 85.66190687852213,236.99756192751374 84.72580286697485,237.02040985969506 83.75369485496776,237.07752966301632 83.39365485054441,237.06610570545308 82.81759084342048,237.08895361898612 81.7554728302639,237.08895361898612 81.32342482497916,237.07752966301632 80.8913768196362,237.11180152631277 79.7122458050726,237.14607337552297 79.2711967996438,237.1917691527342 78.80314479384106,237.20319309311162 78.36209578841226,237.1917691527342 77.38098677626112,237.22604096925352 77.02994777198182,237.21461703194655 75.04972774750786,237.248888839109 74.89671074564103,237.20319309311162 74.6536837425665,237.07752966301632 74.45566174015403,236.92901809343311 73.58256472938228,236.22072852306155 73.21352372481488,235.86658149144932 73.07850872317795,235.77518846601015 72.97049672185676,235.68379534083942 72.75447271915618,235.54670546601847 72.52944771636976,235.32964603862638 72.12440271140076,235.0097679623068 71.94438270915998,234.88410124088114 71.31431270140456,234.34715948878147 70.87326369597577,234.0158532860005 70.69324369373498,233.79878989071585 70.1801866873866,233.3532369481909 69.54111567954533,232.88483258078486 69.32509167684475,232.75916267061257 69.01905767305288,232.4849731210561 68.56000666739419,232.16508417853038 68.28097566397628,231.9365913285801 67.98394266027026,231.75379659972532 67.79492165794363,231.5824261790549 67.61490165576106,231.35393173925695 67.41687965329038,231.21683477608894 67.3088676519692,231.1140119064221 67.14684964995831,230.90836578836024 67.11984664958436,230.8398169700522 67.11084564949851,230.74841845843912 67.10184464941267,229.00040272461047 67.01183464826318,228.66907536715007 66.99383264803328,228.41772270424553 67.02983664855128,228.1777944585192 67.02083564840723,227.58368346258794 67.03883764857892,227.16094807176705 67.01183464826318,226.37259799300227 66.99383264803328,226.23549287379137 66.94882764754584,225.25289961614908 66.97583064786159,224.97868548626138 66.97583064786159,224.67019351663475 66.96682964771753,223.9732259930388 66.99383264803328,223.7561365630172 66.97583064786159,223.5847497732684 67.00283364817733,223.32195601429703 66.759806645161,223.32195601429703 66.35476164019201,223.3448076782297 66.06672963657184,223.31053017995873 65.82370263361372,223.31053017995873 64.86059562169248,223.32195601429703 64.3475386154023,223.35623350789683 62.22330258914735,223.35623350789683 60.92715857317671,223.29910434409976 60.63012556947069,223.24197514132538 60.26108456496149,223.1619941919489 60.03605956211686,223.08201316614577 59.928047560853884,223.00203206395236 59.86504056007834,222.9334767727196 59.748027558554895,222.9106249964898 59.631014557147864,222.84206963038014 58.86592954775551,222.15651288192748 58.39787754195277,221.6309155731724 57.91182353592012,221.20815012606909 57.767807534197345,221.11674110004242 57.506778530951124,221.0253319742551 56.99372152460273,220.72825162608933 56.795699522132054,220.67112066903792 56.57967551948968,220.65969447294628 56.12062451383099,220.67112066903792 55.28353150351904,220.60256346915412 54.7794754972565,220.64826827531942 54.17640848987503,220.63684207609913 54.03239248803584,220.65969447294628 53.492332481371704,220.69397305652092 52.37620846758364,220.6825468635725 51.75513945991406,220.64826827531942 51.45810645626625,220.61398967301648 50.96305145014776,220.60256346915412 50.53100344480481,220.56828484810103 50.323980442248285,220.5225799983018 50.008945438370574,220.54543242631917 49.43288143124664,220.53400621308538 49.21685742860427,220.49972756401985 48.95582842535805,220.55685863800318 48.847816424036864,220.56828484810103 48.334759417688474,220.55685863800318 47.85770641179988,220.56828484810103 47.650683409243356,220.55685863800318 47.551672408066224,220.5225799983018 47.389654405997135,220.54543242631917 46.57056339591509,220.59113726372016 46.0575063895667,220.55685863800318 45.10340037778951,220.57971105669276 44.680353372590616,220.56828484810103 44.49133237026399,220.53400621308538 44.46432936989004,220.4768751234733 44.50033337040804,220.24835037527373 44.50933437049389,220.07695640473685 44.50933437049389,219.7912990074692 44.47333037003409,219.2542604619157 44.47333037003409,218.42012993274693 44.49133237026399,217.57456447541335 44.43732636957429,216.90039130238438 44.47333037003409,216.3519074275173 44.45532836980419,216.0205300116868 44.46432936989004,215.68915128408844 44.45532836980419,215.4034789144207 44.48233137011994,214.9806820181766 44.48233137011994,214.27220675627905 44.45532836980419,213.76941422312666 44.46432936989004,213.48373530208482 44.42832536948845,213.28947307886847 44.3833203688846,213.25519146326405 44.29331036779331,213.2437642549703 44.09528836538084,213.26661867002258 44.09528836538084,213.2437642549703 44.04128236474935,213.20948262063757 43.969274363829754,213.11806486047135 43.84326036222046,213.07235594297526 43.71724636066938,213.04950147483032 43.24019335483899,213.07235594297526 42.11506834090687,213.0266470005081 41.26897433050908,213.04950147483032 40.79192132456228,213.00379251989943 39.91882431379054,212.95808353997563 39.873819313244894,212.91237453513168 39.855817313014995,212.8323837165517 39.8378153127851,212.35243719981372 39.774808312009554,211.72393164762616 39.801811312383506,211.54109278268152 39.78380931215361,211.18684134542127 39.801811312383506,210.61546490030742 39.79281031223945,210.46690638570726 39.774808312009554,210.39834082851303 39.72980331146391,210.31834760746278 39.66679631068837,210.26120954562793 39.47777530836174,210.1583609360241 39.459773308131844,210.08979512607038 39.459773308131844,210.00980161016196 39.47777530836174,209.99837395881332 39.43277030775789,210.14693330492446 39.459773308131844,210.16978856555215 39.53178130899323,210.20407144479395 39.82881431269925,210.27263716112793 39.954828314250335,210.27263716112793 40.134848316491116,210.22692668981472 40.69291032332694,210.18121619353042 40.76491832424654,210.12407803809037 40.83692632516613,209.99837395881332 40.83692632516613,210.112650402305 40.80992332479218,210.22692668981472 40.89093232579762,210.26120954562793 40.95393932657316,210.26120954562793 40.98994332703296,210.28406477504177 41.061951327952556,210.37548563028395 41.115957328584045,210.39834082851303 41.07995332812425,210.32977521515568 41.02594732743455,210.31834760746278 41.85403933771886,209.33556750980642 41.80903433711501,209.3698507306981 41.70102233579382,209.35842299197975 41.57500833424274,209.32413976637326 41.484998333093245,209.33556750980642 41.41299033223186,209.3698507306981 41.40398933214601,209.41556167006638 41.37698633183027,209.42698940102127 41.32298033114057,209.40413393754716 41.12495832866989,209.26700102585164 40.94493832642911,209.22129000538553 40.67490832315525,209.3127120213976 40.57589732191991,209.27842877710646 40.503889321000315,209.28985652675328 40.386876319593284,209.3698507306981 40.2428603178123,209.39270620349998 40.170852316892706,209.46127258447814 40.2428603178123,209.42698940102127 40.422880319994874,209.735537546665 40.49488832091447,209.80410364676936 40.56689632177586,209.80410364676936 40.6659073230112,209.84981434899964 40.76491832424654,209.735537546665 40.719913323700894,209.9755186513794 40.75591732416069,210.03265690823173 40.6479053227813,210.06693984361482 40.49488832091447,210.07836748565023 40.422880319994874,210.112650402305 40.404878319764975,210.112650402305 40.15285031666281,209.3469952516898 40.27886431821389,209.3127120213976 41.08895432821009,209.27842877710646 41.16096232912969,209.28985652675328 41.24197133013513,209.33556750980642 41.37698633183027,209.3469952516898 41.56600733415689,209.3127120213976 41.80003333702916,209.3012842748576 41.818035337200854,209.3469952516898 41.80903433711501,209.4498448582235 41.845038337574806,209.49555575388513 41.818035337200854,209.47270030916116 41.80903433711501,209.4498448582235 41.85403933771886,209.3012842748576 41.845038337574806,209.1870067236232 41.863040337804705,209.12986788950366 41.92604733858025,209.06130123705225 42.53811534610577,208.95845115309203 42.79914434935199,208.96987894644553 43.79825536167482,209.04987345619884 43.87026336253621,209.06130123705225 43.9242693632259,209.11844011800713 43.99627736408729,209.6326882911235 44.086287365236785,210.53547188676748 44.07728636515094,210.8325884088772 44.11329036561074,211.9067701131571 44.09528836538084,212.93522904069687 44.05028336477699,213.00379251989943 43.9782753639156,213.04950147483032 43.88826536282431,213.06092870971042 43.50122235802701,213.06092870971042 42.89815535058733,213.01521976098593 41.87204133789055,212.96951078729762 41.16096232912969,212.98093803306256 41.0709523280384,212.96951078729762 40.980942326947115,212.93522904069687 40.83692632516613,212.96951078729762 40.17985331703676,212.93522904069687 39.78380931215361,212.94665629111114 39.459773308131844,212.98093803306256 39.18074230465572,212.95808353997563 38.28964329371229,212.94665629111114 37.89359928877093,212.88952002330188 37.87559728859924,212.98093803306256 37.91160128900083,213.36946346068726 37.92960328923073,213.84940414631274 37.92060228914488,213.89511263953318 37.87559728859924,213.9636753325467 37.64157128566876,214.180790156679 37.15551727969432,214.54645595601323 36.57945327251218,215.16351337046945 36.40843427047366,215.3120635502055 35.13929325476056,216.22621270003583 34.680242249101866,216.5233090244219 34.23919324367307,216.75184394109237 33.68113123677904,217.27747188183275 33.33909323258558,217.55171123644686 32.943049227644224,217.8945091663918 32.82603622623719,218.0430545001218 32.68202022445621,218.31729134684429 32.3849872208084,218.95717382907605 32.16896321810782,219.33424514447688 32.03394821647089,219.69988843447936 31.907934214919806,219.91698838235607 31.682909212075174,220.4083177645225 31.565896210668143,220.60256346915412 31.47588620951865,220.63684207609913 30.323758195328992,220.63684207609913 30.098733192542568,220.61398967301648 29.94571619067574,220.55685863800318 29.77469718857901,220.5225799983018 29.39665518386755,220.5225799983018 29.171630181081127,220.54543242631917 28.50555617286591,220.54543242631917 27.93849316588603,220.51115378191753 27.884487165196333,220.5225799983018 27.83948216465069,220.62541587532905 27.821480164479,220.7739563636278 27.875486165110487,220.89964426326333 27.911490165512078,221.09388882794883 27.947494166030083,221.20815012606909 27.965496166201774,221.345263477946 27.93849316588603,221.75660218631674 27.95649516611593,221.92799271833064 27.93849316588603,222.20221683980344 27.965496166201774,222.84206963038014 27.947494166030083,223.81326541495946 27.965496166201774,224.33884902394493 27.95649516611593,225.56138943884434 27.929492165800184,226.13266388705233 27.965496166201774,226.52112828545796 27.95649516611593,226.7496359132565 27.92049116565613,226.86388949327375 27.85748416488059,226.9781429174036 27.668463162553962,227.25235049925686 27.362429158820305,227.59510871378734 27.20941215689527,227.70936114019423 27.101400155574083,227.81218819064088 26.903378153103404,228.06354267129063 26.48933214804856,228.69192557185306 25.87726414046483,229.54880374578352 25.16618513164576,230.6341701785932 24.680131125671323,231.31965751948883 23.762029114353936,232.67919081139553 23.618013112572953,232.85055898763676 23.266974108177237,233.4332081636967 23.050950105593074,233.7188190243105 22.816924102662597,234.0843995044488 22.537893099244684,234.43855407270894 21.79981109010987,235.5124329622704 21.763807089650072,235.53528129967162 21.637793088098988,235.52385713173862 21.33175908436533,235.5581296308228 21.05272808088921,235.5581296308228 20.368652072444092,235.5581296308228 19.981609067646787,235.53528129967162 19.054506056243554,235.52385713173862 17.515335037198383,235.5581296308228 16.732248027517926,235.56955379407736 16.264196021773387,235.54670546601847 15.607123013644014,235.56955379407736 15.157073008129373,235.53528129967162 14.83303700410761,235.52385713173862 14.725025002728216,235.56955379407736 14.626014001551084,235.66094704395073 14.53600400040159,235.77518846601015 14.509001000085846,235.85515736874368 14.509001000085846,236.7690822624354 14.5,237.39739984148764 14.509001000085846,237.42024766466056 14.554006000689697,237.40882375383808 14.590010001091287,237.53448668684723 14.644016001780983,237.6258777924013 14.671019002096727,237.64872555324837 14.635015001695137,237.591606139511 14.617013001407031,237.58018225209526 14.590010001091287,237.6258777924013 14.581009001005441,237.70584492795751 14.599011001177132,237.95716971411457 14.626014001551084,238.05998418193485 14.788032003561966,238.07140800393245" stroke="#4dd2ff" stroke-linecap="round" stroke-linejoin="round" stroke-width="0.5"><title>2024-07-11 14.3km</title><desc>11866200789</desc></polyline></svg>