<?xml version="1.0" encoding="utf-8" ?>
<svg baseProfile="full" height="300mm" version="1.1" viewBox="0,0,200,300" width="200mm" xmlns="http://www.w3.org/2000/svg" xmlns:ev="http://www.w3.org/2001/xml-events" xmlns:xlink="http://www.w3.org/1999/xlink"><defs /><rect fill="#222222" height="300" width="200" x="0" y="0" /><text fill="#FFFFFF" style="font-size:12px; font-family:Arial; font-weight:bold;" x="10" y="20">Over 3km Runs</text><text fill="#FFFFFF" style="font-size:4px; font-family:Arial" x="10" y="280">ATHLETE</text><text fill="#FFFFFF" style="font-size:9px; font-family:Arial" x="10" y="290">V</text><text fill="#FFFFFF" style="font-size:4px; font-family:Arial" x="120" y="280">STATISTICS</text><text fill="#FFFFFF" style="font-size:3px; font-family:Arial" x="120" y="285">Number: 4</text><text fill="#FFFFFF" style="font-size:3px; font-family:Arial" x="120" y="290">Weekly: 1.3</text><text fill="#FFFFFF" style="font-size:3px; font-family:Arial" x="141" y="285">Total: 60.4 km</text><text fill="#FFFFFF" style="font-size:3px; font-family:Arial" x="141" y="290">Avg: 15.1 km</text><text fill="#FFFFFF" style="font-size:3px; font-family:Arial" x="167" y="285">Min: 13.0 km</text><text fill="#FFFFFF" style="font-size:3px; font-family:Arial" x="167" y="290">Max: 17.8 km</text><polyline fill="none" points="94.99962177593261,34.5 93.52904744632542,36.92633694363758 92.94081771373749,55.03040755004622 91.4702433841303,60.06964231922757 92.20553054939955,72.9476024165051 86.76440552808344,75.00059934786987 82.35268253739923,81.15957165858708 75.7350980527699,77.80013565253466 68.38222640380263,78.73331314860843 60.147010155022144,77.05359319772106 50.14710471127182,76.86695752083324 39.853084401227534,79.47985468641855 32.79432761669159,77.80013565253466 21.029732977971435,78.91994857112877 18.676814048551023,80.22639581758995 16.4709525546059,84.33236475789454 16.02978025469929,89.55812559043989 17.5003545852378,94.59723320696503 25.88262826576829,100.75611731642857 32.20609788503498,109.34118224936537 35.58841884415597,111.58075554762036 42.79423306044191,113.63369451789185 56.91174662858248,111.39412457915023 61.76464191824198,111.76738649024628 70.29397303145379,114.75347811297979 74.705696022138,113.82032518065535 77.49978724867105,109.15455097565427 78.08801698125899,98.1432607768802 82.6467974036932,89.55812559043989 81.6173953730613,82.65265168063343 77.35272981598973,78.17340672726277 67.20576693862677,78.91994857112877 61.32346961926669,76.86695752083324 50.882391875609756,76.68032181775197 41.47071616444737,78.91994857112877 32.20609788503498,77.24022884934675 21.4709052760154,78.54667770012747 17.94152688421309,81.15957165858708 15.441550523042679,87.878418927663 15.588607955724001,92.35763211303856 17.5003545852378,95.34376609080937 25.441455966793,100.56948487239424 31.76492558605969,108.5946570020169 36.76487830840051,111.76738649024628 46.47066888585687,113.82032518065535 59.117608124390244,111.39412457915023 67.7939966712147,114.56684757734183 71.32337506301701,114.75347811297979 74.55863858945668,113.26043311588 76.91155751701444,109.90107591752894 77.94095954764634,99.63632226735353 82.6467974036932,89.74475953693036 81.91151023935527,82.65265168063343 77.20567238237709,78.36004222615156 72.7939493926242,77.61350007739384 66.9116520723328,78.73331314860843 59.9999527214095,76.86695752083324 52.20590877253562,76.30705033615232 40.441314132884145,79.29321934026666 32.79432761669159,77.61350007739384 21.32384784333408,78.91994857112877 19.41210121382028,79.47985468641855 16.91212485358119,82.65265168063343 15.441550523042679,87.3185162487207 15.735665388405323,91.79773126670625 17.647412018850446,95.53039924777113 24.26499650347978,99.63632226735353 31.617868152447045,108.5946570020169 35.44136141054332,111.02086256688926 40.882486431859434,113.26043311588 45.735381721518934,113.82032518065535 55.147057433612645,111.02086256688926 59.41172298975289,111.02086256688926 72.05866222828627,114.94010862277355 75.14686832111329,113.44706382951699 77.05861494969577,110.27433823526371 77.79390211496502,99.63632226735353 82.49973997101188,89.37149161857087 81.91151023935527,82.83928656869102 77.49978724867105,78.73331314860843 74.11746628955007,77.98677120241337 67.05870950594544,78.91994857112877 59.70583785511553,77.05359319772106 48.52947294805199,76.86695752083324 39.853084401227534,79.6664900071919 30.73552355542779,77.61350007739384 19.706216080114245,79.47985468641855 15.588607955724001,86.19871020317078 16.91212485358119,94.59723320696503 26.176743132062256,101.1293821297586 31.176695853471756,107.84813134674914 36.029591143131256,111.58075554762036 44.853037123568356,113.44706382951699 59.85289528872818,110.83423152181786 67.94105410389602,114.56684757734183 71.32337506301701,114.75347811297979 74.26452372316271,113.82032518065535 76.76450008433312,111.02086256688926 77.49978724867105,99.44968967034947 82.35268253739923,89.55812559043989 81.76445280667394,82.83928656869102 77.20567238237709,78.54667770012747 73.97040885686874,77.61350007739384 66.17636490799487,78.91994857112877 56.91174662858248,76.68032181775197 46.911841184832156,76.86695752083324 39.853084401227534,79.10658396827057 30.000236390158534,77.61350007739384 19.265043781138957,79.6664900071919 17.059182286262512,82.27938182780053 15.441550523042679,87.69178472692147 15.588607955724001,92.17099852254614 17.353297151625156,95.90366548590828 26.176743132062256,101.6892791573191 31.3237532870844,108.5946570020169 36.17664857581258,112.14064829936251 45.441266854293644,114.00695581769105 54.70588513370603,111.20749358565081 58.23526352643967,111.20749358565081 67.7939966712147,114.75347811297979 71.02926019672304,114.94010862277355 74.85275345481932,113.44706382951699 77.35272981598973,110.08770708902739 77.6468446822837,99.07642439892516 82.6467974036932,89.18485762109049 82.05856767203659,83.39919108012691 78.08801698125899,78.73331314860843 72.94100682623684,77.61350007739384 66.32342234067619,78.54667770012747 56.61763176228851,76.30705033615232 48.382415514439344,76.68032181775197 40.29425670020282,78.91994857112877 31.91198301874101,77.05359319772106 19.706216080114245,79.47985468641855 17.059182286262512,81.90611187322065 15.588607955724001,85.26553779875394 15.588607955724001,92.17099852254614 16.91212485358119,95.34376609080937 26.32380056474358,101.50264683971182 31.470810720697045,108.40802562609315 34.853131679818034,111.20749358565081 40.29425670020282,113.26043311588 46.911841184832156,114.00695581769105 58.9705506907776,111.02086256688926 70.7351453313604,114.94010862277355 74.11746628955007,113.82032518065535 77.05861494969577,110.46096935577225 77.6468446822837,98.70315902680159 82.35268253739923,90.8645626801299 81.6173953730613,83.02592143171933 78.23507441394031,79.10658396827057 73.52923655789346,77.80013565253466 66.47047977335751,79.10658396827057 61.32346961926669,77.24022884934675 53.823540535755455,76.30705033615232 48.0883006490767,76.68032181775197 40.14719926659018,79.29321934026666 31.91198301874101,77.61350007739384 20.735618111677468,78.54667770012747 17.794469450600445,80.59966623038054 15.294493089430034,87.3185162487207 15.294493089430034,91.98436490749009 17.647412018850446,95.90366548590828 26.912030297331512,101.6892791573191 35.88253370951861,111.95401740784291 45.441266854293644,114.00695581769105 58.82349325809628,111.02086256688926 70.7351453313604,114.94010862277355 74.26452372316271,113.82032518065535 76.61744265072048,111.39412457915023 77.6468446822837,99.63632226735353 82.35268253739923,89.55812559043989 81.76445280667394,83.58582586690318 77.79390211496502,79.10658396827057 73.67629399057478,77.80013565253466 66.61753720697016,78.91994857112877 60.735239886678755,77.05359319772106 53.38236823678017,76.30705033615232 47.353013483807445,76.68032181775197 40.73542899917811,79.10658396827057 30.2943512564525,77.42686447617598 25.588513400405645,78.73331314860843 19.265043781138957,78.91994857112877 15.441550523042679,85.45217233046424 15.588607955724001,91.6110975999618 17.5003545852378,95.34376609080937 25.441455966793,100.75611731642857 32.64727018401027,109.15455097565427 37.35310804005712,112.32727916585281 46.61772631853819,114.00695581769105 54.70588513370603,110.83423152181786 59.117608124390244,110.83423152181786 71.02926019672304,115.12673910730518 74.55863858945668,113.44706382951699 76.91155751701444,109.71444472030271 77.35272981598973,100.38285240193363 82.20562510564923,89.74475953693036 81.6173953730613,83.2125562686706 77.6468446822837,78.73331314860843 73.23512169159949,77.80013565253466 66.76459463965148,78.73331314860843 56.61763176228851,76.68032181775197 47.794185783714056,76.86695752083324 40.58837156649679,79.29321934026666 30.73552355542779,77.42686447617598 19.41210121382028,79.47985468641855 16.765067419968545,81.90611187322065 15.588607955724001,85.07890324189793 15.147435656748712,91.05119644862134 16.323895120993257,93.85069991659839 19.117986347526312,97.02346358972136 25.88262826576829,101.1293821297586 34.70607424620539,111.20749358565081 43.52952022571117,113.82032518065535 58.676435825414956,111.20749358565081 67.49988180492073,114.75347811297979 71.02926019672304,115.12673910730518 74.41158115584403,113.82032518065535 76.61744265072048,110.83423152181786 77.49978724867105,100.00958738627378 81.91151023935527,90.8645626801299 82.05856767203659,83.58582586690318 77.6468446822837,78.54667770012747 73.23512169159949,77.61350007739384 67.49988180492073,78.73331314860843 60.147010155022144,76.68032181775197 52.20590877253562,76.12041455693543 38.82368236966431,79.29321934026666 32.059040451422334,77.05359319772106 26.32380056474358,78.54667770012747 19.41210121382028,78.73331314860843 15.735665388405323,84.33236475789454 15.441550523042679,91.42446390853729 17.353297151625156,95.53039924777113 26.32380056474358,101.6892791573191 31.3237532870844,108.22139422560576 35.73547627683729,111.76738649024628 39.853084401227534,113.26043311588 46.764783752150834,113.82032518065535 58.676435825414956,111.02086256688926 68.67634126916528,115.12673910730518 74.26452372316271,114.38021701632533 77.20567238237709,109.90107591752894 77.6468446822837,100.00958738627378 82.94091226998717,87.878418927663 81.32328050676733,82.27938182780053 76.61744265072048,78.36004222615156 73.23512169159949,77.61350007739384 67.05870950594544,78.54667770012747 49.1177026797086,76.493686089525 39.55896953493357,78.73331314860843 32.059040451422334,77.05359319772106 19.117986347526312,79.6664900071919 16.323895120993257,83.02592143171933 15.00037822406739,87.878418927663 15.735665388405323,92.54426567768678 17.794469450600445,96.2769316227641 25.29439853411168,100.94274973543361 31.617868152447045,108.5946570020169 36.470763442106545,112.14064829936251 46.47066888585687,114.38021701632533 57.49997636117041,111.39412457915023 61.76464191824198,112.32727916585281 70.7351453313604,115.31336956669111 74.85275345481932,114.00695581769105 77.35272981598973,110.27433823526371 77.94095954764634,98.88979172613472 82.6467974036932,89.74475953693036 81.91151023935527,82.83928656869102 77.79390211496502,78.73331314860843 73.67629399057478,77.80013565253466 66.47047977335751,78.91994857112877 54.55882770102471,76.493686089525 40.000141833908856,79.10658396827057 31.029638421721756,77.61350007739384 25.29439853411168,79.29321934026666 19.41210121382028,79.29321934026666 15.294493089430034,84.51899941673037 15.00037822406739,90.4912950671278 16.618009987287223,94.59723320696503 26.176743132062256,101.6892791573191 32.50021275039762,109.52781349734869 36.029591143131256,111.95401740784291 46.47066888585687,114.00695581769105 58.9705506907776,111.76738649024628 67.7939966712147,115.31336956669111 71.32337506301701,115.5 74.55863858945668,114.19358642981388 77.49978724867105,110.6476004520664 77.94095954764634,99.26305704738479 82.49973997101188,90.67792888672557 81.91151023935527,83.39919108012691 78.23507441394031,78.91994857112877 74.11746628955007,78.17340672726277 66.47047977335751,79.10658396827057 53.52942566946149,75.93377875245642 47.64712835010141,76.30705033615232 40.441314132884145,78.73331314860843 31.029638421721756,77.61350007739384 19.265043781138957,79.47985468641855 16.4709525546059,82.65265168063343 15.294493089430034,86.75861334032379 15.588607955724001,91.79773126670625 17.647412018850446,95.53039924777113 24.85322623513639,100.19621990679298 31.617868152447045,108.40802562609315 37.500165472738445,112.51391000673175 46.47066888585687,113.82032518065535 57.79409122746438,111.39412457915023 69.55868586711586,115.5 74.705696022138,114.38021701632533 77.94095954764634,109.34118224936537 77.79390211496502,100.19621990679298 83.08796970266849,87.878418927663 82.20562510564923,82.83928656869102 76.76450008433312,78.17340672726277 73.08806425891817,77.61350007739384 67.05870950594544,78.73331314860843 52.94119593780488,76.12041455693543 40.000141833908856,78.73331314860843 31.029638421721756,77.05359319772106 20.4415032453835,78.73331314860843 18.235641750507057,79.85312530293595 15.735665388405323,83.58582586690318 15.147435656748712,91.79773126670625 16.765067419968545,83.58582586690318 21.176790409721434,79.29321934026666 26.32380056474358,79.47985468641855 32.20609788503498,77.80013565253466 40.73542899917811,80.03976057341788 50.44121957663447,77.24022884934675 60.8822973202914,77.80013565253466 68.38222640380263,80.03976057341788 74.26452372316271,78.54667770012747" stroke="#4dd2ff" stroke-linecap="round" stroke-linejoin="round" stroke-width="0.5"><title>2026-01-18 15.3km</title><desc>17088044722</desc></polyline><polyline fill="none" points="185.5,64.35312607430751 185.30573210216244,64.37779169295027 185.22316824560403,64.38395809549911 185.11632090178318,64.40862369730894 184.92205300397472,64.40245729811068 184.70350161890383,64.40862369730894 184.48009353640373,64.3901244972185 184.28096894110786,64.39629089808659 183.99442379182437,64.414790095645 183.60588799617835,64.43328928563278 183.10079146179487,64.42712288980692 182.8919534716406,64.43945568060735 182.50827437342377,64.43328928563278 182.12945197266527,64.46412125209463 181.98860774675268,64.48262042187343 181.83319342846517,64.47028764286006 181.61949874085258,64.48878681010683 181.20667945797322,64.50111958407433 180.64330255426466,64.50111958407433 180.225626573927,64.54428426640152 179.78852380381431,64.55045064622027 179.49226525961421,64.54428426640152 179.4145581005141,64.56278340334029 179.38056121836416,64.5997816544841 179.37570452093496,64.62444713840887 179.3999880081392,64.80327149397999 179.39513131070998,64.88343390625596 179.36599112601834,64.9204318947086 179.29799736180576,64.96359617626149 179.2591437822266,65.00676041655606 179.2494303873391,65.03142567820396 179.24457368988078,65.0869224676535 179.29314066431834,65.88853515290248 179.28828396691824,66.24000699723183 179.29799736180576,66.39416045202597 179.3271375464683,66.62230659947818 179.3368509413558,66.7641265967759 179.34656433624332,67.18341789718033 179.3271375464683,67.30673812708847 179.31742415158078,67.5225477192289 179.3319942438975,67.62736914906782 179.34656433624332,67.97882746202231 179.37570452093496,68.85437838393773 179.3999880081392,69.43395909475657 179.39513131070998,69.87788822654693 179.4048447055975,70.14917610370321 179.39027461325168,70.19233538847766 179.34656433624332,70.22932902832326 179.28342726945993,70.24166023487487 178.953171843139,70.24166023487487 178.62777311427635,70.25399143803952 178.38008154454292,70.25399143803952 178.17124355438864,70.26015703837766 178.0012591437844,70.28481943127917 177.6224367429968,70.29098502739362 177.20476076265913,70.32797858644699 176.91821561337565,70.32181299538934 176.63652716152137,70.29715062266041 176.3596954071254,70.34030976606664 175.8351720829669,70.37730328471662 175.56319702602923,70.38346886821819 175.15523444057908,70.37113770038195 174.8055522244831,70.38963445088666 174.51900707517052,70.36497211520691 174.2761722028954,70.38346886821819 174.09161769994535,70.38346886821819 173.87792301236186,70.42046235151429 173.8342127353535,70.46362137709366 173.81478594554937,70.55610486445221 173.70793860175763,70.58693265147667 173.6933685094118,70.64858816246124 173.70308190429932,71.28363502793945 173.71765199664515,71.64123030466362 173.74193548384937,71.86934995052798 173.73222208896186,72.09130309483226 173.74679218130768,72.44272667638143 173.74193548384937,72.77565175815471 173.74679218130768,73.07774832011273 173.73707878642017,73.15789604849124 173.69822520687012,73.19488725977135 173.67394171960768,73.20721765679991 173.5428108885826,73.21338285406819 173.07171123637818,73.21338285406819 172.52290442498634,73.2318784407762 171.9789543110528,73.2318784407762 171.2407362993108,73.26270440181543 170.39567094374797,73.27503478032668 170.30339369230205,73.2688695914876 170.07027221488534,73.22571324605087 169.8954311068519,73.21954805047062 169.25920374144334,73.2318784407762 168.68125674541807,73.26270440181543 168.2538673701929,73.26270440181543 168.09359635447618,73.28119996832902 167.69049046648433,73.28119996832902 167.41365871205926,73.29353034178712 167.02997961384244,73.2996955272938 166.93770236239652,73.28736515547644 166.81628492622986,73.30586071190919 166.05378342728363,73.33668662244963 165.08730063555413,73.36134733573999 164.8347523683915,73.38600803558438 164.60648758843308,73.37367768733384 163.79056241753278,73.42299906007611 162.92607027219492,73.43532939484794 162.7657992565073,73.42916422788767 162.57153135866974,73.447659726251 162.25584602469462,73.45999005428894 162.06157812685706,73.47848554002849 161.51762801295263,73.48465070026577 161.14366230962332,73.50931133280392 161.01253147859825,73.50314617592448 160.6871327497065,73.52164164399437 160.1528960306896,73.5278067983345 159.8663508814061,73.54630225632354 158.9775752488349,73.56479770673104 158.49676220168476,73.6202840125261 158.3024943038763,73.62644915342025 157.75854418994277,73.62644915342025 156.90376543949242,73.6572748452054 156.04898668904207,73.66960511603247 155.67016428828356,73.70043077837181 154.91251948673744,73.71276103741548 154.76681856336654,73.71276103741548 154.55798057321226,73.72509129310129 154.3734260702622,73.72509129310129 154.24715193666634,73.70659590830837 153.97032018227037,73.69426564759124 153.2466722628742,73.74358667030901 152.96498381099082,73.73742154541105 152.62501498981146,73.71276103741548 152.24133589156554,73.73742154541105 151.88679697804037,73.74358667030901 151.71681256743614,73.76208203995338 151.473977695161,73.77441228216048 151.3088499820151,73.79907275652295 150.7309029859607,73.79290763918834 150.59005876001902,73.80523787299535 150.44921453410643,73.786742521017 150.26466003115638,73.81756810342631 149.9878282767604,73.82373321739215 149.65757285046857,73.84222855422922 148.76394052043906,73.86072388348111 148.6473797817307,73.85455877456116 148.0548626933596,73.88538431070992 147.6760402926011,73.87305409877081 146.72898429070483,73.89771451925844 146.35501858734642,73.89154941540255 146.14132389973383,73.91004472446366 145.75764480154612,73.92237492629647 145.58280369348358,73.91004472446366 144.94657632807503,73.92854002596505 144.7863053123874,73.92237492629647 144.64546108644572,73.94087022273379 143.9509533517412,73.95936551161867 143.60612783307442,73.9840258850054 142.90190670342417,74.01485133278038 142.36766998440726,74.00868624492068 142.19282887634472,74.0210164198179 141.83343326536124,74.0210164198179 140.55612183714402,74.07650216528418 140.41527761120233,74.06417200551368 139.92475116919377,74.10116247472615 139.40994123995188,74.10732754998753 139.2690970140393,74.11965769796006 139.2059599472268,74.1443179838534 139.14282288044342,74.15048305322489 138.63286964863073,74.16281318943584 138.36575128912227,74.13815291363062 138.10348962704302,74.13815291363062 137.60324979014695,74.15664812174145 137.36527161530103,74.15048305322489 137.15157692765933,74.16281318943584 136.88445856817998,74.15048305322489 136.3696486389381,74.16281318943584 135.91797577647958,74.18747345175143 135.72370787864202,74.18130838743673 135.57800695527112,74.19980357786699 135.23318143663346,74.19980357786699 134.91263940520003,74.23679393602288 134.6066674661124,74.2552891037376 133.98015349562047,74.2552891037376 132.41144022066146,74.30460951395798 131.89177359393216,74.30460951395798 131.4740976136236,74.35392987035084 130.92529080223176,74.37242499012427 130.53675500658574,74.36009491112418 130.26963664707728,74.34159978630123 129.82282048207708,74.32926969890104 129.6916896510229,74.34159978630123 129.63826597912703,74.35392987035084 129.65283607147285,74.44640539346437 129.64797937401454,74.54504574277598 129.66740616381867,74.72383082698798 129.67711955867708,75.03824425885978 129.65283607147285,75.10605863375895 129.58969900466036,75.21086246746563 129.44885477874777,75.37731511542734 129.3954311068519,75.45129387323686 129.21573330136016,75.64240510353193 128.96318503416842,75.9753066063422 128.78834392613498,76.17258041345849 128.54550905383076,76.505478009738 128.4338050125807,76.64726698181039 128.2735339968931,76.87536135104165 128.03069912458886,77.15893652864906 127.7587240676221,77.49799147001977 127.62759323659702,77.68292945653957 127.3944717591803,77.96649956564579 127.18563376902603,78.23773887424977 126.7922412759508,78.72473263756547 126.70482072190498,78.81719921491458 126.6416836551216,78.92199444045764 126.31142822880065,79.29185799966945 126.22886437221314,79.4213095301493 125.72862453531707,80.06856161956239 124.89812927210005,81.085653314316 124.61158412278746,81.46166323561556 124.45616980452905,81.64658500000223 124.37846264539985,81.7575376953937 124.29589878881234,81.83767002819877 124.07734740377055,82.13354202606934 123.3051325098786,83.10127648899652 123.26627893032855,83.1320957173848 123.21285525840358,83.13825956053915 122.29008274374064,82.97183550028058 122.22694567692815,82.93485229253565 122.17837870249059,82.81773860169415 122.15895191268646,82.79308304917504 122.1103849382489,82.7684274831845 121.63928528601537,82.78691915894888 121.2944597673486,82.78075526786779 120.7796498381067,82.69446070452614 119.90058760042302,82.51570715625348 119.439201343077,82.44173996392419 119.41491785584367,82.44173996392419 119.3614941839478,82.503379299269 119.19636647077277,82.49721536952711 119.15265619379352,82.52803500985465 119.13322940398939,82.55269070701979 119.0652356397768,82.75609969515062 118.8418275572476,83.29851918744316 118.66212975175586,83.69916576837568 118.64270296198083,83.7669671460244 118.41443818205153,84.1799369769833 118.26388056122232,84.40799332591996 118.03561578126391,84.80863007114385 117.81220769876381,85.0921554678389 117.5790862213471,85.51127670919595 117.51109245713451,85.5975658940406 117.45281208775123,85.63454692283631 117.37510492865113,85.64687392569249 117.31682455929695,85.64071042468277 116.95257225085516,85.55442132220924 116.56889315263834,85.5051131896762 116.40376543949242,85.49894966933425 116.21435423911316,85.52976726266934 115.92295239237137,85.51744022784987 115.25758484230028,85.4496414762798 115.1313107087044,85.41882382831682 114.59707398968749,85.52976726266934 114.5290802254458,85.55442132220924 114.48536994843744,85.52360374567797 114.37852260461659,85.37567908584606 114.20853819401236,85.29555302627341 114.07740736298729,85.25240816613223 113.90742295238306,85.21542682466315 113.70344165965798,85.19693614256175 113.50917376182042,85.18460901697108 113.32461925889947,85.19077258017205 113.14006475597853,85.18460901697108 112.94579685814097,85.14762761999737 112.8972298836743,85.15995475568343 112.76609905264922,85.15379118827695 112.62039812924922,85.17844545291882 112.26100251826574,85.17844545291882 111.74619258902385,85.17844545291882 111.25080944955698,85.166118322275 110.94969420792768,85.14762761999737 110.67771915099001,85.15379118827695 110.3668905144441,85.14146405090287 110.12405564216897,85.14762761999737 109.8520805852022,85.166118322275 109.45383139463956,85.15995475568343 109.26927689171862,85.17228188801164 109.12843266577693,85.19077258017205 108.6670464084309,85.166118322275 108.63304952631006,85.15379118827695 108.60876603907673,85.11064619279568 108.54562897229334,84.83944813519702 108.48249190548086,84.64221216205624 108.45335172081832,84.50044827467354 108.35621777191409,84.1244636370102 108.2833673102432,83.90256959621911 108.05995922771399,83.0149825377157 108.03567574048066,82.97183550028058 108.00653555581812,82.95950776772224 107.96768197623896,82.91636067732179 106.37954191147583,82.90403292964402 106.17070392132155,82.91636067732179 105.92301235158811,82.91636067732179 105.78702482310473,82.90403292964402 105.08766039094189,82.910196803914 104.84482551863766,82.89786905453002 104.74769156973343,82.91636067732179 104.56313706678338,82.89786905453002 104.53885357955005,82.91636067732179 104.5,82.97799936528463" stroke="#4dd2ff" stroke-linecap="round" stroke-linejoin="round" stroke-width="0.5"><title>2024-07-26 17.8km</title><desc>11984363624</desc></polyline><polyline fill="none" points="14.5,243.26503137622058 14.911010052659549,243.26503137622058 15.469363331707427,243.21582519340154 16.686883676389698,243.18630146759824 17.330540928669507,243.1469364811055 18.610100526566384,243.11741272710788 18.86601244614576,243.09773021774163 19.641503111517522,243.10757147308323 20.47127812349936,243.06820644365507 21.929200574435527,243.0386826574395 22.394494973676046,243.0091588591822 22.898563906172058,242.93042867144686 25.147486835805466,242.87138097426214 25.488702728558565,242.85169839778973 25.891957874584477,242.85169839778973 27.256821445655078,242.81233322875778 27.683341311640106,242.83201581596222 28.303733843931695,242.8024919331583 28.939636189577868,242.71392021223437 29.684107228327775,242.6351897024142 30.374293920525815,242.50725244073692 31.6150789851672,242.320266804134 32.75505026325118,242.10375651445065 33.65461943511036,241.98565971895005 34.05787458110717,241.96597690095223 34.77908089992707,241.88724557511887 35.05050263280282,241.90692841466807 35.825993298203684,241.87740415336884 36.88841550977668,241.88724557511887 37.17534705597791,241.90692841466807 37.80349449496134,241.97581831065327 38.5169459071185,242.0053425316437 40.38587841071421,242.14312206996692 41.26993776924792,242.19232898418704 41.68094782187836,242.23169449142006 41.9291048348241,242.28090134524973 42.58827190040029,242.33994952557987 43.13887027284363,242.4285217054421 43.5731450454623,242.52693511114194 43.95313547149999,242.62534838265128 44.14700813786476,242.6351897024142 44.28659645761945,242.61550706153503 44.42618477737415,242.56630043585756 44.93025370989926,242.22185311663634 45.06208712302032,242.0742323336599 45.286979415948736,241.67073398626235 45.51187170893536,241.34596538502228 45.57391096214997,241.2672333827868 45.64370512205642,241.2081843247288 45.77553853514837,241.1491352183948 45.91512685496127,241.0999275928625 46.054715174715966,241.09008606371208 46.248587841080735,241.0999275928625 46.4424605074164,241.15897673946893 46.70612733362941,241.2967578937023 46.977549066534266,241.4837461822317 47.25672570604365,241.57231941296777 48.65260890376521,241.5231120759854 49.12565820963937,241.4837461822317 50.01747247483581,241.44438026703574 50.436237434129,241.4050143303175 50.61460028719739,241.41485581651796 50.79296314023668,241.4739047054245 50.886022020102246,241.5427950148005 51.03336524651968,241.71009977803624 51.095404499734286,241.84787988003518 51.18846337959985,241.93645266384556 51.30478697939543,241.97581831065327 51.359071326005505,241.97581831065327 51.39009095256915,241.8970869955665 51.40560076589463,241.80851416343648 51.52192436569021,240.8735720831828 51.677022498770384,239.96814294448995 52.48353279082221,235.93294016993605 52.607611297251424,235.2538228848207 52.78597415029071,234.3483232284416 52.85576831019716,234.0530491444515 52.933317376708146,233.60029320209287 53.27453326949035,231.89751172300748 53.39085686931503,231.238042204277 53.45289612252964,231.05102736312983 53.49167065578513,231.011655755814 53.55370990902884,230.9821270362736 53.56146481569158,230.95259830460418 53.569219722325215,230.83448325717472 53.55370990902884,230.54903776089486 53.623504068906186,230.1356319364786 54.38348492101068,226.21800201074075 54.910818573465804,223.6586313902444 54.949593106721295,223.37315749975096 55.011632359965006,223.02861854118964 55.143465773086064,222.17218600059277 55.21325993296341,221.9556152416626 55.27529918620712,221.86701792559325 55.32182862612535,221.83748546272545 55.40713259932818,221.8177971474288 55.74059358544764,221.83748546272545 57.64830062229885,221.7488880015735 58.222163714672206,221.7488880015735 59.01316419336945,221.70951131723268 59.493968405906344,221.70951131723268 60.060076591646066,221.67013461139868 60.73475347054773,221.66029043158778 61.169028243166395,221.58153694472276 61.31637146958383,221.5716927527901 62.14614648153656,221.5421601689959 62.47185256102239,221.55200436495215 64.29425562469987,221.4929391691694 65.41096218285384,221.46340655314998 66.58195308758877,221.46340655314998 67.56682623262168,221.40434128482593 68.79985639060033,221.3649644124016 69.13331737671979,221.3649644124016 69.56759214933845,221.42402971296542 70.00962182861986,221.40434128482593 70.19573958826368,221.41418549956143 70.60674964095233,221.41418549956143 71.94834849206381,221.3649644124016 73.10382958353148,221.34527596811677 75.39152704644948,221.27636637086835 75.99640976541559,221.236989428573 78.12900909522432,221.2173009493781 79.9901866921864,221.1877682205086 80.6726184777217,221.1385469788438 81.44035423645983,221.1287027264989 81.95993298225221,221.08932570360776 82.2391096217907,221.0991699613296 82.94480612731422,221.07948144451075 84.48027764476137,221.01057159333868 85.55820966968895,221.03026012895134 86.36471996168257,221.02041586180712 86.65940641451743,221.04010439475678 86.73695548105752,221.03026012895134 86.79899473427213,220.97119450595346 86.80674964096397,220.89244026672532 86.77573001434212,220.65617703311727 86.76797510770848,220.52820079177764 86.78348492097575,219.976915925683 86.76022020101664,218.59868532649853 86.74471038772026,218.30334677180508 86.74471038772026,217.80126845347695 86.72144566776115,216.46237585098424 86.6516515078838,215.09392316932644 86.65940641451743,214.7001190253868 86.59736716130283,213.2824063025837 86.58961225464009,212.60307574647595 86.55859262804734,212.1994125301062 86.56634753468097,211.96312081846554 86.59736716130283,211.87451122701168 86.6516515078838,211.81543810557196 86.73695548105752,211.78590152670222 87.03164193392149,211.79574705432606 88.48956438485766,211.75636493571074 89.28831977018854,211.7169827956095 89.70708472951083,211.7268283326557 90.102584968874,211.7169827956095 91.00990904736682,211.70713725722453 91.14174246048788,211.68744617640186 91.20378171370248,211.64806399864756 91.28133078024257,211.5791451358382 91.3278602201899,211.51022620715958 91.74662517948309,211.4314616365882 91.7698898994131,211.4117704805103 91.77764480610495,211.35269698001503 91.75438008611673,210.58473706992663 91.70009573956486,210.0727592531548 91.669076112943,208.89125811093254 91.69234083290212,208.54664996470092 91.67683101963485,207.7294297775079 91.7078506461985,207.59158449573442 91.76213499280857,207.51281564500096 91.83968405931955,207.45373895046941 91.98702728576609,207.41435446055402 92.85557683100342,207.41435446055402 93.5147438965796,207.37496994914545 95.3604116801871,207.34543155147549 95.44571565341903,207.3158931417056 95.49224509330816,207.25681628584425 95.5,207.1091239344605 95.46898037334904,206.93189271349547 95.42245093345991,206.85312314215116 95.34490186691983,206.81373832419195 95.10449976063683,206.78419969660172 93.58453805645695,206.8432769396677 93.54576352320146,206.8334307358673 93.49147917662049,206.7940459071615 93.48372426995775,206.73496862377942" stroke="#4dd2ff" stroke-linecap="round" stroke-linejoin="round" stroke-width="0.5"><title>2024-07-26 13.0km</title><desc>11982980752</desc></polyline><polyline fill="none" points="184.7259139904054,240.97300832242036 184.77991999109508,241.04154884690797 184.84292699187063,241.04154884690797 185.01394599396735,241.00727859165636 185.23897099675378,240.9844317470488 185.40098899876466,240.9273146082778 185.45499499945436,240.8587739903087 185.4639959995402,240.8245036603039 185.45499499945436,240.63030485868512 185.5,240.45895260099496 185.49099899985595,239.81923440803075 185.45499499945436,239.61360966543725 185.4459939993103,239.3051716049813 185.43699299922446,239.00815610279096 185.45499499945436,238.74541074207082 185.43699299922446,238.52835960497032 185.4459939993103,237.93432203741395 185.4279919991386,237.61445390967128 185.45499499945436,237.4430954815325 185.43699299922446,237.3288563346723 185.43699299922446,237.0432577857282 185.47299699962605,236.7690822624354 185.36498499830486,236.72338625462726 185.22996999666793,236.71196224875894 184.64490498939995,236.7462342616418 184.18585398379946,236.7462342616418 182.961717968632,236.7919302569935 182.51166796305915,236.7919302569935 182.28664296027273,236.7690822624354 181.94460495607927,236.8147782453234 181.17051894654287,236.83762622739596 180.9004889432108,236.8147782453234 180.59445493941894,236.84905021611485 176.54400488943793,236.98613795903657 176.02194688294549,236.974713989046 175.66190687852213,236.99756192751374 174.72580286697485,237.02040985969506 173.75369485496776,237.07752966301632 173.3936548505444,237.06610570545308 172.81759084342048,237.08895361898612 171.7554728302639,237.08895361898612 171.32342482497916,237.07752966301632 170.8913768196362,237.11180152631277 169.7122458050726,237.14607337552297 169.2711967996438,237.1917691527342 168.80314479384106,237.20319309311162 168.36209578841226,237.1917691527342 167.38098677626112,237.22604096925352 167.02994777198182,237.21461703194655 165.04972774750786,237.248888839109 164.89671074564103,237.20319309311162 164.6536837425665,237.07752966301632 164.45566174015403,236.92901809343311 163.58256472938228,236.22072852306155 163.21352372481488,235.86658149144932 163.07850872317795,235.77518846601015 162.97049672185676,235.68379534083942 162.75447271915618,235.54670546601847 162.52944771636976,235.32964603862638 162.12440271140076,235.0097679623068 161.94438270915998,234.88410124088114 161.31431270140456,234.34715948878147 160.87326369597577,234.0158532860005 160.69324369373498,233.79878989071585 160.1801866873866,233.3532369481909 159.54111567954533,232.88483258078486 159.32509167684475,232.75916267061257 159.01905767305288,232.4849731210561 158.5600066673942,232.16508417853038 158.28097566397628,231.9365913285801 157.98394266027026,231.75379659972532 157.79492165794363,231.5824261790549 157.61490165576106,231.35393173925695 157.41687965329038,231.21683477608894 157.3088676519692,231.1140119064221 157.1468496499583,230.90836578836024 157.11984664958436,230.8398169700522 157.11084564949851,230.74841845843912 157.10184464941267,229.00040272461047 157.01183464826318,228.66907536715007 156.99383264803328,228.41772270424553 157.02983664855128,228.1777944585192 157.02083564840723,227.58368346258794 157.03883764857892,227.16094807176705 157.01183464826318,226.37259799300227 156.99383264803328,226.23549287379137 156.94882764754584,225.25289961614908 156.97583064786159,224.97868548626138 156.97583064786159,224.67019351663475 156.96682964771753,223.9732259930388 156.99383264803328,223.7561365630172 156.97583064786159,223.5847497732684 157.00283364817733,223.32195601429703 156.759806645161,223.32195601429703 156.354761640192,223.3448076782297 156.06672963657184,223.31053017995873 155.82370263361372,223.31053017995873 154.86059562169248,223.32195601429703 154.3475386154023,223.35623350789683 152.22330258914735,223.35623350789683 150.9271585731767,223.29910434409976 150.6301255694707,223.24197514132538 150.2610845649615,223.1619941919489 150.03605956211686,223.08201316614577 149.92804756085388,223.00203206395236 149.86504056007834,222.9334767727196 149.7480275585549,222.9106249964898 149.63101455714786,222.84206963038014 148.8659295477555,222.15651288192748 148.39787754195277,221.6309155731724 147.91182353592012,221.20815012606909 147.76780753419735,221.11674110004242 147.50677853095112,221.0253319742551 146.99372152460273,220.72825162608933 146.79569952213205,220.67112066903792 146.57967551948968,220.65969447294628 146.120624513831,220.67112066903792 145.28353150351904,220.60256346915412 144.7794754972565,220.64826827531942 144.17640848987503,220.63684207609913 144.03239248803584,220.65969447294628 143.4923324813717,220.69397305652092 142.37620846758364,220.6825468635725 141.75513945991406,220.64826827531942 141.45810645626625,220.61398967301648 140.96305145014776,220.60256346915412 140.5310034448048,220.56828484810103 140.32398044224828,220.5225799983018 140.00894543837057,220.54543242631917 139.43288143124664,220.53400621308538 139.21685742860427,220.49972756401985 138.95582842535805,220.55685863800318 138.84781642403686,220.56828484810103 138.33475941768847,220.55685863800318 137.85770641179988,220.56828484810103 137.65068340924336,220.55685863800318 137.55167240806622,220.5225799983018 137.38965440599713,220.54543242631917 136.5705633959151,220.59113726372016 136.0575063895667,220.55685863800318 135.1034003777895,220.57971105669276 134.68035337259062,220.56828484810103 134.491332370264,220.53400621308538 134.46432936989004,220.4768751234733 134.50033337040804,220.24835037527373 134.5093343704939,220.07695640473685 134.5093343704939,219.7912990074692 134.4733303700341,219.2542604619157 134.4733303700341,218.42012993274693 134.491332370264,217.57456447541335 134.4373263695743,216.90039130238438 134.4733303700341,216.3519074275173 134.4553283698042,216.0205300116868 134.46432936989004,215.68915128408844 134.4553283698042,215.4034789144207 134.48233137011994,214.9806820181766 134.48233137011994,214.27220675627905 134.4553283698042,213.76941422312666 134.46432936989004,213.48373530208482 134.42832536948845,213.28947307886847 134.3833203688846,213.25519146326405 134.2933103677933,213.2437642549703 134.09528836538084,213.26661867002258 134.09528836538084,213.2437642549703 134.04128236474935,213.20948262063757 133.96927436382975,213.11806486047135 133.84326036222046,213.07235594297526 133.71724636066938,213.04950147483032 133.240193354839,213.07235594297526 132.11506834090687,213.0266470005081 131.26897433050908,213.04950147483032 130.79192132456228,213.00379251989943 129.91882431379054,212.95808353997563 129.8738193132449,212.91237453513168 129.855817313015,212.8323837165517 129.8378153127851,212.35243719981372 129.77480831200955,211.72393164762616 129.8018113123835,211.54109278268152 129.7838093121536,211.18684134542127 129.8018113123835,210.61546490030742 129.79281031223945,210.46690638570726 129.77480831200955,210.39834082851303 129.7298033114639,210.31834760746278 129.66679631068837,210.26120954562793 129.47777530836174,210.1583609360241 129.45977330813184,210.08979512607038 129.45977330813184,210.00980161016196 129.47777530836174,209.99837395881332 129.4327703077579,210.14693330492446 129.45977330813184,210.16978856555215 129.53178130899323,210.20407144479395 129.82881431269925,210.27263716112793 129.95482831425034,210.27263716112793 130.13484831649112,210.22692668981472 130.69291032332694,210.18121619353042 130.76491832424654,210.12407803809037 130.83692632516613,209.99837395881332 130.83692632516613,210.112650402305 130.80992332479218,210.22692668981472 130.89093232579762,210.26120954562793 130.95393932657316,210.26120954562793 130.98994332703296,210.28406477504177 131.06195132795256,210.37548563028395 131.11595732858405,210.39834082851303 131.07995332812425,210.32977521515568 131.02594732743455,210.31834760746278 131.85403933771886,209.33556750980642 131.809034337115,209.3698507306981 131.70102233579382,209.35842299197975 131.57500833424274,209.32413976637326 131.48499833309324,209.33556750980642 131.41299033223186,209.3698507306981 131.403989332146,209.41556167006638 131.37698633183027,209.42698940102127 131.32298033114057,209.40413393754716 131.1249583286699,209.26700102585164 130.9449383264291,209.22129000538553 130.67490832315525,209.3127120213976 130.5758973219199,209.27842877710646 130.50388932100032,209.28985652675328 130.38687631959328,209.3698507306981 130.2428603178123,209.39270620349998 130.1708523168927,209.46127258447814 130.2428603178123,209.42698940102127 130.42288031999487,209.735537546665 130.49488832091447,209.80410364676936 130.56689632177586,209.80410364676936 130.6659073230112,209.84981434899964 130.76491832424654,209.735537546665 130.7199133237009,209.9755186513794 130.7559173241607,210.03265690823173 130.6479053227813,210.06693984361482 130.49488832091447,210.07836748565023 130.42288031999487,210.112650402305 130.40487831976498,210.112650402305 130.1528503166628,209.3469952516898 130.2788643182139,209.3127120213976 131.0889543282101,209.27842877710646 131.1609623291297,209.28985652675328 131.24197133013513,209.33556750980642 131.37698633183027,209.3469952516898 131.5660073341569,209.3127120213976 131.80003333702916,209.3012842748576 131.81803533720085,209.3469952516898 131.809034337115,209.4498448582235 131.8450383375748,209.49555575388513 131.81803533720085,209.47270030916116 131.809034337115,209.4498448582235 131.85403933771886,209.3012842748576 131.8450383375748,209.1870067236232 131.8630403378047,209.12986788950366 131.92604733858025,209.06130123705225 132.53811534610577,208.95845115309203 132.799144349352,208.96987894644553 133.79825536167482,209.04987345619884 133.8702633625362,209.06130123705225 133.9242693632259,209.11844011800713 133.9962773640873,209.6326882911235 134.08628736523679,210.53547188676748 134.07728636515094,210.8325884088772 134.11329036561074,211.9067701131571 134.09528836538084,212.93522904069687 134.050283364777,213.00379251989943 133.9782753639156,213.04950147483032 133.8882653628243,213.06092870971042 133.501222358027,213.06092870971042 132.89815535058733,213.01521976098593 131.87204133789055,212.96951078729762 131.1609623291297,212.98093803306256 131.0709523280384,212.96951078729762 130.98094232694712,212.93522904069687 130.83692632516613,212.96951078729762 130.17985331703676,212.93522904069687 129.7838093121536,212.94665629111114 129.45977330813184,212.98093803306256 129.18074230465572,212.95808353997563 128.2896432937123,212.94665629111114 127.89359928877093,212.88952002330188 127.87559728859924,212.98093803306256 127.91160128900083,213.36946346068726 127.92960328923073,213.84940414631274 127.92060228914488,213.89511263953318 127.87559728859924,213.9636753325467 127.64157128566876,214.180790156679 127.15551727969432,214.54645595601323 126.57945327251218,215.16351337046945 126.40843427047366,215.3120635502055 125.13929325476056,216.22621270003583 124.68024224910187,216.5233090244219 124.23919324367307,216.75184394109237 123.68113123677904,217.27747188183275 123.33909323258558,217.55171123644686 122.94304922764422,217.8945091663918 122.82603622623719,218.0430545001218 122.68202022445621,218.31729134684429 122.3849872208084,218.95717382907605 122.16896321810782,219.33424514447688 122.03394821647089,219.69988843447936 121.9079342149198,219.91698838235607 121.68290921207517,220.4083177645225 121.56589621066814,220.60256346915412 121.47588620951865,220.63684207609913 120.32375819532899,220.63684207609913 120.09873319254257,220.61398967301648 119.94571619067574,220.55685863800318 119.77469718857901,220.5225799983018 119.39665518386755,220.5225799983018 119.17163018108113,220.54543242631917 118.50555617286591,220.54543242631917 117.93849316588603,220.51115378191753 117.88448716519633,220.5225799983018 117.83948216465069,220.62541587532905 117.821480164479,220.7739563636278 117.87548616511049,220.89964426326333 117.91149016551208,221.09388882794883 117.94749416603008,221.20815012606909 117.96549616620177,221.345263477946 117.93849316588603,221.75660218631674 117.95649516611593,221.92799271833064 117.93849316588603,222.20221683980344 117.96549616620177,222.84206963038014 117.94749416603008,223.81326541495946 117.96549616620177,224.33884902394493 117.95649516611593,225.56138943884434 117.92949216580018,226.13266388705233 117.96549616620177,226.52112828545796 117.95649516611593,226.7496359132565 117.92049116565613,226.86388949327375 117.85748416488059,226.9781429174036 117.66846316255396,227.25235049925686 117.3624291588203,227.59510871378734 117.20941215689527,227.70936114019423 117.10140015557408,227.81218819064088 116.9033781531034,228.06354267129063 116.48933214804856,228.69192557185306 115.87726414046483,229.54880374578352 115.16618513164576,230.6341701785932 114.68013112567132,231.31965751948883 113.76202911435394,232.67919081139553 113.61801311257295,232.85055898763676 113.26697410817724,233.4332081636967 113.05095010559307,233.7188190243105 112.8169241026626,234.0843995044488 112.53789309924468,234.43855407270894 111.79981109010987,235.5124329622704 111.76380708965007,235.53528129967162 111.63779308809899,235.52385713173862 111.33175908436533,235.5581296308228 111.05272808088921,235.5581296308228 110.36865207244409,235.5581296308228 109.98160906764679,235.53528129967162 109.05450605624355,235.52385713173862 107.51533503719838,235.5581296308228 106.73224802751793,235.56955379407736 106.26419602177339,235.54670546601847 105.60712301364401,235.56955379407736 105.15707300812937,235.53528129967162 104.83303700410761,235.52385713173862 104.72502500272822,235.56955379407736 104.62601400155108,235.66094704395073 104.53600400040159,235.77518846601015 104.50900100008585,235.85515736874368 104.50900100008585,236.7690822624354 104.5,237.39739984148764 104.50900100008585,237.42024766466056 104.5540060006897,237.40882375383808 104.59001000109129,237.53448668684723 104.64401600178098,237.6258777924013 104.67101900209673,237.64872555324837 104.63501500169514,237.591606139511 104.61701300140703,237.58018225209526 104.59001000109129,237.6258777924013 104.58100900100544,237.70584492795751 104.59901100117713,237.95716971411457 104.62601400155108,238.05998418193485 104.78803200356197,238.07140800393245" stroke="#4dd2ff" stroke-linecap="round" stroke-linejoin="round" stroke-width="0.5"><title>2024-07-11 14.3km</title><desc>11866200789</desc></polyline></svg>