<?xml version="1.0" encoding="utf-8" ?>
<svg baseProfile="full" height="300mm" version="1.1" viewBox="0,0,200,300" width="200mm" xmlns="http://www.w3.org/2000/svg" xmlns:ev="http://www.w3.org/2001/xml-events" xmlns:xlink="http://www.w3.org/1999/xlink"><defs /><rect fill="#222222" height="300" width="200" x="0" y="0" /><text fill="#FFFFFF" style="font-size:12px; font-family:Arial; font-weight:bold;" x="10" y="20">Over 3km Runs</text><text fill="#FFFFFF" style="font-size:4px; font-family:Arial" x="10" y="280">ATHLETE</text><text fill="#FFFFFF" style="font-size:9px; font-family:Arial" x="10" y="290">V</text><text fill="#FFFFFF" style="font-size:4px; font-family:Arial" x="120" y="280">STATISTICS</text><text fill="#FFFFFF" style="font-size:3px; font-family:Arial" x="120" y="285">Number: 5</text><text fill="#FFFFFF" style="font-size:3px; font-family:Arial" x="120" y="290">Weekly: 1.2</text><text fill="#FFFFFF" style="font-size:3px; font-family:Arial" x="141" y="285">Total: 73.6 km</text><text fill="#FFFFFF" style="font-size:3px; font-family:Arial" x="141" y="290">Avg: 14.7 km</text><text fill="#FFFFFF" style="font-size:3px; font-family:Arial" x="167" y="285">Min: 13.0 km</text><text fill="#FFFFFF" style="font-size:3px; font-family:Arial" x="167" y="290">Max: 17.8 km</text><polyline fill="none" points="85.65418485878035,34.50001462851651 84.47227817820385,34.0 83.42169446265325,35.5000432721572 84.07830928498879,50.333705376368016 82.76507964031771,68.1671955898637 81.18920406652614,69.33386344951577 78.03745291894302,70.00053029728588 76.19893141556531,73.33385908231139 74.09776398399845,75.33385198877659 73.04718026844785,75.33385198877659 70.68336690729484,73.33385908231139 67.26896983012557,72.33386140142102 60.7028216063045,72.8338603443699 55.3185800621286,71.33386290201452 45.9946495834738,70.83386334590614 36.27675021113828,73.50052528269589 29.31663309317082,72.00052865920588 19.73005668539554,73.33385908231139 17.366243324708194,74.66718805069104 15.65904478635639,78.00050410581753 15.265075892675668,83.66712053213269 16.70962850190699,87.66706924699247 18.154181111603975,89.33371068129782 22.487838939763606,92.00033224676736 29.710601987317204,100.666812148178 34.30690574366599,103.33340898377355 36.93336503347382,104.33338129648473 41.39834582572803,104.6667052191915 51.116245198529214,102.50009809748735 55.712548955343664,103.16674685140606 62.01605125050992,106.0 66.87500093691051,105.00002905062865 68.71352244028822,103.16674685140606 70.0267520849593,100.666812148178 70.68336690729484,91.50034114648588 75.01702473545447,82.16713638824876 74.75437880633399,78.5005007297732 73.70379509031773,76.33384721470065 69.63278319127858,72.50052773870993 67.40029279515147,72.16719504189678 60.440175677184016,73.00052661309019 56.106517849024385,71.16719640616793 53.21741263056174,70.83386334590614 43.236867329105735,71.33386290201452 36.40807317616418,73.1671928592259 29.973247915972024,72.16719504189678 24.85165230045095,73.33385908231139 20.1240255786106,73.1671928592259 18.022858147509396,74.16718985780608 16.31565960822627,76.00051556411199 14.871106998994946,80.833815603517 15.265075892675668,85.00043822545558 16.972274431027472,88.00039771560114 23.407099691219628,93.16697735199705 29.18531012861058,100.33348713500891 32.99367609899491,103.00008469703607 36.53939614025876,104.16671930090524 42.18628361355513,104.5000432691304 49.93433851795271,102.50009809748735 52.69212077232078,102.50009809748735 56.89445563592017,103.50007109239232 61.09679049998522,105.50001462735236 63.72324978932738,105.83333823177963 67.26896983012557,104.33338129648473 69.76410615583882,101.0001370703103 70.15807504951954,92.33365953329485 74.09776398399845,82.83379623526707 73.83511805534363,76.83384452026803 72.2592424810864,74.00052374822553 70.55204394320026,72.50052773870993 67.53161575971171,71.83386225427967 60.7028216063045,72.66719405306503 55.843871920369565,71.50052937574219 46.65126440534368,70.83386334590614 35.88278131745756,72.8338603443699 29.710601987317204,71.66719582665246 19.59873372130096,72.66719405306503 16.840951466932893,74.50052200886421 14.871106998994946,79.33382798172534 15.133752928581089,84.83377359330188 16.44698257325217,87.66706924699247 22.750484868418425,92.33365953329485 29.31663309317082,100.0001620304538 32.46838424075395,102.33343585231341 36.27675021113828,103.66673317854293 39.953793216496706,104.16671930090524 50.19698444707319,102.0001112932805 52.95476670144126,102.0001112932805 56.106517849024385,102.50009809748735 61.09679049998522,104.8333671464352 64.64251054031774,105.00002905062865 67.26896983012557,104.00005728309043 69.63278319127858,100.666812148178 70.68336690729484,90.66702219145373 74.36040991265327,83.50045571790542 74.49173287767917,76.83384452026803 73.04718026844785,74.33385594491847 70.15807504951954,72.33386140142102 67.00632390147075,71.50052937574219 60.834144569933414,72.66719405306503 54.00535041745752,71.16719640616793 46.12597254803404,70.83386334590614 42.31760657764971,71.16719640616793 36.53939614025876,73.33385908231139 32.07441534707323,71.83386225427967 28.26604937715456,71.33386290201452 24.45768340677023,72.33386140142102 18.548150004819036,72.8338603443699 17.103597396053374,73.66719146072865 15.133752928581089,76.50051300635096 14.608461070340127,80.5004851805279 15.527721821796149,86.50041889084969 17.628889253828675,88.8337184896227 24.06371451402083,93.16697735199705 28.26604937715456,98.83352344844025 32.86235313443467,102.66676032019313 35.88278131745756,103.8333952423418 41.00437693297863,104.16671930090524 44.28745104558766,103.8333952423418 49.67169258883223,102.16677358408924 52.95476670144126,102.0001112932805 63.985895718447864,105.00002905062865 67.26896983012557,103.66673317854293 69.23881429806352,101.0001370703103 70.42072097864002,91.00034984131344 74.62305584177375,83.66712053213269 74.49173287767917,77.16717594419606 73.04718026844785,74.50052200886421 71.2086587655358,73.1671928592259 66.74367797235027,72.00052865920588 59.652237890288234,72.50052773870993 55.712548955343664,70.83386334590614 50.06566148297861,70.33386358502321 43.105544365011156,70.83386334590614 36.53939614025876,72.8338603443699 29.05398716405034,71.50052937574219 24.32636044267565,72.66719405306503 17.760212218388915,73.33385908231139 15.65904478635639,75.83384970424231 14.477138105779886,79.00049714907072 14.608461070340127,84.33377956063487 15.92169071547687,87.3337406879291 22.356515975203365,92.00033224676736 28.26604937715456,99.33351154869888 31.286477560643107,101.66678664332721 35.75145835336298,103.66673317854293 39.297178394626826,104.16671930090524 44.55009697424248,103.8333952423418 50.45963037572801,102.0001112932805 54.00535041745752,102.0001112932805 61.35943642864004,105.33335279137827 64.77383350534365,105.50001462735236 67.92558465292677,104.16671930090524 69.76410615583882,101.50012428464834 70.42072097864002,99.00018617149908 70.42072097864002,91.50034114648588 74.75437880633399,83.33379088144284 74.88570177089423,77.83383851882536 73.4411491616629,74.66718805069104 71.60262765921652,73.33385908231139 66.74367797235027,72.00052865920588 60.177529748063534,72.50052773870993 53.6113815237768,70.83386334590614 45.20671179611236,70.83386334590614 36.80204206891358,72.8338603443699 28.79134123539552,71.66719582665246 24.19503747764975,72.8338603443699 18.548150004819036,73.00052661309019 16.18433664459735,75.33385198877659 14.608461070340127,80.00048937427346 15.002429964020848,85.00043822545558 16.578305538278073,88.00039771560114 23.53842265577987,93.00031383347232 29.579279022291303,100.16682459390722 33.38764499267563,102.33343585231341 36.27675021113828,103.50007109239232 41.79231471940875,104.33338129648473 50.98492223396897,102.0001112932805 53.08608966553584,102.0001112932805 57.02577860048041,102.8334225199651 61.35943642864004,104.6667052191915 64.90515646990389,104.8333671464352 67.26896983012557,104.00005728309043 69.76410615583882,100.666812148178 70.55204394320026,98.33353514422197 70.42072097864002,91.66700486978516 73.83511805534363,85.50043198512867 74.75437880633399,82.66713130741846 74.09776398399845,76.50051300635096 70.68336690729484,72.66719405306503 66.34970907960087,71.83386225427967 60.440175677184016,73.00052661309019 54.79328820388764,71.00052988773677 45.9946495834738,70.66719678160734 35.88278131745756,73.00052661309019 30.629862737841904,71.50052937574219 27.740757519379258,71.50052937574219 24.58900637133047,72.50052773870993 18.416827040724456,72.8338603443699 16.31565960822627,75.16718603833579 14.739784034900367,79.00049714907072 14.739784034900367,84.16711483721156 16.70962850190699,88.50039024814032 23.407099691219628,92.33365953329485 29.05398716405034,99.16684887115844 33.78161388542503,102.66676032019313 36.93336503347382,103.8333952423418 41.00437693297863,104.16671930090524 50.32830741163343,102.0001112932805 54.53064227476716,102.16677358408924 60.965467534959316,105.16669093223754 63.72324978932738,105.33335279137827 67.40029279515147,104.00005728309043 69.76410615583882,101.33346190245356 70.42072097864002,98.83352344844025 70.42072097864002,91.50034114648588 75.01702473545447,82.33380138396751 75.01702473545447,78.33383521146607 74.09776398399845,75.50051791674923 72.52188840974122,73.83385761629324 69.50146022671834,72.16719504189678 66.74367797235027,71.83386225427967 61.49075939320028,73.00052661309019 54.39931931067258,71.00052988773677 49.54036962473765,70.83386334590614 43.236867329105735,71.16719640616793 36.40807317616418,72.8338603443699 29.841924950946122,71.16719640616793 24.58900637133047,72.50052773870993 19.073441863059998,72.8338603443699 17.103597396053374,74.00052374822553 15.527721821796149,76.00051556411199 14.345815141219646,82.5004663572181 14.871106998994946,85.50043198512867 16.578305538278073,88.50039024814032 23.801068584434688,92.83365029306151 28.79134123539552,99.00018617149908 34.963520566001534,102.8334225199651 38.377917643170804,104.00005728309043 42.711575471330434,104.00005728309043 50.06566148297861,102.16677358408924 53.87402745243162,102.16677358408924 56.237840813584626,102.50009809748735 61.2281134640798,105.00002905062865 64.64251054031774,105.33335279137827 68.05690761748701,103.8333952423418 70.15807504951954,101.0001370703103 70.15807504951954,92.00033224676736 73.70379509031773,85.667096526362 74.88570177089423,82.33380138396751 74.36040991265327,77.00051024381537 72.2592424810864,74.16718985780608 70.0267520849593,72.66719405306503 66.21838611457497,71.83386225427967 60.308852712623775,72.66719405306503 53.74270448787138,71.00052988773677 44.15612808056176,70.83386334590614 36.01410428248346,72.66719405306503 29.18531012861058,71.16719640616793 24.72032933635637,72.8338603443699 19.46741075674072,72.66719405306503 18.154181111603975,73.1671928592259 15.65904478635639,76.16718140069861 14.345815141219646,79.00049714907072 14.739784034900367,85.00043822545558 16.18433664459735,87.83373349288013 22.619161904323846,92.00033224676736 28.3973723417148,98.66686070279684 33.38764499267563,102.50009809748735 37.8526257853955,103.8333952423418 42.44892954220995,104.00005728309043 52.82344373688102,102.0001112932805 58.99562306795269,103.50007109239232 62.54134310921654,105.00002905062865 65.43044832767919,105.16669093223754 67.7942616888322,104.00005728309043 70.0267520849593,100.50014965294395 70.28939801361412,91.66700486978516 74.22908694902435,84.66710893798154 74.88570177089423,82.5004663572181 74.09776398399845,76.50051300635096 71.47130469419062,73.33385908231139 68.71352244028822,72.00052865920588 61.7534053218551,72.8338603443699 54.79328820388764,71.00052988773677 43.89348215190694,70.83386334590614 37.58997985674068,72.66719405306503 28.79134123539552,71.50052937574219 19.59873372130096,73.00052661309019 17.628889253828675,73.83385761629324 15.79036775091663,76.16718140069861 14.871106998994946,78.16716966987588 14.477138105779886,82.16713638824876 15.133752928581089,85.50043198512867 16.840951466932893,88.16706191597041 23.93239154899493,92.00033224676736 30.761185702867806,100.33348713500891 35.357489459682256,103.16674685140606 42.05496064852923,104.33338129648473 49.54036962473765,102.16677358408924 53.6113815237768,101.83344897942152 56.89445563592017,102.50009809748735 61.49075939320028,105.00002905062865 65.69309425679967,105.16669093223754 71.33998173009604,89.16704663995188 74.75437880633399,81.66714126465376 73.70379509031773,76.16718140069861 69.37013726262376,72.50052773870993 66.61235500825569,72.00052865920588 60.440175677184016,72.66719405306503 51.247568163089454,70.50053019495681 43.499513258226216,70.83386334590614 36.80204206891358,73.1671928592259 29.710601987317204,71.50052937574219 23.013130797538906,72.8338603443699 19.204764827620238,72.8338603443699 17.234920360147953,73.66719146072865 16.44698257325217,74.66718805069104 14.608461070340127,81.66714126465376 15.133752928581089,85.16710283455905 16.70962850190699,87.66706924699247 23.66974562034011,92.33365953329485 29.841924950946122,99.50017420307267 34.175582779571414,102.50009809748735 38.377917643170804,103.8333952423418 41.79231471940875,104.16671930090524 50.59095334075391,102.0001112932805 53.08608966553584,102.0001112932805 62.01605125050992,105.00002905062865 64.64251054031774,105.16669093223754 67.7942616888322,103.8333952423418 68.9761683694087,102.0001112932805 70.0267520849593,98.83352344844025 70.0267520849593,91.66700486978516 74.49173287767917,82.83379623526707 74.62305584177375,78.83383169875015 73.83511805534363,75.83384970424231 71.47130469419062,73.33385908231139 68.18823058204725,72.00052865920588 60.965467534959316,72.8338603443699 54.66196523979306,71.00052988773677 45.60068068979308,70.66719678160734 37.19601096305996,72.66719405306503 29.973247915972024,71.16719640616793 24.19503747764975,72.50052773870993 19.59873372130096,72.33386140142102 17.103597396053374,74.33385594491847 15.79036775091663,76.6671787747182 15.002429964020848,84.66710893798154 16.840951466932893,88.16706191597041 24.06371451402083,92.83365029306151 30.629862737841904,100.83347462071106 34.04425981501117,102.8334225199651 38.640563572291285,104.16671930090524 42.58025250630453,104.33338129648473 51.904182984959334,102.0001112932805 56.500486742239445,102.50009809748735 61.2281134640798,105.16669093223754 65.95574018592015,105.00002905062865 68.05690761748701,103.66673317854293 70.0267520849593,100.33348713500891" stroke="#4dd2ff" stroke-linecap="round" stroke-linejoin="round" stroke-width="0.5"><title>2026-01-22 13.2km</title><desc>17137413748</desc></polyline><polyline fill="none" points="185.55521935597062,34.0 184.2480421741493,36.15674394997768 183.72517130104825,52.24925115564838 182.41799411876127,56.728570950450376 183.07158270990476,68.17564659251366 178.23502713581547,70.00053275364917 174.31349558848888,75.47517480759416 168.4311982691288,72.48900946904905 161.89531235815957,73.31850057654083 154.5751201370731,71.82541617576499 145.68631529808044,71.65951779624447 136.53607502300292,73.98209305468481 130.26162454811856,72.48900946904905 119.80420709075406,73.48439872998279 117.7127235988155,74.6456851712428 115.7519578258507,78.29543534037657 115.35980467079207,82.94055608042981 116.66698185307905,87.41976285073906 124.1178917917423,92.894326503505 129.73875367548317,100.52549533278216 132.74526119465008,102.51622715347912 139.15042938711122,104.34106179373339 151.69933033641428,102.35033295920584 156.01301503786817,102.68212132470217 163.59464269457385,105.33642498939298 167.51617424143478,104.50695571617689 169.9998108879663,100.35960086726118 170.52268176106736,90.5717873572139 174.57493102550507,82.94055608042981 173.65990699781105,76.80235704954248 169.86909316899255,72.8208059797762 160.8495706114918,73.48439872998279 155.6208618832752,71.65951779624447 146.33990388922393,71.49361939355731 137.97396992333233,73.48439872998279 129.73875367548317,71.99131453281734 120.19636024534702,73.15260240016505 117.05913500813767,75.47517480759416 114.83693379815668,81.44748349138536 114.96765151619911,85.42900632275268 116.66698185307905,88.083347636275 123.72573863714933,92.7284309976967 129.3466005208902,99.8619173350744 133.79100294038653,102.68212132470217 142.41837234282866,104.50695571617689 153.6600961103104,102.35033295920584 161.37244148505852,105.17053117998876 164.50966672226787,105.33642498939298 167.38545652339235,104.00927388085984 169.4769400143996,101.023178593372 170.39196404255927,91.89895312662702 174.57493102550507,83.10645292175468 173.92134243436158,76.80235704954248 169.73837545095012,72.98670420108829 165.81684390455484,72.32311117986683 160.58813517540693,73.31850057654083 154.44440241903067,71.65951779624447 147.51636335346848,71.16182252112776 137.05894589563832,73.8161949692294 130.26162454811856,72.32311117986683 120.06564252730459,73.48439872998279 118.36631218995899,73.98209305468481 116.14411098044366,76.80235704954248 114.83693379815668,80.94979222118855 115.09836923424155,84.93131668155547 116.79769957158715,88.2492437758483 122.67999689141288,91.89895312662702 129.21588280191645,99.8619173350744 132.614543476142,102.01854450395331 137.45109905023128,104.00927388085984 141.76478375215083,104.50695571617689 150.1307177185081,102.01854450395331 153.92153154639527,102.01854450395331 165.16325531341136,105.50231877586339 167.90832739602774,104.17516784847248 169.60765773290768,101.35496732022148 170.26124632405117,91.89895312662702 174.44421330746263,82.77465921652038 173.92134243436158,76.9682547277771 169.9998108879663,73.31850057654083 166.9933033687994,72.65490773553029 160.7188528943807,73.48439872998279 154.18296698248014,71.82541617576499 144.2484203982167,71.65951779624447 136.53607502300292,74.14799111755565 128.4315764931962,72.32311117986683 118.62774762697518,73.98209305468481 114.96765151619911,79.95440906949807 116.14411098044366,87.41976285073906 124.37932722782716,93.22611744876485 128.8237296473235,99.19833897484932 133.13741434924304,102.51622715347912 140.98047744249925,104.17516784847248 154.31368470098823,101.85265024157707 161.5031592035666,105.17053117998876 164.50966672226787,105.33642498939298 167.12402108730748,104.50695571617689 169.34622229682282,102.01854450395331 169.9998108879663,91.73305748472922 174.31349558848888,82.94055608042981 173.79062471631914,76.9682547277771 169.73837545095012,73.15260240016505 166.86258564982563,72.32311117986683 159.9345465847291,73.48439872998279 151.69933033641428,71.49361939355731 142.81052549788728,71.65951779624447 136.53607502300292,73.65029686072376 127.7779879020527,72.32311117986683 118.23559447191656,74.14799111755565 116.27482869848609,76.47056162485387 114.83693379815668,81.28158642398193 114.96765151619911,85.26310979784466 116.53626413457096,88.58103598759044 124.37932722782716,93.7238036954077 128.95444736583158,99.8619173350744 133.26813206728548,103.01390959939454 141.50334831513464,104.67284961580299 149.7385645629838,102.18443874281365 152.87578980065882,102.18443874281365 161.37244148505852,105.33642498939298 164.248231286183,105.50231877586339 167.64689195947722,104.17516784847248 169.86909316899255,101.18907296808902 170.13052860600874,91.4012661324814 174.57493102550507,82.60876232990995 174.052060152404,77.46594762685709 170.52268176106736,73.31850057654083 165.94756162306294,72.32311117986683 160.06526430277154,73.15260240016505 151.43789489986375,71.16182252112776 144.11770267924294,71.49361939355731 136.92822817759588,73.48439872998279 129.47731823893264,71.82541617576499 118.62774762697518,73.98209305468481 116.27482869848609,76.13876610959414 114.96765151619911,79.12492248788476 114.96765151619911,85.26310979784466 116.14411098044366,88.083347636275 124.51004494633526,93.5579083020566 129.08516508480534,99.69602277886588 132.09167260397226,102.18443874281365 136.92822817759588,104.00927388085984 142.81052549788728,104.67284961580299 153.5293783918023,102.01854450395331 163.98679584963247,105.50231877586339 166.9933033687994,104.50695571617689 169.60765773290768,101.52086164965294 170.13052860600874,91.06947469047736 174.31349558848888,84.10183349356521 173.65990699781105,77.13415238377638 170.65339947864413,73.65029686072376 166.47043249569833,72.48900946904905 160.19598202081397,73.65029686072376 155.6208618832752,71.99131453281734 148.95425825426355,71.16182252112776 143.85626724315807,71.49361939355731 136.79751045955345,73.8161949692294 129.47731823893264,72.32311117986683 119.54277165420353,73.15260240016505 116.92841728916392,74.97748109372333 114.70621607964858,80.94979222118855 114.70621607964858,85.09721325116698 116.79769957158715,88.58103598759044 125.03291581943631,93.7238036954077 133.00669663073495,102.84801547368988 141.50334831513464,104.67284961580299 153.39866067375988,102.01854450395331 163.98679584963247,105.50231877586339 167.12402108730748,104.50695571617689 169.21550457831472,102.35033295920584 170.13052860600874,91.89895312662702 174.31349558848888,82.94055608042981 173.79062471631914,77.63184521498624 170.26124632405117,73.65029686072376 166.60115021374077,72.48900946904905 160.32669973932207,73.48439872998279 155.09799101063982,71.82541617576499 148.56210509873927,71.16182252112776 143.20267865248024,71.49361939355731 137.3203813326545,73.65029686072376 128.03942333860323,72.15721286775079 123.85645635565743,73.31850057654083 118.23559447191656,73.48439872998279 114.83693379815668,79.29081984935328 114.96765151619911,84.76542008889373 116.66698185307905,88.083347636275 123.72573863714933,92.894326503505 130.13090683007613,100.35960086726118 134.3138738134876,103.17980370298028 142.5490900608711,104.67284961580299 149.7385645629838,101.85265024157707 153.6600961103104,101.85265024157707 164.248231286183,105.66821253986564 167.38545652339235,104.17516784847248 169.4769400143996,100.85728419583756 169.86909316899255,92.56253546848893 174.1827778709121,83.10645292175468 173.65990699781105,77.30005001660902 170.13052860600874,73.31850057654083 166.2089970591478,72.48900946904905 160.4574174573645,73.31850057654083 151.43789489986375,71.49361939355731 143.5948318070732,71.65951779624447 137.1896636141464,73.8161949692294 128.4315764931962,72.15721286775079 118.36631218995899,73.98209305468481 116.01339326240122,76.13876610959414 114.96765151619911,78.95902510394808 114.57549836160615,84.26773017656524 115.62124010780826,86.75617770361714 118.10487675340846,89.57641207973938 124.1178917917423,93.22611744876485 131.9609548849985,102.18443874281365 139.80401797872037,104.50695571617689 153.26794295571744,102.18443874281365 161.11100604897365,105.33642498939298 164.248231286183,105.66821253986564 167.25473880488425,104.50695571617689 169.21550457831472,101.85265024157707 169.9998108879663,92.2307443433674 173.92134243436158,84.10183349356521 174.052060152404,77.63184521498624 170.13052860600874,73.15260240016505 166.2089970591478,72.32311117986683 161.11100604897365,73.31850057654083 154.5751201370731,71.49361939355731 147.51636335346848,70.99592405057047 135.6210509953089,73.8161949692294 129.60803595697507,71.82541617576499 124.51004494633526,73.15260240016505 118.36631218995899,73.31850057654083 115.09836923424155,78.29543534037657 114.83693379815668,84.59952347434592 116.53626413457096,88.2492437758483 124.51004494633526,93.7238036954077 128.95444736583158,99.53012820065487 132.87597891269252,102.68212132470217 136.53607502300292,104.00927388085984 142.67980777891353,104.50695571617689 153.26794295571744,102.01854450395331 162.15674779424444,105.66821253986564 167.12402108730748,105.00463734788354 169.73837545095012,101.023178593372 170.13052860600874,92.2307443433674 174.8363664620556,81.44748349138536 173.39847156172618,76.47056162485387 169.21550457831472,72.98670420108829 166.2089970591478,72.32311117986683 160.7188528943807,73.15260240016505 144.7712912708521,71.3277209685184 136.27463958598673,73.31850057654083 129.60803595697507,71.82541617576499 118.10487675340846,74.14799111755565 115.62124010780826,77.13415238377638 114.44478064356372,81.44748349138536 115.09836923424155,85.59490282472689 116.92841728916392,88.91282810922712 123.5950209191069,93.06022198707797 129.21588280191645,99.8619173350744 133.529567503836,103.01390959939454 142.41837234282866,105.00463734788354 152.22220120951533,102.35033295920584 156.01301503786817,103.17980370298028 163.98679584963247,105.83410628151614 167.64689195947722,104.67284961580299 169.86909316899255,101.35496732022148 170.39196404255927,91.23537042317912 174.57493102550507,83.10645292175468 173.92134243436158,76.9682547277771 170.26124632405117,73.31850057654083 166.60115021374077,72.48900946904905 160.19598202081397,73.48439872998279 149.60784684540704,71.3277209685184 136.66679274151102,73.65029686072376 128.69301192974672,72.32311117986683 123.5950209191069,73.8161949692294 118.36631218995899,73.8161949692294 114.70621607964858,78.46133281500079 114.44478064356372,83.77004005969502 115.88267554389313,87.41976285073906 124.37932722782716,93.7238036954077 130.00018911156803,100.69138977548573 133.13741434924304,102.84801547368988 142.41837234282866,104.67284961580299 153.5293783918023,102.68212132470217 161.37244148505852,105.83410628151614 164.50966672226787,106.0 167.38545652339235,104.83874349331018 169.9998108879663,101.68675595743116 170.39196404255927,91.56716182001401 174.44421330746263,83.93593678821344 173.92134243436158,77.46594762685709 170.65339947864413,73.48439872998279 166.9933033687994,72.8208059797762 160.19598202081397,73.65029686072376 148.69282281724736,70.83002555777784 143.4641140885651,71.16182252112776 137.05894589563832,73.31850057654083 128.69301192974672,72.32311117986683 118.23559447191656,73.98209305468481 115.7519578258507,76.80235704954248 114.70621607964858,80.45210074691568 114.96765151619911,84.93131668155547 116.79769957158715,88.2492437758483 123.20286776451394,92.39663991716225 129.21588280191645,99.69602277886588 134.44459153106436,103.34569778374862 142.41837234282866,104.50695571617689 152.48363664606586,102.35033295920584 162.94105410389602,106.0 167.51617424143478,105.00463734788354 170.39196404255927,100.52549533278216 170.26124632405117,92.39663991716225 174.96708418009803,81.44748349138536 174.1827778709121,76.9682547277771 169.34622229682282,72.8208059797762 166.07827934110537,72.32311117986683 160.7188528943807,73.31850057654083 148.16995194461197,70.99592405057047 136.66679274151102,73.31850057654083 128.69301192974672,71.82541617576499 119.281336217653,73.31850057654083 117.3205704446882,74.31388915819116 115.09836923424155,77.63184521498624 114.57549836160615,84.93131668155547 116.01339326240122,77.63184521498624 119.93492480833083,73.8161949692294 124.51004494633526,73.98209305468481 129.73875367548317,72.48900946904905 137.3203813326545,74.47978717635851 145.94775073509663,71.99131453281734 155.22870872868225,72.48900946904905 161.89531235815957,74.47978717635851 167.12402108730748,73.15260240016505" stroke="#4dd2ff" stroke-linecap="round" stroke-linejoin="round" stroke-width="0.5"><title>2026-01-18 15.3km</title><desc>17088044722</desc></polyline><polyline fill="none" points="86.0,140.53611206605274 85.82731742414762,140.55803706040388 85.75392732942419,140.56351830711355 85.65895191270101,140.58544328649805 85.48626933686319,140.57996204276787 85.29200143902563,140.58544328649805 85.0934164768114,140.56899955308836 84.91641683655325,140.57448079830283 84.66171003718046,140.59092452946425 84.31634488549025,140.60736825389904 83.86737018826534,140.60188701316656 83.68173641923931,140.61284949387482 83.34068833194033,140.60736825389904 83.00395730903256,140.63477444630917 82.87876244155632,140.65121815277962 82.74061638086278,140.6402556825451 82.55066554744553,140.65669938676365 82.1837150737556,140.66766185251254 81.68293560380698,140.66766185251254 81.31166806572583,140.7060304590268 80.9231322700798,140.7115116855348 80.65979134189547,140.7060304590268 80.59071831156325,140.72247413630612 80.56049886078108,140.75536147065577 80.55618179638986,140.77728634525556 80.5777671183605,140.93624132798504 80.57345005396928,141.00749680556692 80.54754766759288,141.04038390640926 80.4871087660431,141.0787521566781 80.45257225088426,141.11712037027246 80.44393812208727,141.13904504729362 80.43962105769606,141.18837552680634 80.48279170163732,141.90092013591493 80.47847463726066,142.2133395530982 80.4871087660431,142.35036484624652 80.5130111524195,142.55316142176162 80.52164528120193,142.67922364157857 80.53027940999891,143.05192701971828 80.5130111524195,143.16154500185803 80.50437702362251,143.35337575043013 80.51732821681071,143.44655035472897 80.53027940999891,143.75895774402306 80.55618179638986,144.53722523017132 80.5777671183605,145.05240808422968 80.57345005396928,145.44701175693626 80.58208418275171,145.6881565366275 80.56913298956351,145.72652034531347 80.53027940999891,145.75940358073422 80.47415757285489,145.77036465322453 80.18059719391749,145.77036465322453 79.89135387937131,145.78132572270624 79.6711835951428,145.78132572270624 79.48554982613132,145.78680625633933 79.33445257226413,145.8087283833629 78.99772154935636,145.8142089132416 78.6264540112752,145.847092076845 78.3717472119024,145.8416115514592 78.12135747690627,145.81968944236723 77.87528480633046,145.85805312539378 77.40904185154068,145.89093625308305 77.16728624537063,145.89641677175314 76.80465283607191,145.88545573367446 76.49382419955509,145.90189728968107 76.23911740016774,145.87997521352008 76.0232641803741,145.89641677175314 75.85921573330415,145.89641677175314 75.66926489987236,145.92929986801755 75.63041132032231,145.96766344631033 75.61314306271379,146.04987099062782 75.51816764600517,146.07727346798129 75.50521645281697,146.13207836663423 75.5138505815994,146.69656446928275 75.5268017747876,147.01442693747958 75.54838709677279,147.2171999560269 75.53975296799035,147.41449163985453 75.55270416117855,147.72686815678753 75.54838709677279,148.02280156280904 75.55270416117855,148.29133184010425 75.54407003239612,148.36257426532757 75.50953351720818,148.39545534202261 75.487948195223,148.40641569493528 75.37138745652919,148.41189587028566 74.95263221011555,148.41189587028566 74.46480393331149,148.4283363918039 73.98129272094229,148.4283363918039 73.32509893273527,148.45573724605856 72.57392972779053,148.466697582513 72.49190550427011,148.46121741465686 72.28468641324434,148.4228562187127 72.12927209497138,148.4173760448648 71.56373665906722,148.4283363918039 71.0500059959304,148.45573724605856 70.67010432906682,148.45573724605856 70.5276412039675,148.472177749627 70.16932485910365,148.472177749627 69.92325218849874,148.4831380815922 69.5822041012143,148.48861824648338 69.50017987769388,148.4776579159843 69.39225326778251,148.49409841058878 68.7144741575903,148.52149921995806 67.85537834273418,148.5434198539915 67.63089099414356,148.56534047607784 67.42798896749446,148.5543801665226 66.70272214894067,148.59822138673553 65.9342846864165,148.6091816843109 65.79182156133174,148.60370153590338 65.61913898547937,148.62014197889584 65.33852979974472,148.6311022704831 65.16584722389234,148.6475427022524 64.68233601152315,148.6530228446827 64.34992205299204,148.67494340693884 64.23336131431279,148.66946326749166 63.94411799975205,148.68590368355217 63.46924091617984,148.6913838207438 63.214534116821596,148.7078242278476 62.4245113322977,148.72426462821022 61.99712195707252,148.77358578891653 61.824439381220145,148.77906591415376 61.34092816885095,148.77906591415376 60.58112483510922,148.80646652907308 59.82132150136749,148.81742676980866 59.484590478488826,148.84482735855636 58.811128432658734,148.8557875888182 58.68161650077673,148.8557875888182 58.4959827317507,148.86674781609327 58.331934284680756,148.86674781609327 58.21969061039272,148.85030747405472 57.97361793980235,148.83934724230858 57.33037534478353,148.883188151387 57.0799856097874,148.877708040367 56.77779110206757,148.8557875888182 56.43674301473948,148.877708040367 56.121597313831444,148.883188151387 55.9705000599497,148.8996284799614 55.754646840156056,148.9105886952566 55.60786665069463,148.93250911691212 55.094135987528716,148.9270290126151 54.968941120037925,148.93798922044516 54.84374625256169,148.9215489075723 54.67969780549174,148.94894942527026 54.433625134901376,148.95442952657322 54.14006475596398,148.97086982598557 53.34572490706341,148.9873101186531 53.24211536155781,148.98183002183578 52.715433505232795,149.00923049841003 52.37870248231047,148.99827031002133 51.536874925062875,149.02019068379013 51.20446096654632,149.01471059147298 51.01451013311453,149.03115086619073 50.67346204581554,149.0421110456009 50.51804772754258,149.03115086619073 49.95251229163841,149.04759113419277 49.810049166568206,149.0421110456009 49.684854299077415,149.05855130909913 49.067514090435,149.07499156588528 48.76100251828029,149.0969118977846 48.13502818084089,149.1243122958076 47.66015109725413,149.11883221771132 47.50473677898117,149.12979237317268 47.18527401366737,149.12979237317268 46.04988607746782,149.1791130358106 45.92469120997703,149.16815289379156 45.48866770595487,149.20103331087012 45.031058879962075,149.20651337776872 44.905864012471284,149.2174735093031 44.849742175327265,149.23939376342605 44.793620338168694,149.2448738250896 44.340328576552565,149.25583394616478 44.102890034773736,149.23391370100944 43.869768557386124,149.23391370100944 43.42511092458153,149.25035388599645 43.21357476916455,149.2448738250896 43.023623935718206,149.25583394616478 42.78618539393938,149.2448738250896 42.328576567946584,149.25583394616478 41.92708957908326,149.27775417933663 41.75440700324543,149.27227412216598 41.624895071348874,149.28871429144056 41.31838349922327,149.28871429144056 41.033457249068306,149.32159460979892 40.76148219210154,149.33803475887908 40.20458088500891,149.33803475887908 38.81016908503079,149.38187512352306 38.34824319461768,149.38187512352306 37.976975656551076,149.42571544031307 37.489147379776114,149.44215554677794 37.14378222808591,149.43119547655806 36.90634368629253,149.41475536560392 36.509173761849524,149.40379528791527 36.392613023141166,149.41475536560392 36.34512531477958,149.42571544031307 36.35807650798233,149.50791590530207 36.353759443591116,149.5955962158041 36.37102770117053,149.75451629066083 36.379661829952965,150.03399489676667 36.35807650798233,150.0942743411215 36.30195467082376,150.18743330441794 36.17675980334752,150.33539121371723 36.129272094985936,150.4011501095447 35.96954071230721,150.57102675869828 35.74505336371658,150.86693920563994 35.58963904545817,151.0422937008516 35.37378582563542,151.33820267532428 35.274493344521034,151.46423731717005 35.13203021946538,151.66698786759298 34.91617699962808,151.91905469213452 34.67442139345803,152.2204368622406 34.55786065476423,152.38482618359558 34.35064156373846,152.63688850279868 34.165007794697885,152.87799011044626 33.815325578616466,153.31087345561536 33.73761841947271,153.3930659688158 33.68149658232869,153.48621728040962 33.38793620339129,153.81498488859506 33.3145461086533,153.93005291569352 32.86988847584871,154.50538810627768 32.13167046409217,155.40946961272857 31.876963664704817,155.74370065388212 31.738817604040378,155.90807555555875 31.669744573693606,156.0067001736861 31.596354478955618,156.0779289139573 31.402086581132608,156.34092624540062 30.715673342128866,157.201134656887 30.681136826970032,157.2285295265683 30.633649118593894,157.23400849825703 29.81340688333148,157.0860760002506 29.75728504617291,157.0532020378123 29.714114402217092,156.94910097928732 29.696846144623123,156.92718493260327 29.653675500667305,156.90526887394662 29.234920254239114,156.92170591907052 28.92840868209896,156.9162269047738 28.47079985610617,156.83952062624667 27.689411200379254,156.68062858333724 27.279290082748048,156.61487996793585 27.257704760762863,156.61487996793585 27.210217052386724,156.66967048824154 27.0634368629253,156.6641914395841 27.02458328337525,156.69158667542797 27.00731502578128,156.71350285068547 26.946876124246046,156.8943108401363 26.748291162017267,157.3764614999527 26.58855977935309,157.73259179411616 26.57129152175912,157.79285968535987 26.36838949515368,158.15994397954273 26.234560498865903,158.3626607341539 26.031658472231356,158.71878228546484 25.83307351001713,158.97080486030245 25.625854418991366,159.34335707484206 25.56541551744158,159.42005857248296 25.513610744688776,159.45293059807955 25.444537714356557,159.4638879339509 25.392732941603754,159.4584092663863 25.068953111884184,159.381707841967 24.727905024585198,159.33787839082652 24.58112483510922,159.3323997060761 24.412759323677165,159.35979312237396 24.1537354598986,159.34883575809 23.56229763761803,159.28857020114083 23.45005396330089,159.26117673628323 22.975176879714127,159.35979312237396 22.91473797817889,159.381707841967 22.87588439862884,159.3543144406067 22.780908981905668,159.2228258540854 22.629811728023924,159.15160269002445 22.513250989330118,159.11325170323107 22.362153735462925,159.08037939970382 22.180837030813564,159.06394323783388 22.008154454961186,159.05298579286318 21.844106007920345,159.0584645157105 21.680057560864952,159.05298579286318 21.507374985012575,159.0201134400013 21.464204341056757,159.03107089394325 21.34764360236295,159.02559216735972 21.21813167045184,159.0475070692628 20.898668905138038,159.0475070692628 20.441060079145245,159.0475070692628 20.000719510717317,159.03654961980283 19.73306151817087,159.0201134400013 19.491305911986274,159.02559216735972 19.21501379061374,159.01463471191892 18.999160570820095,159.0201134400013 18.757404964635498,159.03654961980283 18.40340568413376,159.03107089394325 18.239357237078366,159.04202834490206 18.114162369587575,159.0584645157105 17.70404125195637,159.03654961980283 17.6738218011742,159.02559216735972 17.652236479189014,158.98724106026566 17.596114642059547,158.74617612017755 17.539992804886424,158.57085525516595 17.514090418510023,158.44484291082335 17.427749130598386,158.1106343440115 17.362993164657382,157.91339519664325 17.164408202428604,157.12442892241597 17.14282288044342,157.0860760002506 17.11692049408157,157.07511801575674 17.08238397889363,157.0367650465123 15.670703921336099,157.0258070485761 15.48507015229552,157.0367650465123 15.264899868081557,157.0367650465123 15.144022064996534,157.0258070485761 14.522364791948348,157.03128604792437 14.3065115721256,157.02032804847477 14.220170284213964,157.0367650465123 14.056121837158571,157.02032804847477 14.034536515173386,157.0367650465123 14.0,157.09155499136614" stroke="#4dd2ff" stroke-linecap="round" stroke-linejoin="round" stroke-width="0.5"><title>2024-07-26 17.8km</title><desc>11984363624</desc></polyline><polyline fill="none" points="114.0,166.2355834455302 114.36534226901131,166.2355834455302 114.86165629484458,166.19184461636178 115.94389660123852,166.1656013045358 116.5160363810428,166.13061020542227 117.6534226902586,166.1043668685379 117.8808999521134,166.08687130465842 118.57022498801234,166.09561908718752 119.30780277645681,166.06062794991158 120.60373384394916,166.03438458438904 121.01732886547688,166.00814120816358 121.46539013879374,165.93815881905903 123.46443274294143,165.8856719771211 123.76773575873813,165.8681763535933 124.12618477741489,165.8681763535933 125.33939684057259,165.83318509223318 125.7185256103403,165.85068072529975 126.26998563905363,165.82443727392092 126.83523216849426,165.74570685531944 127.49698420293862,165.67572417992778 128.11048348492477,165.56200216954312 129.21340354235144,165.39579271478578 130.22671134510892,165.2033391239529 131.026328386768,165.09836419462226 131.38477740541566,165.0808683564028 132.0258496888273,165.01088495565637 132.26711345138028,165.02838081303344 132.95643848727923,165.0021370252216 133.90081378648756,165.01088495565637 134.15586404976784,165.02838081303344 134.71421732887393,165.08961627613462 135.3483963618928,165.11586002812692 137.00966969839646,165.2383307288619 137.79550023932825,165.28207020816626 138.16084250833956,165.31706177014712 138.3814265198307,165.36080119577673 138.96735280036228,165.41328846717806 139.456773575861,165.49201929372794 139.84279559596325,165.5794978765698 140.18056486354908,165.66697634012962 140.35289612255292,165.67572417992778 140.47697462898213,165.65822849914548 140.60105313544045,165.61448927631864 141.0491144087864,165.30831388145452 141.16629966491018,165.1770954077001 141.3662039252813,164.8184302100126 141.56610818571062,164.52974700891355 141.62125418856158,164.45976300692564 141.6832934418053,164.4072749553161 141.80047869792907,164.35478686080023 141.92455720438738,164.31104674921517 142.0486357108457,164.30229872330528 142.22096696984954,164.31104674921517 142.39329822879517,164.36353487952874 142.62766874101362,164.48600701662508 142.86893250359572,164.65221882865444 143.11708951648325,164.73095058929903 144.35787458112463,164.6872107342133 144.778362853016,164.65221882865444 145.57108664428233,164.61722690403258 145.9433221636864,164.58223496028222 146.10186692193383,164.59098294801515 146.26041168021038,164.64347084926703 146.34313068451593,164.7047066798259 146.474102441367,164.8534220249203 146.52924844421796,164.97589322669955 146.6119674485235,165.05462459008413 146.71536620391998,165.08961627613462 146.7636189564364,165.08961627613462 146.79119195786188,165.0196328849488 146.80497845858918,164.94090147861425 146.90837721395656,164.10984185172128 147.04624222114217,163.3050159506529 147.7631402584957,159.7181690399375 147.87343226422672,159.11450923095254 148.03197702247417,158.30962064750202 148.09401627571788,158.04715479506558 148.16294877929613,157.64470506852376 148.46625179509283,156.13112153155816 148.5696505504893,155.5449264038034 148.62479655336938,155.37869098944793 148.6592628051585,155.3436940051688 148.71440880803857,155.31744625447027 148.7213020583731,155.2911984929815 148.72819530873676,155.18620733970602 148.71440880803857,154.93247800968675 148.77644806125318,154.56500616575795 149.45198659645393,151.0826684539934 149.92072762086173,148.80767234688392 149.95519387265085,148.55391777755722 150.01033987553092,148.24766092550271 150.1275251316256,147.48638755608408 150.1895643848402,147.29388021481282 150.24471038772026,147.21512704496854 150.28606988990214,147.18887596687273 150.36189564384404,147.17137524216378 150.6583054092771,147.18887596687273 152.35404499759898,147.1101226680621 152.86414552415954,147.1101226680621 153.56725706075667,147.07512117087026 153.9946385830408,147.07512117087026 154.4978458592377,147.04011965457175 155.09755864049657,147.0313692725249 155.48358066059882,146.96136617309094 155.61455241739168,146.9526157802611 156.35213020580704,146.92636459466303 156.64164672090556,146.93511499106535 158.26156055528554,146.88261259481806 159.2541886069812,146.85636138057453 160.29506941119325,146.85636138057453 161.17051220679423,146.8038589198477 162.26653901385725,146.7688572554689 162.5629487792903,146.7688572554689 162.94897079942166,146.82135974485573 163.34188606988755,146.8038589198477 163.50732407846954,146.81260933294107 163.87266634750995,146.81260933294107 165.0651986596058,146.7688572554689 166.0922929631197,146.7513564161054 168.1258018190565,146.69010344077105 168.66347534704255,146.65510171429196 170.55911919576465,146.63760084388923 172.21349928193376,146.61134952934663 172.82010531352716,146.5675973145335 173.50253709909157,146.55884686799982 173.9643848731066,146.52384506987437 174.21254188605235,146.53259552118107 174.8398276687367,146.5150946173453 176.20469123977819,146.45384141630348 177.1628530397138,146.4713423368521 177.87975107703824,146.4625918771635 178.14169459068216,146.48009279534017 178.21062709426042,146.4713423368521 178.26577309714048,146.41883956085076 178.27266634750413,146.34883579264715 178.24509334607865,146.13882402944 178.2382000957441,146.02506737047224 178.2519865964423,145.5350363783873 178.23130684535136,144.30994251244556 178.21752034465317,144.04741935271886 178.21752034465317,143.6011275142082 178.19684059356223,142.41100075643044 178.13480134031852,141.19459837273462 178.14169459068216,140.84455024478666 178.0865485878312,139.58436115785298 178.07965533746756,138.98051177464367 178.05208233604208,138.6217000267643 178.05897558637662,138.4116629497439 178.0865485878312,138.33289886845887 178.13480134031852,138.2803894271783 178.21062709426042,138.2541346903963 178.47257060793345,138.26288627050963 179.7685016754258,138.22787994286045 180.47850646238658,138.19287359609734 180.85074198179063,138.20162518458528 181.20229775010375,138.19287359609734 182.00880804209737,138.18412200641615 182.12599329822115,138.1666188234667 182.1811393010721,138.13161244324147 182.25007180465036,138.0703512318505 182.29143130683224,138.0090899619172 182.6636668262072,137.93907701030548 182.68434657726903,137.9215737604536 182.69123982763267,137.869063982238 182.67056007657084,137.18643295104266 182.62230732405442,136.73134155836306 182.59473432262894,135.68111832083378 182.61541407369077,135.37479996862385 182.60162757299258,134.6483820244539 182.62920057438896,134.52585288509727 182.67745332693448,134.4558361288946 182.74638583051274,134.40332351153484 182.8773575873638,134.36831507604802 183.6494016275683,134.36831507604802 184.23532790807076,134.33330662146182 185.87592149351258,134.30705026798387 185.95174724748358,134.28079390374478 185.99310674960725,134.22828114296863 186.0,134.0969990528538 185.97242699854542,133.93946018977294 185.93106749639264,133.86944279302406 185.8621349928144,133.83443406594597 185.64844423168688,133.80817750809365 184.29736716131447,133.86069061303715 184.26290090952534,133.8519384318788 184.21464815697982,133.81692969525466 184.20775490664528,133.76441655447707" stroke="#4dd2ff" stroke-linecap="round" stroke-linejoin="round" stroke-width="0.5"><title>2024-07-26 13.0km</title><desc>11982980752</desc></polyline><polyline fill="none" points="85.31192354703671,244.19822961993486 85.35992888096371,244.25915453058406 85.41593510389794,244.25915453058406 85.56795199465705,244.2286920814804 85.76797421934316,244.2083837751561 85.91199022112414,244.15761298513826 85.95999555508024,244.09668799139035 85.96799644402927,244.06622547583538 85.95999555508024,243.89360431883688 86.0,243.74129120088764 85.99199911099277,243.1726528071449 85.95999555508024,242.9898752581721 85.951994666073,242.7157080933248 85.94399377709487,242.45169431359682 85.95999555508024,242.21814288184396 85.94399377709487,242.02520853775786 85.951994666073,241.4971751443736 85.93599288811674,241.21284791971266 85.95999555508024,241.06052931692102 85.94399377709487,240.95898340860003 85.94399377709487,240.70511803176487 85.9759973330365,240.46140645550622 85.87998666515341,240.4207877818917 85.75997333036503,240.410633110012 85.23991554614622,240.4410971214602 84.83187020782498,240.4410971214602 83.74374930548947,240.4817157840007 83.34370485605905,240.4817157840007 83.14368263137294,240.46140645550622 82.83964884985471,240.50202510695817 82.15157239694963,240.5223344243568 81.91154572728556,240.50202510695817 81.63951550170896,240.53248908100068 78.03911545727169,240.6543448524826 77.57506389595801,240.6441902124934 77.25502833645442,240.66449949112575 76.42293588176835,240.68480876417743 75.55883987111156,240.73558192268683 75.23880431157886,240.72542729374254 74.72674741636729,240.7457365502123 73.78264251581277,240.7457365502123 73.39859984442592,240.73558192268683 73.01455717300996,240.7660458011742 71.96644071559422,240.79650966713234 71.57439715522924,240.83712813576858 71.15835092787165,240.84728274944064 70.76630736747757,240.83712813576858 69.89421046781354,240.86759197267384 69.58217579731718,240.85743736173754 67.82198022000375,240.88790119032637 67.68596510723,240.84728274944064 67.46994110452943,240.73558192268683 67.29392154680681,240.60357163861045 66.51783531502588,239.97398090939532 66.18979886651505,239.65918354795576 66.06978553172667,239.57794530312822 65.97377486387268,239.49670696963585 65.7817535281647,239.37484930313076 65.58173130344949,239.18190758989658 65.22169129902613,238.8975715220513 65.06167351925978,238.7858677696786 64.50161129012122,238.3085862122607 64.10956772975624,238.01409180978953 63.94954994998989,237.8211465695349 63.493499277712544,237.42509950950625 62.92543615959585,237.00874007181847 62.733414823858766,236.8970334849946 62.461384598282166,236.65330944093876 62.053339259902714,236.36896371425246 61.80531170128961,236.16585895874596 61.54128236469114,236.00337475531705 61.373263695975766,235.8510454924981 61.21324591620942,235.64793932378961 61.037226358486805,235.5260753565235 60.941215690632816,235.43467725015944 60.79719968885183,235.25188070076547 60.773197021888336,235.19094841783226 60.765196132910205,235.109705296396 60.757195243932074,233.55591353299678 60.677186354005244,233.26140032635885 60.66118457604898,233.037975737112 60.69318813201971,232.82470618535444 60.68518724301248,232.29660752230848 60.70118902096874,231.92084273046203 60.677186354005244,231.22008710489172 60.66118457604898,231.0982158878178 60.62118013112922,230.22479965880484 60.64518279809272,229.98105376557214 60.64518279809272,229.70683868145716 60.637181909085484,229.08731199381873 60.66118457604898,228.89434361157328 60.64518279809272,228.7419997984689 60.66918546502711,228.5084053460523 60.45316146235564,228.5084053460523 60.093121457932284,228.52871793621307 59.837093010311946,228.49824904885463 59.621069007669576,228.49824904885463 58.76497388596181,228.5084053460523 58.308923213684466,228.53887422924163 56.42071341260453,228.53887422924163 55.26858539838577,228.48809275031817 55.0045560617873,228.43731123673933 54.67651961327647,228.36621705951256 54.47649738859036,228.29512281435746 54.38048672073637,228.22402850129583 54.324480497831246,228.16309046464448 54.22046894097002,228.14277777466486 54.1164573841379,228.08183967145305 53.436381820210954,227.47245589504746 53.02033559282427,227.00525828727405 52.58828758751042,226.6294667787297 52.460273363714805,226.54821431115124 52.228247583057964,226.46696175489342 51.77219691078062,226.2028903343089 51.59617735302891,226.15210726136866 51.40415601732093,226.14195064262458 50.99611067897058,226.15210726136866 50.25202800310217,226.0911675281386 49.80397821980296,226.13179402251262 49.26791865765699,226.12163740098185 49.13990443380317,226.14195064262458 48.659851094533224,226.17242049468769 47.667740860109916,226.1622638787303 47.11567951994948,226.13179402251262 46.85165018335101,226.10132415379485 46.41160128902993,226.0911675281386 46.02755861761398,226.06069764276617 45.843538170913234,226.02007110960403 45.5635070563294,226.0403843789536 45.05145016111783,226.03022774497367 44.859428825438954,225.99975783468835 44.62740304478211,226.05054101156566 44.53139237689902,226.06069764276617 44.07534170462168,226.05054101156566 43.651294588285964,226.06069764276617 43.46727414155612,226.05054101156566 43.379264362709364,226.02007110960403 43.23524836092838,226.0403843789536 42.507167463045334,226.0810109010854 42.05111679073889,226.05054101156566 41.203022558038356,226.07085427262064 40.826980775629636,226.06069764276617 40.658962106885156,226.03022774497367 40.63495943992166,225.97944455420657 40.66696299589239,225.77631144469342 40.67496388487052,225.62396124866063 40.67496388487052,225.37004356220132 40.64296032892889,224.89267596615537 40.64296032892889,224.1512266068894 40.658962106885156,223.39961286704056 40.61095677295816,222.80034782434814 40.64296032892889,222.3128066022473 40.62695855094353,222.01824889927957 40.63495943992166,221.72369003030326 40.62695855094353,221.4697590350479 40.65096121787792,221.09393957172142 40.65096121787792,220.4641837833624 40.62695855094353,220.01725708723097 40.63495943992166,219.7633202685247 40.60295588398003,219.5906427367736 40.56295143903117,219.5601701895721 40.48294254919165,219.55001267109037 40.30692299143993,219.5703277066932 40.30692299143993,219.55001267109037 40.25891765754204,219.5195401072342 40.19491054560058,219.43827987597615 40.08289809976122,219.39764972709236 39.97088565395097,219.37733464429766 39.54683853761526,219.39764972709236 38.546727414184716,219.3570195560169 37.79464384933817,219.37733464429766 37.37059673294425,219.33670446214091 36.59451050113421,219.2960742577634 36.55450605621445,219.25544403123058 36.53850427825819,219.184341081389 36.52250250024372,218.75772195540048 36.466496277367696,218.19905035345437 36.49049894433119,218.0365269179456 36.47449716634583,217.72163675149204 36.49049894433119,217.21374657805427 36.48249805532396,217.0816945650804 36.466496277367696,217.02074740312673 36.42649183241883,216.94964231774793 36.370485609484604,216.8988529294511 36.20246694076923,216.80743194313254 36.18646516278386,216.74648455651186 36.18646516278386,216.6753792090385 36.20246694076923,216.66522129672376 36.162462495820364,216.79727404882578 36.18646516278386,216.8175898360496 36.25047227466712,216.84806350648432 36.51450161129469,216.90901080989715 36.62651405710494,216.90901080989715 36.78653183687129,216.86837927984016 37.282586954097496,216.8277477275842 37.34659406600986,216.7769582560868 37.41060117792222,216.66522129672376 37.41060117792222,216.76680035761092 37.386598510929616,216.86837927984016 37.458606511791004,216.8988529294511 37.51461273475434,216.8988529294511 37.546616290695965,216.91916868893168 37.610623402608326,217.00043167136755 37.65862873653532,217.02074740312673 37.62662518056459,216.95980019125273 37.578619846637594,216.94964231774793 38.314701633527875,216.0760600087233 38.27469718854991,216.10653398284921 38.17868652072502,216.0963759928709 38.06667407491477,216.0659020145613 37.98666518498794,216.0760600087233 37.922658073104685,216.10653398284921 37.914657184126554,216.14716592895275 37.89065451716306,216.1573239120262 37.84264918323606,216.1370079444896 37.66662962548435,216.0151120229857 37.5066118457471,215.97448000479199 37.266585176141234,216.0557440190314 37.17857539723627,216.02527002409624 37.114568285353016,216.03542802378797 37.010556728520896,216.10653398284921 36.882542504696175,216.12684995867312 36.81853539281292,216.18779785287188 36.882542504696175,216.1573239120262 37.042560284462525,216.4315889303689 37.106567396374885,216.492536574915 37.17057450825814,216.492536574915 37.258584287134,216.53316831022676 37.34659406600986,216.4315889303689 37.30658962106099,216.64490546789602 37.338593177031726,216.69569502954255 37.24258250917774,216.72616874989035 37.106567396374885,216.73632665391779 37.042560284462525,216.76680035761092 37.02655850647716,216.76680035761092 36.80253361482755,216.08621800150286 36.914546060637804,216.0557440190314 37.63462606954272,216.02527002409624 37.69863318145508,216.03542802378797 37.770641182374675,216.0760600087233 37.89065451716306,216.08621800150286 38.05867318590754,216.0557440190314 38.26669629957178,216.04558602210454 38.28269807752804,216.08621800150286 38.27469718854991,216.17763987398212 38.30670074452064,216.21827178123203 38.28269807752804,216.19795583037194 38.27469718854991,216.17763987398212 38.314701633527875,216.04558602210454 38.30670074452064,215.94400597655476 38.322702522506006,215.89321590178588 38.37870874541113,215.8322677662727 38.92276919656433,215.74084546942322 39.15479497722117,215.751003507954 40.042893654841464,215.82210973884503 40.10690076672472,215.8322677662727 40.154906100651715,215.88305788267462 40.21891321253497,216.34016736988997 40.2989221024618,217.14264167712827 40.29092121345457,217.406745252345 40.3229247694253,218.3615734339255 40.30692299143993,219.27575914729096 40.26691854649107,219.33670446214091 40.20291143457871,219.37733464429766 40.12290254471009,219.3874921864117 39.778864318242995,219.3874921864117 39.242804756067926,219.34686200977012 38.33070341148414,219.30623181093688 37.69863318145508,219.31638936272793 37.61862429158646,219.30623181093688 37.538615401717834,219.27575914729096 37.41060117792222,219.30623181093688 36.82653628179105,219.27575914729096 36.47449716634583,219.28591670321475 36.18646516278386,219.31638936272793 35.93843760417076,219.2960742577634 35.146349594404455,219.28591670321475 34.79431047893013,219.23512890961138 34.77830870097387,219.31638936272793 34.810312256915495,219.6617452983919 34.82631403490086,220.0883592411701 34.818313145893626,220.1289890129192 34.77830870097387,220.18993362893525 34.57028558728052,220.3829245837187 34.138237581937574,220.7079608497952 33.6261806866969,221.25645632931264 33.47416379596689,221.38850093352085 32.346038448711624,222.20107795559306 31.937993110332172,222.46516357726796 31.545949549938086,222.6683057254195 31.049894432682777,223.135530561638 30.745860651193652,223.37929887684732 30.393821535719326,223.68400814790948 30.289809978858102,223.8160484445616 30.161795755062485,224.0598145305339 29.89776641849312,224.62859895918518 29.70574508275604,224.9637734617645 29.585731747967657,225.28878971953964 29.473719302128302,225.48176745098317 29.273697077442193,225.91850467958284 29.169685520610074,226.0911675281386 29.089676630712347,226.12163740098185 28.065562840289203,226.12163740098185 27.865540615603095,226.10132415379485 27.729525502829347,226.05054101156566 27.57750861204113,226.02007110960403 27.24147127455217,226.02007110960403 27.04144904986606,226.0403843789536 26.449383264785865,226.0403843789536 25.945327258552425,226.00991447282286 25.89732192462543,226.02007110960403 25.85731747970567,226.11148077807593 25.84131570174941,226.243516767674 25.8893210356473,226.35523934513185 25.921324591588927,226.5279011804014 25.95332814755966,226.6294667787297 25.969329925515922,226.75134531373624 25.945327258552425,227.11697972116963 25.96132903653779,227.26932686073997 25.945327258552425,227.51308163538488 25.969329925515922,228.08183967145305 25.95332814755966,228.94512481330457 25.969329925515922,229.41231024351146 25.96132903653779,230.49901283453073 25.937326369574293,231.00681234405056 25.969329925515922,231.3521140315279 25.96132903653779,231.55523192290275 25.929325480596162,231.65679066068697 25.873319257691037,231.7583492599224 25.70530058897566,232.00208933267277 25.43327036339906,232.3067633011524 25.29725525059621,232.40832101351407 25.20124458274222,232.4997228361317 25.025225024990505,232.72314904115046 24.65718413158902,233.28171161943465 24.113123680406716,234.04338110736717 23.481053450348554,235.00815126986708 23.04900544503471,235.61747335065593 22.23291476830491,236.82594738791522 22.104900544480188,236.97827465568116 21.792865873954725,237.49618503440433 21.600844538304955,237.75006135494914 21.39282142461161,238.07502178174036 21.14479386599851,238.38982584241603 20.48872096897685,239.34438485535065 20.45671741303522,239.36469448859862 20.34470496722497,239.3545396726622 20.07267474164837,239.38500411628775 19.824647183035268,239.38500411628775 19.216579619940603,239.38500411628775 18.87254139347351,239.36469448859862 18.04844982776558,239.3545396726622 16.680297810875345,239.38500411628775 15.984220468933927,239.39515892806958 15.56817424154724,239.37484930313076 14.98410934547428,239.39515892806958 14.584064896102063,239.36469448859862 14.296032892540097,239.3545396726622 14.200022224657005,239.39515892806958 14.112012445810251,239.47639737240388 14.032003555941628,239.57794530312822 14.008000888978131,239.6490287722263 14.008000888978131,240.46140645550622 14.0,241.01991097021528 14.008000888978131,241.04022014636575 14.048005333926994,241.03006555897446 14.080008889868623,241.14176594386663 14.128014223795617,241.22300248214015 14.15201689073001,241.24331160289148 14.120013334817486,241.19253879068128 14.104011556803016,241.18238422409195 14.080008889868623,241.22300248214015 14.072008000890492,241.2940843804172 14.088009778846754,241.5174841903281 14.112012445810251,241.60887482839462 14.256028447620338,241.6190293368345" stroke="#4dd2ff" stroke-linecap="round" stroke-linejoin="round" stroke-width="0.5"><title>2024-07-11 14.3km</title><desc>11866200789</desc></polyline></svg>