<?xml version="1.0" encoding="utf-8" ?>
<svg baseProfile="full" height="300mm" version="1.1" viewBox="0,0,200,300" width="200mm" xmlns="http://www.w3.org/2000/svg" xmlns:ev="http://www.w3.org/2001/xml-events" xmlns:xlink="http://www.w3.org/1999/xlink"><defs /><rect fill="#222222" height="300" width="200" x="0" y="0" /><text fill="#FFFFFF" style="font-size:12px; font-family:Arial; font-weight:bold;" x="10" y="20">T3</text><text fill="#FFFFFF" style="font-size:4px; font-family:Arial" x="10" y="280">ATHLETE</text><text fill="#FFFFFF" style="font-size:9px; font-family:Arial" x="10" y="290">T4</text><text fill="#FFFFFF" style="font-size:4px; font-family:Arial" x="120" y="280">STATISTICS</text><text fill="#FFFFFF" style="font-size:3px; font-family:Arial" x="120" y="285">Number: 6</text><text fill="#FFFFFF" style="font-size:3px; font-family:Arial" x="120" y="290">Weekly: 6.0</text><text fill="#FFFFFF" style="font-size:3px; font-family:Arial" x="141" y="285">Total: 25.1 km</text><text fill="#FFFFFF" style="font-size:3px; font-family:Arial" x="141" y="290">Avg: 4.2 km</text><text fill="#FFFFFF" style="font-size:3px; font-family:Arial" x="167" y="285">Min: 2.0 km</text><text fill="#FFFFFF" style="font-size:3px; font-family:Arial" x="167" y="290">Max: 7.0 km</text><polyline fill="none" points="36.02356736920774,92.82361436774954 38.85936529561877,98.00005611823872 40.47982125170529,100.35298224631697 42.91050518862903,102.23532227380201 47.771873058751225,105.05883086007088 54.25369688682258,106.0 60.73552071675658,105.05883086007088 64.78666060976684,102.70590715995058 68.02757252193987,99.88239711755887 71.67359842732549,93.29420022340491 72.48382640630007,85.76482069212943 63.57131864130497,47.17655554506928 61.54574869386852,42.94123826967552 58.30483677983284,39.17650850350037 54.65881087630987,36.35295913834125 49.79744300618768,34.47059192555025 43.72073316574097,34.47059192555025 40.47982125170529,34.941183800809085 34.40311141125858,37.764734040014446 29.541743541136384,43.88242022693157 27.516173593699932,49.05891751497984 27.516173593699932,57.05894722556695 36.83379534818232,94.23537179129198 39.66959327273071,99.41181194083765 44.12584715522826,103.17649199673906 50.20255699381232,105.52941545471549 56.27926683425903,106.0 61.95086268521845,104.58824621606618 66.00200257636607,101.76473733969033 69.64802847988904,97.52947074733675 72.07871241495013,91.88244250742719 72.48382640630007,89.05892576556653 72.48382640630007,83.88247386924922 63.16620465181768,45.76478355657309 59.92529273964465,40.58828252926469 55.06392486579716,36.823550819419324 49.39232901670039,34.47059192555025 44.93607513420284,34.0 38.45425130426884,35.88236740697175 32.78265545517206,39.17650850350037 29.136629551649094,43.88242022693157 27.111059606075287,50.470688484143466 27.516173593699932,57.529536770656705 36.02356736920774,92.82361436774954 38.45425130426884,97.52947074733675 42.91050518862903,102.23532227380201 48.9872150272131,105.52941545471549 55.06392486579716,106.0 61.14063470438123,104.58824621606618 67.2173445429653,100.82356732571498 70.45825645886362,96.58829985931516 72.48382640630007,91.41185650555417 72.07871241495013,83.41188704082742 63.16620465181768,46.235374266747385 60.73552071675658,42.00005611917004 57.89972279034555,38.70591706270352 52.22812693938613,35.41177562857047 49.39232901670039,34.47059192555025 42.50539119914174,34.47059192555025 38.45425130426884,35.41177562857047 34.80822540074587,37.764734040014446 30.35197151824832,42.00005611917004 29.136629551649094,44.82360198860988 27.111059606075287,50.00009820936248 27.921287583187222,58.000126268249005 36.83379534818232,94.23537179129198 40.47982125170529,100.35298224631697 44.53096114471555,103.64707678603008 50.20255699381232,105.52941545471549 56.684380823746324,106.0 61.14063470438123,104.58824621606618 66.81223055534065,100.82356732571498 70.45825645886362,96.58829985931516 72.48382640630007,90.94127045525238 72.48382640630007,85.76482069212943 72.07871241495013,82.00012626918033 63.57131864130497,48.58832709444687 61.95086268521845,43.411829272750765 58.709950771182775,39.64709989307448 55.06392486579716,36.823550819419324 49.79744300618768,34.47059192555025 44.53096114471555,34.0 38.85936529561877,35.41177562857047 32.78265545517206,39.64709989307448 29.136629551649094,44.353011132217944 27.111059606075287,50.00009820936248 27.516173593699932,57.05894722556695 36.02356736920774,92.82361436774954 38.04913731664419,96.58829985931516 41.695163218304515,101.29415235668421 46.556531090289354,104.58824621606618 51.417898962274194,106.0 57.08949481137097,106.0 62.3559766728431,104.11766152549535 66.81223055534065,100.82356732571498 70.8633704483509,96.11771434359252 72.48382640630007,90.47068435559049 72.48382640630007,83.88247386924922 63.97643263079226,49.529507886152714 61.54574869386852,43.411829272750765 59.52017874829471,40.58828252926469 54.65881087630987,36.35295913834125 49.79744300618768,34.47059192555025 42.91050518862903,34.47059192555025 37.6440233271569,35.88236740697175 31.972427478060126,40.11769123515114 28.326401572674513,45.76478355657309 27.111059606075287,52.823639126028866 27.516173593699932,57.05894722556695 36.83379534818232,94.23537179129198 40.47982125170529,99.88239711755887 44.93607513420284,103.64707678603008 50.20255699381232,105.52941545471549 55.87415284477174,106.0 63.97643263079226,103.17649199673906 68.43268651142716,99.41181194083765 71.67359842732549,93.76478603109717 72.48382640630007,88.5883394726552 72.07871241495013,82.47071323962882 63.57131864130497,48.117736626882106 61.95086268521845,43.88242022693157 58.30483677983284,39.17650850350037 55.06392486579716,36.823550819419324 50.20255699381232,34.941183800809085 44.12584715522826,34.47059192555025 37.6440233271569,35.88236740697175 31.972427478060126,40.11769123515114 28.326401572674513,45.76478355657309 27.111059606075287,51.8824590141885 27.516173593699932,57.05894722556695 37.23890933766961,95.17654316313565 40.47982125170529,99.88239711755887 44.12584715522826,103.17649199673906 49.79744300618768,105.52941545471549 55.46903885528445,106.0 61.14063470438123,104.58824621606618 66.81223055534065,101.29415235668421 70.05314246937633,97.05888532847166 72.48382640630007,91.41185650555417 72.48382640630007,84.35306064831093 62.3559766728431,44.82360198860988 57.89972279034555,38.70591706270352 53.848582899197936,35.88236740697175 50.20255699381232,34.941183800809085 44.12584715522826,34.47059192555025 38.85936529561877,35.41177562857047 33.18776944465935,39.17650850350037 29.541743541136384,43.411829272750765 27.111059606075287,50.94127870956436 27.921287583187222,58.47071571741253 36.42868135869503,93.76478603109717 38.85936529561877,98.00005611823872 44.53096114471555,103.64707678603008 51.0127849727869,106.0 56.684380823746324,106.0 61.95086268521845,104.11766152549535 67.2173445429653,100.82356732571498 70.45825645886362,96.58829985931516 72.48382640630007,90.47068435559049 72.07871241495013,82.94130016537383 62.76109066233039,44.82360198860988 59.11506475880742,40.11769123515114 55.46903885528445,36.823550819419324 49.79744300618768,34.47059192555025 44.53096114471555,34.47059192555025 37.6440233271569,35.88236740697175 32.78265545517206,39.17650850350037 29.136629551649094,43.88242022693157 27.516173593699932,49.529507886152714 27.516173593699932,57.05894722556695 37.23890933766961,95.17654316313565 40.88493524119258,100.35298224631697 44.93607513420284,103.64707678603008 49.79744300618768,105.52941545471549 56.27926683425903,106.0 61.95086268521845,104.58824621606618 67.2173445429653,100.82356732571498 70.8633704483509,95.64712877757847 72.48382640630007,90.00009820843115 72.07871241495013,83.41188704082742 63.97643263079226,50.00009820936248 62.3559766728431,44.353011132217944 57.89972279034555,38.70591706270352 53.038354920223355,35.88236740697175 46.96164508163929,34.47059192555025 40.88493524119258,34.941183800809085 36.02356736920774,36.823550819419324 31.162199499085546,41.5294649717398 28.326401572674513,45.76478355657309 27.111059606075287,51.411868886090815 27.111059606075287,55.647178295534104 28.326401572674513,60.82366223400459 36.02356736920774,92.35302846133709 38.04913731664419,96.58829985931516 41.695163218304515,101.29415235668421 46.96164508163929,104.58824621606618 51.82301295362413,106.0 58.709950771182775,105.52941545471549 63.57131864130497,103.64707678603008 68.43268651142716,99.41181194083765 71.2684844378382,94.70595750166103 72.48382640630007,89.05892576556653 72.07871241495013,82.94130016537383 63.57131864130497,48.117736626882106 61.54574869386852,42.94123826967552 57.89972279034555,38.70591706270352 52.633240930736065,35.41177562857047 46.556531090289354,34.0 40.88493524119258,34.941183800809085 34.80822540074587,37.764734040014446 30.757085509598255,41.5294649717398 28.326401572674513,46.235374266747385 27.111059606075287,52.35304909478873 27.516173593699932,56.58835763158277 35.618453381583095,90.94127045525238 38.04913731664419,96.58829985931516 41.695163218304515,101.29415235668421 46.96164508163929,104.58824621606618 52.633240930736065,106.0 59.11506475880742,105.52941545471549 64.38154662027955,103.17649199673906 68.43268651142716,99.41181194083765 71.2684844378382,94.70595750166103 72.48382640630007,88.5883394726552 72.07871241495013,83.41188704082742 63.57131864130497,48.117736626882106 61.54574869386852,42.94123826967552 57.494608802720904,38.70591706270352 53.038354920223355,35.88236740697175 46.96164508163929,34.47059192555025 40.88493524119258,34.941183800809085 35.618453381583095,37.29414245439693 30.757085509598255,41.5294649717398 27.921287583187222,47.17655554506928 27.111059606075287,52.823639126028866 27.516173593699932,56.58835763158277 35.618453381583095,89.5295120109804 38.04913731664419,97.05888532847166 42.10027720965445,101.76473733969033 47.366759069263935,104.58824621606618 53.443468907848,106.0 59.52017874829471,105.52941545471549 64.78666060976684,102.70590715995058 68.8378005027771,98.941226715222 71.67359842732549,93.29420022340491 72.88894039392471,87.64716674154624 72.07871241495013,83.41188704082742 63.57131864130497,48.117736626882106 61.14063470438123,42.47064721910283 57.494608802720904,38.2353255758062 51.82301295362413,35.41177562857047 46.15141710266471,34.0 40.88493524119258,34.941183800809085 36.02356736920774,36.823550819419324 31.162199499085546,41.05887377541512 28.326401572674513,46.235374266747385 27.111059606075287,51.411868886090815 27.111059606075287,55.647178295534104 28.731515562161803,62.706018573604524 36.02356736920774,91.88244250742719 38.04913731664419,96.58829985931516 42.10027720965445,101.76473733969033 47.366759069263935,104.58824621606618 53.038354920223355,106.0 59.52017874829471,105.05883086007088 64.38154662027955,103.17649199673906 68.8378005027771,98.941226715222 71.67359842732549,93.29420022340491 72.88894039392471,88.11775313131511 71.2684844378382,79.6471906742081 63.57131864130497,48.117736626882106 61.95086268521845,43.88242022693157 57.89972279034555,38.70591706270352 54.25369688682258,36.35295913834125 48.58210103586316,34.47059192555025 42.50539119914174,34.47059192555025 38.45425130426884,35.41177562857047 33.59288343414664,38.70591706270352 29.541743541136384,43.88242022693157 27.111059606075287,50.00009820936248 27.516173593699932,57.529536770656705 37.23890933766961,95.64712877757847 40.074707264080644,99.41181194083765 45.34118912182748,103.64707678603008 49.39232901670039,105.52941545471549 56.27926683425903,106.0 61.14063470438123,104.58824621606618 66.40711656585336,101.29415235668421 70.05314246937633,97.05888532847166 72.48382640630007,90.00009820843115 72.07871241495013,83.41188704082742 63.57131864130497,48.117736626882106 61.54574869386852,42.94123826967552 57.494608802720904,38.70591706270352 53.038354920223355,35.88236740697175 48.9872150272131,34.47059192555025 43.315619176253676,34.47059192555025 37.6440233271569,35.88236740697175 31.972427478060126,40.11769123515114 28.326401572674513,46.235374266747385 27.111059606075287,50.470688484143466 27.516173593699932,57.529536770656705 36.02356736920774,91.41185650555417 37.6440233271569,96.11771434359252 40.47982125170529,99.88239711755887 45.74630311317742,104.11766152549535 53.038354920223355,106.0 57.89972279034555,105.52941545471549 62.76109066233039,104.11766152549535 67.62245853431523,100.35298224631697 70.8633704483509,96.11771434359252 71.67359842732549,93.29420022340491 72.88894039392471,88.11775313131511 72.07871241495013,82.47071323962882 63.97643263079226,49.529507886152714 61.95086268521845,43.88242022693157 58.709950771182775,39.64709989307448 54.25369688682258,36.35295913834125 49.39232901670039,34.47059192555025 41.695163218304515,34.47059192555025 37.23890933766961,36.35295913834125 31.972427478060126,40.58828252926469 27.921287583187222,46.70596493082121 27.111059606075287,52.823639126028866 27.516173593699932,56.58835763158277 36.02356736920774,92.35302846133709 38.04913731664419,97.05888532847166 41.290049228817225,100.82356732571498 46.96164508163929,104.58824621606618 53.038354920223355,106.0 58.30483677983284,105.52941545471549 62.3559766728431,104.11766152549535 68.02757252193987,99.88239711755887 71.67359842732549,93.29420022340491 72.88894039392471,88.11775313131511 72.48382640630007,83.88247386924922 62.3559766728431,44.82360198860988 58.30483677983284,39.17650850350037 53.848582899197936,35.88236740697175 48.9872150272131,34.47059192555025" stroke="#4dd2ff" stroke-linecap="round" stroke-linejoin="round" stroke-width="0.5"><title>2023-09-10 7.0km</title><desc>9822357996</desc></polyline><polyline fill="none" points="129.26795947179198,45.917315758764744 128.4130299668759,52.86906965775415 136.9623250309378,92.59318504901603 139.5271135494113,98.5517740813084 143.37429632805288,102.52416267246008 148.5038733649999,105.0069038765505 152.35105614177883,106.0 158.3355626873672,105.50345196342096 163.89260447956622,102.52416267246008 168.59471676312387,98.05522527825087 171.15950528346002,91.10353663703427 171.15950528346002,84.64838819624856 162.18274546600878,44.92420723848045 158.76302744075656,39.95866156835109 155.34330941550434,36.979331706184894 150.21373237669468,34.49655541172251 145.08415533974767,34.0 139.09964879602194,35.48966608289629 134.39753651060164,38.46899686707184 130.55035373196006,43.43454407574609 128.84049472026527,47.90353218186647 128.84049472026527,54.3587299012579 136.9623250309378,92.59318504901603 138.24471928924322,96.06902954773977 142.0919020678848,101.03451733430848 145.93908484652638,104.0138075472787 150.64119713194668,105.50345196342096 156.6257036756724,105.50345196342096 163.0376749727875,103.51725930674002 166.88485775142908,100.0414201868698 170.30457577481866,95.0759313753806 171.58697003498673,89.11733804037794 171.15950528346002,85.14493838464841 162.18274546600878,44.92420723848045 158.76302744075656,39.462106719147414 154.0609151571989,35.986221342813224 149.3588028717786,34.49655541172251 142.94683157466352,34.49655541172251 137.81725453585386,35.986221342813224 133.54260700568557,39.462106719147414 130.12288898043334,44.42765290196985 128.4130299668759,50.38630156079307 128.84049472026527,55.84838968375698 136.5348602756858,89.61388776730746 138.67218404263258,97.06212751381099 142.51936681941152,101.53106583189219 145.93908484652638,104.0138075472787 150.64119713194668,105.50345196342096 156.6257036756724,105.50345196342096 162.18274546600878,104.0138075472787 166.45739299803972,100.53796878550202 169.44964626803994,96.56557855661958 171.15950528346002,91.10353663703427 171.15950528346002,84.15183795848861 163.0376749727875,48.4000861607492 161.75528071448207,43.93109851470217 159.19049219414592,39.95866156835109 154.48837991058826,36.48277655104175 148.93133811838925,34.49655541172251 143.37429632805288,34.49655541172251 137.81725453585386,36.48277655104175 133.97007175907493,38.965551817789674 130.12288898043334,43.93109851470217 128.4130299668759,49.88974778819829 128.84049472026527,55.84838968375698 136.9623250309378,93.08973441645503 138.67218404263258,97.06212751381099 141.66443731449544,101.03451733430848 146.3665495980531,104.0138075472787 151.49612663686275,105.50345196342096 156.6257036756724,105.50345196342096 162.18274546600878,104.0138075472787 166.88485775142908,100.0414201868698 169.87711102329195,96.06902954773977 171.58697003498673,90.11043744068593 171.15950528346002,84.64838819624856 163.0376749727875,47.90353218186647 161.32781595923007,43.43454407574609 157.9080979358405,38.965551817789674 153.6334504019469,35.986221342813224 148.93133811838925,34.49655541172251 142.51936681941152,34.49655541172251 136.5348602756858,36.979331706184894 131.83274799212813,41.448325807228684 129.695424227044,45.917315758764744 128.4130299668759,52.86906965775415 136.9623250309378,92.59318504901603 138.67218404263258,97.06212751381099 142.51936681941152,101.53106583189219 148.07640861347318,105.0069038765505 154.48837991058826,106.0 159.61795694567263,105.0069038765505 165.1749987397343,101.53106583189219 168.1672520097345,98.5517740813084 170.73204052820802,93.08973441645503 171.58697003498673,88.12423843238503 163.0376749727875,47.40697815362364 159.61795694567263,40.4552163654007 156.19823892228305,37.47588681103662 150.64119713194668,34.993110773619264 145.51162009313703,34.0 139.09964879602194,35.48966608289629 133.54260700568557,38.965551817789674 130.97781848721206,42.93798958463594 128.84049472026527,47.40697815362364 128.84049472026527,53.365623123943806 136.10739552602172,89.11733804037794 138.67218404263258,96.56557855661958 142.0919020678848,101.03451733430848 148.07640861347318,105.0069038765505 154.48837991058826,106.0 160.04542170092463,105.0069038765505 164.32006923109293,102.52416267246008 168.59471676312387,98.05522527825087 170.73204052820802,94.08283299673349 171.58697003498673,89.11733804037794 171.15950528346002,84.64838819624856 163.0376749727875,48.4000861607492 161.75528071448207,44.42765290196985 159.61795694567263,40.4552163654007 154.91584466211498,36.48277655104175 149.3588028717786,34.49655541172251 144.22922583296895,34.49655541172251 139.09964879602194,35.48966608289629 133.97007175907493,38.965551817789674 130.97781848721206,42.93798958463594 128.84049472026527,48.4000861607492 128.4130299668759,52.37251614034176 137.3897897824645,93.58628373220563 140.38204305432737,99.54487153654918 146.3665495980531,104.0138075472787 154.0609151571989,106.0 160.9003512058407,104.51035573799163 166.88485775142908,100.0414201868698 170.30457577481866,94.08283299673349 171.15950528346002,86.63458864064887 163.0376749727875,47.40697815362364 161.75528071448207,44.42765290196985 159.19049219414592,40.4552163654007 155.34330941550434,36.979331706184894 149.3588028717786,34.49655541172251 143.80176108144224,34.49655541172251 138.24471928924322,35.986221342813224 134.825001263991,38.46899686707184 130.97781848721206,42.44143504276872 128.84049472026527,48.4000861607492 128.84049472026527,53.365623123943806 137.3897897824645,93.58628373220563 139.09964879602194,97.55867642117664 142.0919020678848,101.53106583189219 148.07640861347318,105.0069038765505 154.0609151571989,106.0 160.04542170092463,105.0069038765505 165.1749987397343,102.02761427732185 167.7397872582078,99.0483228340745 170.73204052820802,93.58628373220563 171.58697003498673,88.12423843238503 163.0376749727875,47.40697815362364 160.04542170092463,41.448325807228684 156.6257036756724,37.972441863734275 151.06866188533604,34.993110773619264 144.6566905863583,34.0 139.5271135494113,35.48966608289629 135.2524660155177,37.972441863734275 130.97781848721206,42.44143504276872 128.84049472026527,47.90353218186647 128.4130299668759,53.365623123943806 136.9623250309378,92.09663562942296 139.5271135494113,98.05522527825087 143.37429632805288,102.02761427732185 148.07640861347318,105.0069038765505 154.0609151571989,106.0 160.04542170092463,104.51035573799163 164.7475339844823,102.52416267246008 167.7397872582078,99.0483228340745 170.73204052820802,94.08283299673349 171.58697003498673,88.62078826222569 163.0376749727875,46.91042407322675 159.19049219414592,40.4552163654007 154.91584466211498,36.48277655104175 150.21373237669468,34.49655541172251 145.08415533974767,34.0 139.5271135494113,35.48966608289629 134.825001263991,37.972441863734275 130.97781848721206,42.44143504276872 129.695424227044,45.917315758764744 128.4130299668759,51.875962572172284 136.9623250309378,91.10353663703427 139.5271135494113,98.5517740813084 143.37429632805288,102.02761427732185 148.07640861347318,105.0069038765505 153.6334504019469,106.0 160.9003512058407,104.51035573799163 166.02992824465036,101.03451733430848 168.59471676312387,98.05522527825087 170.73204052820802,93.58628373220563 171.58697003498673,88.12423843238503 163.0376749727875,47.40697815362364 160.472886454314,41.94488045014441 156.19823892228305,37.47588681103662 151.06866188533604,34.993110773619264 145.51162009313703,34.0 140.38204305432737,34.993110773619264 135.2524660155177,37.972441863734275 131.40528323873878,41.94488045014441 128.84049472026527,47.90353218186647 128.84049472026527,53.862176538445055 136.9623250309378,91.60008615953848 139.09964879602194,97.06212751381099 142.94683157466352,101.53106583189219 149.3588028717786,105.0069038765505 154.91584466211498,106.0 160.472886454314,104.51035573799163 163.89260447956622,102.52416267246008 168.1672520097345,98.5517740813084 170.73204052820802,94.08283299673349 171.58697003498673,88.62078826222569 171.15950528346002,85.14493838464841 163.0376749727875,46.91042407322675 159.61795694567263,40.95177111076191 154.91584466211498,36.48277655104175 150.21373237669468,34.49655541172251 143.80176108144224,34.49655541172251 139.5271135494113,35.48966608289629 134.825001263991,38.46899686707184 130.97781848721206,42.44143504276872 129.26795947179198,45.917315758764744 128.4130299668759,51.37940895231441 129.26795947179198,56.34494284214452 136.9623250309378,91.60008615953848 139.5271135494113,98.05522527825087 143.37429632805288,102.52416267246008 149.3588028717786,105.0069038765505 153.6334504019469,106.0 160.04542170092463,105.0069038765505 164.32006923109293,102.52416267246008 168.59471676312387,98.05522527825087 170.73204052820802,94.08283299673349 171.58697003498673,88.12423843238503 163.0376749727875,47.40697815362364 161.32781595923007,43.43454407574609 157.9080979358405,38.965551817789674 154.0609151571989,35.986221342813224 147.64894385822117,34.0 142.0919020678848,34.49655541172251 136.9623250309378,36.48277655104175 132.6876774970442,39.95866156835109 129.26795947179198,46.41386994207278" stroke="#4dd2ff" stroke-linecap="round" stroke-linejoin="round" stroke-width="0.5"><title>2023-09-09 5.0km</title><desc>9814902404</desc></polyline><polyline fill="none" points="28.90877142548561,134.0001072883606 36.22613644041121,172.000083766412 38.808735858649015,178.50004990492016 44.40436792746186,183.50001792423427 51.29129970818758,186.0 59.46953119337559,185.50000368850306 65.49559650197625,181.50003133481368 68.07819591835141,179.0000469381921 69.79992886446416,175.0000692200847 71.09122857265174,170.5000903424807 71.09122857265174,166.50010561058298 63.34343031980097,127.0000791256316 60.76083090342581,121.00004693772644 56.026065304875374,116.50001792563125 52.58259941637516,115.00000732438639 47.417400581762195,114.0 40.96090203896165,114.50000368710607 35.36526996828616,117.50002473313361 31.921804079785943,121.00004693772644 29.339204663410783,126.50007672747597 28.90877142548561,132.00010027270764 36.22613644041121,171.5000860095024 37.94786938652396,177.0000584917143 42.25220174714923,182.0000280602835 47.84783381968737,185.0000073243864 53.443465888500214,186.0 59.039097959175706,185.50000368850306 63.773863557726145,183.00002135476097 67.64776268415153,179.5000439202413 70.23036209866405,174.5000717723742 71.09122857265174,170.0000924328342 70.66079533472657,165.000110484194 63.773863557726145,128.50008601136506 61.19126413948834,122.00005281856284 58.17823148705065,118.50003133527935 53.443465888500214,115.50001090858132 47.84783381968737,114.0 42.25220174714923,114.50000368710607 37.08700291253626,116.50001792563125 32.782670551910996,120.50004392117262 30.20007113367319,124.50006661657244 28.90877142548561,130.00009243376553 28.90877142548561,135.00011048512533 35.79570320621133,168.50009838864207 38.37830262258649,177.0000584917143 41.391335275024176,181.00003455812111 46.55653410963714,184.50001090858132 51.72173294425011,186.0 56.88693177886307,186.0 62.482563849538565,184.00001444201916 67.21732944622636,180.00004085199907 69.79992886446416,175.0000692200847 71.09122857265174,169.50009447010234 71.09122857265174,165.000110484194 63.773863557726145,128.000083766412 62.05213061161339,123.00005849264562 59.46953119337559,119.50003773206845 54.734765596687794,116.00001444295049 49.56956676207483,114.0 43.543501457199454,114.0 37.51743614859879,116.00001444295049 33.21310378983617,119.50003773206845 30.20007113367319,124.00006396090612 28.90877142548561,129.50009034434333 28.90877142548561,134.0001072883606 37.51743614859879,175.0000692200847 40.96090203896165,181.00003455812111 45.26523440144956,184.00001444201916 50.86086647212505,186.0 56.456498542800546,186.0 61.62169737741351,184.50001090858132 66.35646297596395,181.00003455812111 69.79992886446416,176.00006395904347 71.09122857265174,170.5000903424807 70.23036209866405,161.5001200530678 62.482563849538565,124.50006661657244 59.89996443130076,120.0000408529304 54.734765596687794,116.00001444295049 48.708700289949775,114.0 43.543501457199454,114.0 37.94786938652396,116.00001444295049 33.21310378983617,120.0000408529304 30.20007113367319,124.50006661657244 28.90877142548561,129.50009034434333 29.339204663410783,136.50011489586905 36.22613644041121,172.000083766412 37.94786938652396,176.50006125168875 41.391335275024176,181.50003133481368 45.26523440144956,184.00001444201916 50.43043323606253,186.0 56.026065304875374,186.0 61.19126413948834,184.50001090858132 66.35646297596395,180.50003773067147 69.79992886446416,176.00006395904347 71.09122857265174,170.5000903424807 70.23036209866405,161.5001200530678 63.34343031980097,127.50008147209883 62.05213061161339,124.00006396090612 59.46953119337559,119.50003773206845 53.87389912456274,115.50001090858132 48.708700289949775,114.0 43.543501457199454,114.0 37.94786938652396,116.00001444295049 34.07397026009858,119.00003455812111 30.630504371598363,124.00006396090612 28.90877142548561,128.50008601136506 28.90877142548561,135.00011048512533 37.51743614859879,175.0000692200847 40.100035566836596,180.00004085199907 43.97393469326198,183.50001792423427 48.708700289949775,185.50000368850306 54.30433236248791,186.0 60.33039766922593,185.0000073243864 65.92602973803878,181.00003455812111 69.36949562653899,176.00006395904347 71.09122857265174,171.00008820090443 71.09122857265174,166.00010728649795 62.912997083738446,125.00006922148168 60.76083090342581,121.00004693772644 56.026065304875374,116.50001792563125 49.999999998137355,114.0 44.83480116352439,114.0 40.100035566836596,115.00000732438639 34.93483673222363,118.00002805935219 31.06093760766089,122.50005568051711 29.339204663410783,128.000083766412 29.339204663410783,135.50011200737208 37.08700291253626,175.0000692200847 39.66960233077407,179.5000439202413 43.11306822113693,182.50002473266795 46.98696734569967,185.0000073243864 52.15216617844999,186.0 59.89996443130076,185.0000073243864 65.06516326591372,182.0000280602835 69.36949562653899,176.50006125168875 71.09122857265174,171.5000860095024 71.09122857265174,165.5001089121215 62.482563849538565,124.50006661657244 59.89996443130076,120.0000408529304 55.59563206881285,116.50001792563125 50.43043323606253,114.50000368710607 44.83480116352439,114.0 39.23916909471154,115.00000732438639 34.93483673222363,118.00002805935219 31.06093760766089,122.50005568051711 28.90877142548561,128.000083766412 29.339204663410783,135.50011200737208 37.51743614859879,175.50006661610678 40.100035566836596,180.00004085199907 44.40436792746186,183.50001792423427 50.43043323606253,186.0 55.165198834612966,186.0 61.19126413948834,184.50001090858132 65.49559650197625,181.50003133481368 69.79992886446416,175.50006661610678 71.09122857265174,170.5000903424807 71.09122857265174,165.5001089121215 62.912997083738446,126.00007427670062 60.33039766922593,120.50004392117262 56.456498542800546,117.00002135476097 53.443465888500214,115.00000732438639 48.27826705388725,114.0 42.682634983211756,114.0 37.94786938652396,116.00001444295049 33.64353702403605,119.00003455812111" stroke="#4dd2ff" stroke-linecap="round" stroke-linejoin="round" stroke-width="0.5"><title>2023-09-08 3.3km</title><desc>9808483358</desc></polyline><polyline fill="none" points="129.4817024320364,133.3656231239438 135.8936704210937,172.0966356312856 136.7485994901508,175.57248048763722 140.16831574961543,181.03451733570546 144.4429610762745,184.013807549607 150.00000000186265,186.0 155.98450345918536,186.0 161.54154238291085,184.013807549607 166.24365224316716,180.04142018780112 168.80843943729997,175.57248048763722 170.09083303622901,171.10353663843125 170.09083303622901,165.14493838418275 164.1063295789063,128.89664008840919 162.3964714501053,123.93109851470217 159.40421972051263,119.46210671868175 154.27464532665908,115.98622134234756 150.00000000186265,114.49655541218817 144.4429610762745,114.49655541218817 139.3133866842836,115.98622134234756 134.61127682588995,119.46210671868175 131.19156056270003,123.93109851470217 129.4817024320364,129.3931939639151 130.33663149923086,137.83460201043636 135.46620588935912,171.10353663843125 137.17606402002275,176.0690295472741 139.7408512160182,180.04142018780112 144.87042560987175,184.013807549607 150.42746453173459,186.0 155.98450345918536,186.0 161.11407785117626,184.013807549607 165.81618771143258,180.53796878829598 168.80843943729997,175.57248048763722 170.09083303622901,170.6069870647043 170.09083303622901,165.64148852275684 164.96125864423811,133.86217653751373 162.3964714501053,123.93109851470217 159.40421972051263,119.46210671868175 154.70210986025631,115.98622134234756 148.7176064029336,114.0 142.30563841201365,114.49655541218817 137.17606402002275,116.97933170478791 132.9014186952263,120.95177111122757 130.33663149923086,125.91731575876474 129.4817024320364,130.88285528263077 135.46620588935912,170.6069870647043 137.60352855361998,177.06212751474231 141.02324481494725,181.5310658318922 145.72535467334092,184.5103557384573 151.2823936007917,186.0 157.694361589849,185.50345196435228 161.96900691650808,183.517259308137 166.24365224316716,180.04142018780112 169.2359039708972,174.57938221283257 170.51829756982625,169.61388776544482 164.1063295789063,127.90353218233213 160.68661331757903,120.95177111122757 155.98450345918536,116.97933170478791 151.2823936007917,114.49655541218817 146.15281920693815,114.0 141.45070934854448,114.99311077408493 136.32113495655358,117.47588681057096 132.9014186952263,120.95177111122757 130.33663149923086,125.91731575876474 129.4817024320364,130.88285528263077 135.46620588935912,170.6069870647043 137.17606402002275,176.56557855615392 141.02324481494725,181.5310658318922 144.87042560987175,184.5103557384573 150.00000000186265,186.0 155.98450345918536,186.0 161.11407785117626,184.013807549607 165.81618771143258,180.53796878829598 168.80843943729997,176.0690295472741 170.09083303622901,171.10353663843125 170.51829756982625,167.13113862182945 167.9535103738308,152.73116833390668 164.1063295789063,127.90353218233213 162.3964714501053,123.93109851470217 159.40421972051263,119.46210671868175 154.70210986025631,115.98622134234756 149.14507093653083,114.49655541218817 144.01549654453993,114.49655541218817 138.88592215254903,115.98622134234756 133.75634775869548,119.95866156741977 130.76409603096545,124.42765290196985 129.4817024320364,129.88974778773263 129.4817024320364,133.86217653751373 135.46620588935912,169.11733804130927 137.17606402002275,176.0690295472741 140.59578028321266,181.03451733570546 145.29789014160633,184.5103557384573 150.85492906533182,186.0 158.12182612158358,185.50345196435228 162.3964714501053,183.517259308137 166.24365224316716,180.04142018780112 169.2359039708972,175.07593137631193 170.51829756982625,170.11043744161725 170.09083303622901,165.14493838418275 164.53379411250353,130.38630155986175 162.82393597997725,123.93109851470217 159.83168425410986,119.95866156741977 155.12957439385355,116.48277654964477 150.00000000186265,114.49655541218817 144.4429610762745,114.49655541218817 138.4584576189518,115.98622134234756 134.18381229415536,119.46210671868175 130.76409603096545,124.92420723801479 129.4817024320364,130.38630155986175 135.8936704210937,171.6000861604698 137.60352855361998,177.06212751474231 141.45070934854448,181.5310658318922 146.15281920693815,184.5103557384573 151.2823936007917,186.0 157.26689705625176,185.50345196435228 163.25140051357448,183.02071101544425 167.09858130849898,179.04832283500582 169.2359039708972,175.07593137631193 170.51829756982625,170.11043744161725 170.09083303622901,165.64148852275684 164.1063295789063,128.89664008840919 161.96900691650808,122.44143504463136 158.9767551869154,118.96555181965232 153.4197162631899,115.48966608336195 148.29014186933637,114.0 142.73310294561088,114.49655541218817 137.17606402002275,116.97933170478791 133.32888322509825,120.45521636446938 130.33663149923086,125.91731575876474 129.4817024320364,130.88285528263077 135.8936704210937,172.59318504855037 136.7485994901508,175.57248048763722 140.59578028321266,181.03451733570546 145.29789014160633,184.5103557384573 150.85492906533182,186.0 157.26689705625176,185.50345196435228 161.96900691650808,183.517259308137 166.67111677490175,179.54487153654918 169.2359039708972,174.57938221283257 170.51829756982625,170.11043744161725 170.09083303622901,165.14493838418275 164.1063295789063,129.3931939639151 162.3964714501053,123.43454407481477 159.40421972051263,119.46210671868175 154.70210986025631,115.98622134234756 148.7176064029336,114.0 143.5880320109427,114.49655541218817 139.3133866842836,115.98622134234756 134.18381229415536,119.46210671868175 130.76409603096545,124.92420723801479 129.4817024320364,129.88974778773263 129.4817024320364,134.3587299012579 135.46620588935912,169.11733804130927 137.17606402002275,176.0690295472741 141.02324481494725,181.5310658318922 144.87042560987175,184.013807549607 150.85492906533182,186.0 156.83943252265453,186.0 162.3964714501053,183.517259308137 165.81618771143258,180.53796878829598 169.2359039708972,175.57248048763722 170.51829756982625,170.11043744161725 170.09083303622901,166.13803860731423 164.53379411250353,131.37940895278007 162.3964714501053,123.93109851470217 158.9767551869154,118.96555181965232 155.12957439385355,115.98622134234756 150.00000000186265,114.49655541218817 143.5880320109427,114.49655541218817 137.17606402002275,116.97933170478791 133.75634775869548,120.45521636446938 130.76409603096545,125.42076152423397 129.4817024320364,130.38630155986175 135.46620588935912,169.61388776544482 137.60352855361998,177.06212751474231 141.02324481494725,181.5310658318922 147.00774827226996,185.00690387794748 153.84718079678714,186.0 159.40421972051263,185.00690387794748 163.6788650471717,182.52416267246008 167.09858130849898,179.04832283500582 169.2359039708972,174.57938221283257 170.51829756982625,169.61388776544482 164.1063295789063,128.40008616121486 161.96900691650808,122.9379895851016 158.5492906551808,118.4689968675375 153.84718079678714,115.48966608336195 147.4352128058672,114.0 141.45070934854448,114.99311077408493 136.32113495655358,117.47588681057096 132.0464896298945,121.94488045107573 129.90916696563363,127.90353218233213 129.4817024320364,133.86217653751373 135.8936704210937,172.59318504855037 138.03099308535457,177.55867642257363 141.87817388027906,182.02761427871883 147.00774827226996,185.00690387794748 153.84718079678714,186.0 159.40421972051263,185.00690387794748 163.6788650471717,182.52416267246008 167.09858130849898,179.04832283500582 169.2359039708972,175.07593137631193 170.51829756982625,169.11733804130927 164.1063295789063,127.90353218233213 161.54154238291085,121.94488045107573 157.26689705625176,117.47588681057096 152.56478719599545,114.99311077408493 147.4352128058672,114.0 141.02324481494725,114.99311077408493 135.8936704210937,117.97244186419994 132.47395416162908,121.94488045107573 130.33663149923086,126.41386994160712 129.4817024320364,131.8759625731036 135.8936704210937,172.0966356312856 137.17606402002275,176.56557855615392 140.16831574961543,180.53796878829598 144.87042560987175,184.013807549607 151.2823936007917,186.0 156.41196799091995,186.0 161.54154238291085,184.013807549607 165.81618771143258,180.53796878829598 168.80843943729997,175.57248048763722 170.09083303622901,170.6069870647043 170.09083303622901,165.14493838418275 164.53379411250353,130.88285528263077 162.3964714501053,123.43454407481477 158.5492906551808,118.4689968675375 154.27464532665908,115.48966608336195 149.14507093653083,114.0 143.16056747734547,114.49655541218817 137.60352855361998,116.48277654964477 132.9014186952263,121.4483258058317 129.90916696563363,127.40697815362364 129.4817024320364,131.8759625731036 135.8936704210937,171.6000861604698 137.60352855361998,177.06212751474231 141.45070934854448,182.02761427871883 147.86267733760178,185.50345196435228 153.84718079678714,186.0 160.68661331757903,184.5103557384573 164.53379411250353,182.02761427871883 167.9535103738308,178.05522527731955 169.66336850263178,173.0897344155237 170.51829756982625,168.62078826269135 164.1063295789063,127.90353218233213 162.82393597997725,124.42765290196985 159.83168425410986,119.46210671868175 155.55703892558813,116.48277654964477 150.00000000186265,114.49655541218817 146.15281920693815,114.0 140.59578028321266,115.48966608336195 134.61127682588995,118.96555181965232 131.61902509629726,123.43454407481477 129.90916696563363,127.90353218233213 129.4817024320364,133.86217653751373 135.8936704210937,172.59318504855037 137.17606402002275,176.0690295472741 139.7408512160182,180.04142018780112 145.72535467334092,184.5103557384573 150.00000000186265,186.0 154.70210986025631,186.0 158.5492906551808,185.50345196435228 162.82393597997725,183.02071101544425 165.81618771143258,180.53796878829598 168.38097490742803,176.56557855615392 170.09083303622901,172.0966356312856 170.51829756982625,167.6276885541156 163.6788650471717,127.40697815362364 161.96900691650808,122.44143504463136 159.40421972051263,119.46210671868175 155.12957439385355,116.48277654964477 151.2823936007917,114.49655541218817 145.29789014160633,114.0 138.4584576189518,115.98622134234756 132.47395416162908,121.4483258058317 129.90916696563363,126.91042407276109 129.4817024320364,131.37940895278007 129.90916696563363,134.85528321331367 135.03874135762453,168.124238433782 136.7485994901508,175.07593137631193 139.3133866842836,179.54487153654918 143.5880320109427,183.517259308137 149.14507093653083,186.0 155.55703892558813,186.0 161.11407785117626,184.013807549607 165.3887231759727,181.03451733570546" stroke="#4dd2ff" stroke-linecap="round" stroke-linejoin="round" stroke-width="0.5"><title>2023-09-07 5.6km</title><desc>9801226571</desc></polyline><polyline fill="none" points="36.321116611361504,251.60008615860716 38.45844214037061,257.06212751427665 41.878162985667586,261.53106583142653 47.862674470990896,265.0069038765505 53.84718595445156,266.0 59.831697437912226,264.5103557384573 64.10634849593043,262.0276142777875 67.95353444851935,258.0552252763882 70.09085997752845,253.5862837326713 70.94579019024968,248.6207882622257 63.67888339050114,208.40008616028354 61.54155785962939,202.93798958556727 57.69437190704048,197.9724418646656 53.84718595445156,195.48966608429328 49.14506978727877,194.0 43.16055830568075,194.0 37.17604682222009,196.48277655011043 32.47393065690994,200.4552163654007 29.909140020608902,205.42076152469963 29.05420980975032,210.3863015603274 36.321116611361504,251.1035366379656 37.603511929512024,256.06902954680845 41.023232774809,260.53796878643334 47.00774425826967,264.5103557384573 52.99225574173033,266.0 58.97676722332835,265.0069038765505 63.25141828507185,262.5241626719944 67.52606934122741,258.55177408177406 70.09085997752845,253.5862837326713 70.94579019024968,248.1242384328507 63.25141828507185,206.41386994160712 60.25916254147887,200.4552163654007 55.55704637616873,196.48277655011043 50.000000001862645,194.0 45.297883834689856,194.0 39.31337235122919,195.48966608429328 34.183791080489755,198.46899686660618 31.191535338759422,202.44143504463136 29.05420980975032,208.40008616028354 29.05420980975032,213.36562312347814 36.321116611361504,252.09663562942296 39.74083745665848,259.0483228340745 45.72534894011915,264.01380754821 52.56479063630104,265.5034519643523 58.97676722332835,265.0069038765505 65.38874381408095,261.03451733477414 69.66339487209916,255.07593137491494 70.94579019024968,247.62768855318427 63.25141828507185,206.91042407322675 61.96902296692133,203.4345440757461 59.40423233062029,199.46210671961308 55.129581270739436,195.98622134374455 51.28239531815052,194.49655541265383 44.015488516539335,194.0 37.17604682222009,196.48277655011043 32.47393065690994,200.4552163654007 29.48167491517961,207.40697815269232 29.05420980975032,213.86217653751373 36.321116611361504,251.60008615860716 38.45844214037061,257.06212751427665 42.30562809295952,261.53106583142653 47.862674470990896,265.0069038765505 53.419720847159624,266.0 59.40423233062029,264.5103557384573 63.67888339050114,262.5241626719944 67.95353444851935,258.0552252763882 70.09085997752845,252.5931850480847 70.94579019024968,248.1242384328507 70.51832508482039,244.64838819717988 62.82395317777991,205.42076152469963 61.54155785962939,202.44143504463136 58.549302119761705,198.46899686660618 51.70986042357981,194.49655541265383 44.44295362196863,194.0 38.030977034941316,195.98622134374455 32.90139576420188,200.4552163654007 29.48167491517961,206.91042407322675 29.05420980975032,213.86217653751373 36.321116611361504,252.5931850480847 38.45844214037061,257.06212751427665 42.30562809295952,261.53106583142653 47.862674470990896,265.0069038765505 53.84718595445156,266.0 59.831697437912226,264.5103557384573 64.53381360322237,261.53106583142653 68.38099955394864,257.5586764216423 70.51832508482039,252.09663562942296 70.51832508482039,245.14493838511407 62.82395317777991,204.9242072380148 60.25916254147887,200.95177111169323 56.83944169431925,197.47588681196794 52.56479063630104,194.9931107731536" stroke="#4dd2ff" stroke-linecap="round" stroke-linejoin="round" stroke-width="0.5"><title>2023-09-05 2.0km</title><desc>9788245279</desc></polyline><polyline fill="none" points="129.5589887611568,207.2766744988039 129.5589887611568,212.89371837349609 137.03204663470387,253.74475480942056 139.66959647089243,258.85111065907404 143.18632958829403,262.4255566196516 148.0218376237899,264.9787307260558 152.41775401867926,266.0 159.01162861287594,264.9787307260558 164.2867282871157,261.91492164088413 168.24305304326117,257.31920445756987 170.00141960196197,250.68093877239153 169.5618279632181,243.53202730743214 162.08877008967102,204.7234706291929 159.01162861287594,199.61705894116312 155.05530385486782,196.5532094007358 149.34061254188418,194.51064198464155 144.94469614513218,194.0 139.23000483214855,195.5319257969968 134.39449679851532,198.59577597118914 131.3173553198576,202.68090658681467 129.5589887611568,208.2979556764476 129.5589887611568,213.4043584098108 137.91122991405427,255.27666211733595 140.98837139084935,260.3830163870007 144.50510450825095,263.44682642119005 149.34061254188418,265.48936538863927 155.49489549547434,265.48936538863927 160.33040353097022,264.4680960108526 165.60550320707262,260.3830163870007 168.6826446838677,255.7872977820225 170.00141960196197,250.68093877239153 170.00141960196197,244.55330100702122 162.08877008967102,204.7234706291929 159.01162861287594,199.61705894116312 154.61571221798658,196.04256762564182 148.90102090127766,194.0 143.62592122890055,194.0 137.91122991405427,196.04256762564182 134.39449679851532,199.1064174817875 130.87776368297637,203.70218871394172 129.5589887611568,208.2979556764476 129.5589887611568,213.91499839397147 136.59245499409735,251.70221099443734 137.91122991405427,255.7872977820225 140.54877975210547,259.87238119821995 144.94469614513218,263.44682642119005 150.21979582123458,265.48936538863927 155.05530385486782,265.48936538863927 160.33040353097022,263.9574612416327 165.60550320707262,260.89365152549 169.12223632261157,255.7872977820225 170.44101124070585,250.1703025805764 170.00141960196197,246.08521115779877 161.6491784490645,204.21282969834283 159.89081189222634,200.63834170112386 155.93448713608086,197.06385112181306 150.6593874618411,194.51064198464155 144.50510450825095,194.0 138.79041319340467,195.5319257969968 134.8340884372592,198.08513440843672 131.3173553198576,203.19154767738655 129.5589887611568,208.2979556764476 129.5589887611568,213.4043584098108 137.03204663470387,252.21284702653065 138.3508215546608,256.297933394555 141.42796302959323,260.89365152549 145.3842877857387,263.44682642119005 149.78020418435335,265.48936538863927 154.61571221798658,265.48936538863927 161.20958681032062,263.9574612416327 165.60550320707262,260.3830163870007 168.6826446838677,256.297933394555 170.00141960196197,250.68093877239153 170.00141960196197,245.06393777485937 162.08877008967102,204.7234706291929 159.89081189222634,200.63834170112386 155.49489549547434,197.06385112181306 150.6593874618411,194.51064198464155 144.50510450825095,194.0 139.23000483214855,195.5319257969968 135.27368007600307,198.08513440843672 131.3173553198576,202.68090658681467 129.5589887611568,207.78731511440128 129.5589887611568,212.89371837349609 137.91122991405427,255.7872977820225 140.54877975210547,259.87238119821995 144.50510450825095,262.9361915467307 149.34061254188418,265.48936538863927 154.17612057738006,265.48936538863927 159.01162861287594,264.9787307260558 164.72631992585957,261.40428660903126 168.24305304326117,256.80856895213947 170.00141960196197,251.1915749097243 170.00141960196197,245.57457449333742 162.52836173027754,207.2766744988039 160.33040353097022,201.65962424874306 156.37407877482474,197.5744927902706 151.53857073932886,195.0212839175947 146.2634710650891,194.0 140.98837139084935,195.0212839175947 136.15286335535347,197.5744927902706 132.196538599208,201.65962424874306 129.99858039990067,205.7447523344308 129.5589887611568,213.4043584098108 137.47163827344775,253.74475480942056 140.54877975210547,259.87238119821995" stroke="#4dd2ff" stroke-linecap="round" stroke-linejoin="round" stroke-width="0.5"><title>2023-09-04 2.1km</title><desc>9781140867</desc></polyline></svg>