<?xml version="1.0" encoding="utf-8" ?>
<svg baseProfile="full" height="200mm" version="1.1" viewBox="0,0,200,200" width="200mm" xmlns="http://www.w3.org/2000/svg" xmlns:ev="http://www.w3.org/2001/xml-events" xmlns:xlink="http://www.w3.org/1999/xlink"><defs /><rect fill="#1a1a1a" height="200" width="200" x="0" y="0" /><text alignment-baseline="middle" fill="#e1ed5e" style="dominant-baseline: central; font-size:9.0px; font-family:Arial;" text-anchor="middle" x="100.0" y="100.0">2024</text><line stroke="#e1ed5e" stroke-width="0.3" x1="100.0" x2="100.0" y1="15.0" y2="10.0" /><path d="M 100.0 14.0 a86.0,86.0 0 0,1 42.35913384403234,11.155469271406648" fill="none" id="id13" stroke="none" /><text fill="#e1ed5e" style="font-size:6.75px; font-family:Arial;" text-anchor="middle"><textPath startOffset="22.145653131862478" xlink:href="#id13">January</textPath></text><path d="M 100.0 79.0 l 0.0 -17.847025495750707 a38.84702549575071,38.84702549575071 0 0,0 0.6668608496495811,0.005724198359677044 l -0.3063679248007264 17.844395695585465" fill="#ffdb14" stroke="none" /><path d="M 100.36049292484886 79.00309439819443 l 0.17326808191507748 -10.091997121170001 a31.093484419263454,31.093484419263454 0 0,0 0.5336037049453045,0.01374373861674153 l -0.3464851009311234 10.087535665203214" fill="#ff740a" stroke="none" /><path d="M 100.72087961077811 79.0123766808444 l 0.3403586453154455 -9.909170594502179 a30.91501416430595,30.91501416430595 0 0,0 0.5302281767925366,0.02277027934289858 l -0.5104125827088184 9.90186774673345" fill="#ff720a" stroke="none" /><path d="M 101.08105385017728 79.02784411241856 l 0.612495099250582 -11.882241296080139 a32.89801699716714,32.89801699716714 0 0,0 0.5637398676225165,0.03391319054658772 l -0.8163793190055608 11.869976127708858" fill="#ff8d0d" stroke="none" /><path d="M 101.44090949804482 79.04949213459386 l 0.680615438254936 -9.895999097670874 a30.919376770538243,30.919376770538243 0 0,0 0.5292086987408503,0.040964100232268603 l -0.8503931317710197 9.882857230443552" fill="#ff720a" stroke="none" /><path d="M 101.80034050326958 79.07731436759882 l 0.850019123356743 -9.878510685741828 a30.91501416430595,30.91501416430595 0 0,0 0.5283529562632341,0.0500355742846257 l -1.01947164300499 9.862463355952018" fill="#ff720a" stroke="none" /><path d="M 102.15924093988457 79.11130261209362 l 1.1764702760277579 -11.381282712768623 a32.44192634560906,32.44192634560906 0 0,0 0.5534655948829996,0.06201697432539723 l -1.3716717725115541 11.359409977936256" fill="#ff870c" stroke="none" /><path d="M 102.51750503828377 79.15144685158666 l 7.552515114851315 -62.54565944524002 a84.0,84.0 0 0,0 1.430088712436833,0.1851536151984119 l -8.62508164917894 62.40679423384121" fill="#4dd2ff" stroke="none" /><path d="M 104.64783097203109 79.52079915486377 l 1.3166659977425166 -5.801473327234061 a26.94900849858357,26.94900849858357 0 0,0 0.450263836702074,0.10626103945682423 l -1.4160619881844754 5.778016144131009" fill="#ff3a05" stroke="none" /><path d="M 104.9986988182912 79.60360301121754 l 1.6048702532757386 -6.54841829668181 a27.742209631728045,27.742209631728045 0 0,0 0.4615705333122504,0.11732942461044431 l -1.7170460798133833 6.519903640236097" fill="#ff4506" stroke="none" /><path d="M 105.69591212413111 79.78721728523813 l 2.172944757458894 -7.711014368993197 a29.011331444759207,29.011331444759207 0 0,0 0.47818961462295817,0.13919402760662813 l -2.304994384463457 7.672576647084053" fill="#ff5708" stroke="none" /><path d="M 106.04205211174951 79.88797359093562 l 2.9668244552499936 -9.875593704167592 a31.311614730878187,31.311614730878187 0 0,0 0.5134498967853598,0.15906809051303578 l -3.1359149849069836 9.82320902584791" fill="#ff770b" stroke="none" /><path d="M 106.72888874123014 80.10723608172694 l 2.732221113058506 -8.077326236881412 a29.526912181303118,29.526912181303118 0 0,0 0.4787496746222547,0.16653398857919624 l -2.870476559725779 8.029233815733624" fill="#ff5e08" stroke="none" /><path d="M 107.06938296918511 80.22567764915836 l 3.6712727646204404 -10.269203323955498 a31.9057223796034,31.9057223796034 0 0,0 0.5141544084556936,0.18880462056555886 l -3.8470163247302587 10.204667854381217" fill="#ff7f0b" stroke="none" /><path d="M 107.74402155503746 80.48000691201159 l 5.879313815155921 -14.81971146623482 a36.94334277620396,36.94334277620396 0 0,0 0.5874792623250338,0.23892270159846643 l -6.1328475386713945 14.71660150805706" fill="#ffc212" stroke="none" /><path d="M 108.07796709384702 80.6158196554323 l 6.559477094439915 -15.740357132865057 a38.052436260623224,38.052436260623224 0 0,0 0.600802531825502,0.25644687490942825 l -6.828714701435847 15.625435608296227" fill="#ffd113" stroke="none" /><path d="M 108.4095320186766 80.7573450057729 l 2.727181851911335 -6.240325783444208 a27.810226628895187,27.810226628895187 0 0,0 0.4358082308150865,0.19493147838668123 l -2.8339034855820535 6.192590554147674" fill="#ff4606" stroke="none" /><path d="M 109.06512990194946 81.05736502329252 l 2.129406718044332 -4.449641054585227 a25.932917847025497,25.932917847025497 0 0,0 0.39990998340419187,0.1956160126278169 l -2.205476950710591 4.412431291860188" fill="#ff2b04" stroke="none" /><path d="M 109.3889696526874 81.21577127319529 l 7.170193878106139 -14.34519087867426 a37.03733711048159,37.03733711048159 0 0,0 0.5662705107806235,0.28914175764171973 l -7.4153916106003415 14.219991169359705" fill="#ffc412" stroke="none" /><path d="M 109.71004243097381 81.37971332152246 l 7.124365409694668 -13.661910055880124 a36.40793201133145,36.40793201133145 0 0,0 0.551686245718486,0.2937418519937259 l -7.357840471199713 13.537597736163825" fill="#ffbb11" stroke="none" /><path d="M 110.02825361518725 81.54914285379988 l 7.343636145965736 -13.511463377599801 a36.37818696883853,36.37818696883853 0 0,0 0.5461159460128745,0.30292130938422435 l -7.574496280134711 13.38340915278243" fill="#ffbb11" stroke="none" /><path d="M 110.34350942703115 81.72400993836675 l 9.816078351431829 -17.344069888518813 a40.92917847025495,40.92917847025495 0 0,0 0.6084951334618883,0.3513148291047985 l -10.112365952754114 17.173008162137844" fill="#fff517" stroke="none" /><line stroke="#e1ed5e" stroke-width="0.3" x1="143.13028292997686" x2="145.6673583964461" y1="26.7553504044142" y2="22.446841604673864" /><path d="M 143.63769802327073 25.89364864446614 a86.0,86.0 0 0,1 29.32050498858742,28.57503671076993" fill="none" id="id14" stroke="none" /><text fill="#e1ed5e" style="font-size:6.75px; font-family:Arial;" text-anchor="middle"><textPath startOffset="20.669276256404974" xlink:href="#id14">February</textPath></text><path d="M 110.65571695917076 81.90426304109057 l 2.757003254780724 -4.681994265100268 a26.43342776203966,26.43342776203966 0 0,0 0.3890336501500851,0.2336035290704601 l -2.8369696614882436 4.633976735493887" fill="#ff3204" stroke="none" /><path d="M 111.27062007382361 82.28071324371311 l 10.711559004439328 -16.840349897639353 a40.95832861189802,40.95832861189802 0 0,0 0.5900229944684788,0.38244577655888257 l -10.999067631164813 16.653990279376576" fill="#fff517" stroke="none" /><path d="M 111.5731344415666 82.4767994020092 l 9.03633397138638 -13.68216135831978 a37.39685552407932,37.39685552407932 0 0,0 0.5326446809882046,0.3583871125457047 l -9.269874940471585 13.525024571716957" fill="#ffc812" stroke="none" /><path d="M 112.16784306229584 82.88440491214696 l 4.032967813848764 -5.672874292574521 a27.960339943342778,27.960339943342778 0 0,0 0.38880715332644505,0.28146639505567955 l -4.129755977549176 5.602807126145767" fill="#ff4806" stroke="none" /><path d="M 113.03279911837588 83.53348406188908 l 4.924896648906196 -6.222446032212681 a28.935580736543912,28.935580736543912 0 0,0 0.38684009529085217,0.31161099779276163 l -5.030987514552307 6.1369867406265115" fill="#ff5608" stroke="none" /><path d="M 113.31354834802062 83.75963576809568 l 1.257181147121871 -1.5335565846935146 a22.98300283286119,22.98300283286119 0 0,0 0.30296595534123355,0.25274497530325063 l -1.2833214366249972 1.5117494254783936" fill="#ff0000" stroke="none" /><path d="M 113.86319453409587 84.22622945171908 l 5.432696630453053 -6.181411499090255 a29.229461756373937,29.229461756373937 0 0,0 0.37404660100315806,0.33447477710282114 l -5.5380082582795875 6.087241192104047" fill="#ff5a08" stroke="none" /><path d="M 114.39649973595853 84.71141617570332 l 6.067873141780064 -6.443871000920512 a29.85113314447592,29.85113314447592 0 0,0 0.3700510136002384,0.3545005001364447 l -6.177596641245614 6.338758370478487" fill="#ff6309" stroke="none" /><path d="M 114.91283532996326 85.21462403516908 l 3.949296192906697 -3.9155417274191024 a26.561331444759205,26.561331444759205 0 0,0 0.3182467414528282,0.3265491927383031 l -4.015929735510337 3.8471698426130576" fill="#ff3405" stroke="none" /><line stroke="#e1ed5e" stroke-width="0.3" x1="172.87174338648825" x2="177.1583165268699" y1="56.24261187166439" y2="53.66864786411523" /><path d="M 173.72905801456457 55.72781907015455 a86.0,86.0 0 0,1 12.242430191666344,42.057860355516425" fill="none" id="id15" stroke="none" /><text fill="#e1ed5e" style="font-size:6.75px; font-family:Arial;" text-anchor="middle"><textPath startOffset="22.145653131862474" xlink:href="#id15">March</textPath></text><path d="M 120.35273937422433 94.82641323984039 l 3.39692793616067 -0.8634857977886793 a24.504957507082153,24.504957507082153 0 0,0 0.10013481029980467,0.4085841971109978 l -3.411250272976766 0.8050457760695865" fill="#ff1602" stroke="none" /><path d="M 120.43855184770803 95.1765574152323 l 6.128477576696137 -1.4463040211209985 a27.296827195467422,27.296827195467422 0 0,0 0.10371382495883842,0.4569822492536098 l -6.152402263212641 1.3408874379283624" fill="#ff3f05" stroke="none" /><path d="M 120.65975698304385 96.23510406497455 l 4.901961413719951 -0.8933006625059918 a25.982691218130313,25.982691218130313 0 0,0 0.07619756098626075,0.4394872830548962 l -4.916573792198446 0.8090203465305029" fill="#ff2c04" stroke="none" /><path d="M 120.82617615685814 97.30363454192243 l 6.094458915023924 -0.7890497218680257 a27.145325779036828,27.145325779036828 0 0,0 0.055864968951035335,0.4626420827757696 l -6.107105970234623 0.6843139621688431" fill="#ff3d05" stroke="none" /><path d="M 120.86939407059847 97.66154086499901 l 5.957926260022697 -0.6675980644804982 a26.995212464589237,26.995212464589237 0 0,0 0.04764990192911571,0.46096957665776866 l -5.9685085544334795 0.5652239655397981" fill="#ff3b05" stroke="none" /><path d="M 120.99303781780057 99.45929381324524 l 3.048847229818442 -0.07852748963444986 a24.04985835694051,24.04985835694051 0 0,0 0.007087342546872371,0.4128021721555395 l -3.04974600396398 0.026178401509843987" fill="#ff1001" stroke="none" /><line stroke="#e1ed5e" stroke-width="0.3" x1="184.99686870605535" x2="189.99668451229388" y1="99.2704041080226" y2="99.22748670261217" /><path d="M 185.99683186730306 99.26182062694052 a86.0,86.0 0 0,1 -10.086455211305974,41.156179273409016" fill="none" id="id16" stroke="none" /><text fill="#e1ed5e" style="font-size:6.75px; font-family:Arial;" text-anchor="middle"><textPath startOffset="21.40746469413373" xlink:href="#id16">April</textPath></text><path d="M 120.99922638620191 99.81974689727618 l 5.98646501038183 -0.05138660218349739 a26.986685552407934,26.986685552407934 0 0,0 0.0,0.4632794098146478 l -5.98646501038183 -0.051386602183496666" fill="#ff3a05" stroke="none" /><path d="M 120.99922638620191 100.18025310272382 l 4.963669829078433 0.042607135669337125 a25.96385269121813,25.96385269121813 0 0,0 -0.007651384682938189,0.4456547988511576 l -4.962207012796826 -0.12780885048956575" fill="#ff2c04" stroke="none" /><path d="M 120.96210409425399 101.26102812881392 l 5.704305153807476 0.3431568330137805 a26.714617563739377,26.714617563739377 0 0,0 -0.031467324643669754,0.4575279941905114 l -5.69757386799874 -0.4410282513586354" fill="#ff3605" stroke="none" /><path d="M 120.9064616781168 101.97986365728391 l 6.46935551644842 0.6126546935712354 a27.49830028328612,27.49830028328612 0 0,0 -0.04853791439629242,0.4695602917377328 l -6.457885209570462 -0.7236195075918995" fill="#ff4206" stroke="none" /><path d="M 120.65975698304385 103.76489593502545 l 3.9171601554536104 0.7138370677939186 a24.981671388101983,24.981671388101983 0 0,0 -0.08050487275340756,0.42123551236702617 l -3.9043289904180436 -0.7809751451942594" fill="#ff1d03" stroke="none" /><line stroke="#e1ed5e" stroke-width="0.3" x1="174.33088141563837" x2="178.70328620479359" y1="141.23008692659167" y2="143.65538615756765" /><path d="M 175.20536237346943 141.71514677278685 a86.0,86.0 0 0,1 -30.301960400862466,31.631185727798858" fill="none" id="id17" stroke="none" /><text fill="#e1ed5e" style="font-size:6.75px; font-family:Arial;" text-anchor="middle"><textPath startOffset="22.145653131862474" xlink:href="#id17">May</textPath></text><path d="M 116.1254893667686 113.45245675266167 l 2.0290098754692325 1.6926722023533232 a23.642351274787536,23.642351274787536 0 0,0 -0.26266138494678254,0.3094144510146516 l -1.9996539270153353 -1.7272534358175313" fill="#ff0a01" stroke="none" /><path d="M 113.31354834802062 116.24036423190432 l 2.5195167369469424 3.073400751384273 a24.97413597733711,24.97413597733711 0 0,0 -0.33387949698478886,0.26894968868144437 l -2.4663864696069013 -3.116198733859121" fill="#ff1d03" stroke="none" /><path d="M 111.27062007382361 117.71928675628689 l 2.5136994855867787 3.9519531057293698 a25.683654390934844,25.683654390934844 0 0,0 -0.3740468007864487,0.23343286807251734 l -2.445488556010615 -3.9945217706434346" fill="#ff2803" stroke="none" /><line stroke="#e1ed5e" stroke-width="0.3" x1="143.1302829299769" x2="145.66735839644613" y1="173.24464959558577" y2="177.55315839532614" /><path d="M 143.63769802327073 174.10635135553383 a86.0,86.0 0 0,1 -40.68552437913181,11.842963189579606" fill="none" id="id18" stroke="none" /><text fill="#e1ed5e" style="font-size:6.75px; font-family:Arial;" text-anchor="middle"><textPath startOffset="21.407464694133747" xlink:href="#id18">June</textPath></text><path d="M 108.4095320186766 119.2426549942271 l 0.9432334402062372 2.1583027008633557 a23.35541076487252,23.35541076487252 0 0,0 -0.3687540483151743,0.15739917575462442 l -0.9060443167206318 -2.174176526277384" fill="#ff0600" stroke="none" /><path d="M 108.07796709384702 119.3841803445677 l 1.7653294849188077 4.236148118171202 a25.589263456090652,25.589263456090652 0 0,0 -0.406924779646855,0.16549276533747417 l -1.6923502440815117 -4.265828140087967" fill="#ff2603" stroke="none" /><path d="M 104.9986988182912 120.39639698878246 l 1.4208765989443037 5.797661399021054 a26.969235127478754,26.969235127478754 0 0,0 -0.4506017830695841,0.1063407938793776 l -1.3211426621348406 -5.821198336546656" fill="#ff3a05" stroke="none" /><path d="M 104.64783097203109 120.47920084513623 l 2.20124610389253 9.699096490914146 a30.9457507082153,30.9457507082153 0 0,0 -0.5190598307318296,0.11312667422986326 l -2.0344238565415647 -9.735454623277727" fill="#ff720a" stroke="none" /><line stroke="#e1ed5e" stroke-width="0.3" x1="101.45913802915013" x2="101.54496967792366" y1="184.9874750549273" y2="189.98673829345242" /><path d="M 101.47630435890484 185.9873277026323 a86.0,86.0 0 0,1 -42.54439059252881,-10.42667462771756" fill="none" id="id19" stroke="none" /><text fill="#e1ed5e" style="font-size:6.75px; font-family:Arial;" text-anchor="middle"><textPath startOffset="22.145653131862474" xlink:href="#id19">July</textPath></text><path d="M 98.91894614982273 120.97215588758144 l -1.1027463849423913 21.392985266817607 a42.421388101983,42.421388101983 0 0,0 -0.726932195184763,-0.04373043573043266 l 1.4698229322596008 -21.370902853262482" fill="#f7ff19" stroke="none" /><path d="M 98.19965949673042 120.92268563240118 l -0.24954861423507296 2.9001331671200847 a23.91084985835694,23.91084985835694 0 0,0 -0.40864830733331675,-0.038699419574508544 l 0.299296484953405 -2.8954219920403923" fill="#ff0e01" stroke="none" /><path d="M 97.48249496171623 120.84855314841334 l -4.499535090851375 37.262605261245845 a58.53328611898017,58.53328611898017 0 0,0 -0.9965213307212926,-0.12901963731395474 l 5.138534243463461 -37.17987402773149" fill="#43ff2d" stroke="none" /><path d="M 97.12497278360702 120.80226474461374 l -4.882306605424586 35.32593847853731 a56.66172804532578,56.66172804532578 0 0,0 -0.9623721841263168,-0.14143556996031384 l 5.488003895158587 -35.23692183527811" fill="#56ff2b" stroke="none" /><path d="M 96.76829788921471 120.74984581791261 l -7.145845716409972 45.88145558319049 a67.43458923512748,67.43458923512748 0 0,0 -1.1422857363481214,-0.18796268322537799 l 7.932408955811157 -45.75202690146944" fill="#38ff82" stroke="none" /><path d="M 96.41257539226777 120.69131181640829 l -6.076297821657575 35.04647112201105 a56.56932011331444,56.56932011331444 0 0,0 -0.9553891900392479,-0.17410373611355337 l 6.67702174524788 -34.93699921196613" fill="#57ff2a" stroke="none" /><line stroke="#e1ed5e" stroke-width="0.3" x1="58.13341422392154" x2="55.67067388415222" y1="173.97424548756322" y2="178.32567169271397" /><path d="M 57.64086615596768 174.84453072859336 a86.0,86.0 0 0,1 -31.369924170532247,-30.572349798747897" fill="none" id="id20" stroke="none" /><text fill="#e1ed5e" style="font-size:6.75px; font-family:Arial;" text-anchor="middle"><textPath startOffset="22.145653131862474" xlink:href="#id20">August</textPath></text><line stroke="#e1ed5e" stroke-width="0.3" x1="26.387840678322732" x2="22.057713659400548" y1="142.50000000000003" y2="145.00000000000006" /><path d="M 25.521815274538298 143.00000000000003 a86.0,86.0 0 0,1 -11.493303480769221,-40.785679425670985" fill="none" id="id21" stroke="none" /><text fill="#e1ed5e" style="font-size:6.75px; font-family:Arial;" text-anchor="middle"><textPath startOffset="21.40746469413373" xlink:href="#id21">September</textPath></text><line stroke="#e1ed5e" stroke-width="0.3" x1="15.003131293944662" x2="10.003315487706104" y1="100.72959589197737" y2="100.7725132973878" /><path d="M 14.003168132696942 100.73817937305945 a86.0,86.0 0 0,1 10.791469493833604,-42.45332614584628" fill="none" id="id22" stroke="none" /><text fill="#e1ed5e" style="font-size:6.75px; font-family:Arial;" text-anchor="middle"><textPath startOffset="22.145653131862435" xlink:href="#id22">October</textPath></text><line stroke="#e1ed5e" stroke-width="0.3" x1="26.387840678322718" x2="22.05771365940052" y1="57.49999999999999" y2="54.99999999999999" /><path d="M 25.521815274538284 56.99999999999999 a86.0,86.0 0 0,1 29.574782752854787,-30.34633250058573" fill="none" id="id23" stroke="none" /><text fill="#e1ed5e" style="font-size:6.75px; font-family:Arial;" text-anchor="middle"><textPath startOffset="21.40746469413373" xlink:href="#id23">November</textPath></text><line stroke="#e1ed5e" stroke-width="0.3" x1="56.869717070023135" x2="54.33264160355391" y1="26.7553504044142" y2="22.446841604673864" /><path d="M 56.362301976729285 25.89364864446614 a86.0,86.0 0 0,1 42.16139366436587,-11.88097634709845" fill="none" id="id24" stroke="none" /><text fill="#e1ed5e" style="font-size:6.75px; font-family:Arial;" text-anchor="middle"><textPath startOffset="22.145653131862474" xlink:href="#id24">December</textPath></text></svg>