<?xml version="1.0" encoding="utf-8" ?>
<svg baseProfile="full" height="300mm" version="1.1" viewBox="0,0,200,300" width="200mm" xmlns="http://www.w3.org/2000/svg" xmlns:ev="http://www.w3.org/2001/xml-events" xmlns:xlink="http://www.w3.org/1999/xlink"><defs /><rect fill="#222222" height="300" width="200" x="0" y="0" /><text fill="#FFFFFF" style="font-size:12px; font-family:Arial; font-weight:bold;" x="10" y="20">Over 3km Runs</text><text fill="#FFFFFF" style="font-size:4px; font-family:Arial" x="10" y="280">ATHLETE</text><text fill="#FFFFFF" style="font-size:9px; font-family:Arial" x="10" y="290">V</text><text fill="#FFFFFF" style="font-size:4px; font-family:Arial" x="120" y="280">STATISTICS</text><text fill="#FFFFFF" style="font-size:3px; font-family:Arial" x="120" y="285">Number: 1</text><text fill="#FFFFFF" style="font-size:3px; font-family:Arial" x="120" y="290">Weekly: 1.0</text><text fill="#FFFFFF" style="font-size:3px; font-family:Arial" x="141" y="285">Total: 14.3 km</text><text fill="#FFFFFF" style="font-size:3px; font-family:Arial" x="141" y="290">Avg: 14.3 km</text><text fill="#FFFFFF" style="font-size:3px; font-family:Arial" x="167" y="285">Min: 14.3 km</text><text fill="#FFFFFF" style="font-size:3px; font-family:Arial" x="167" y="290">Max: 14.3 km</text><polyline fill="none" points="179.45182798081078,181.9460166448407 179.55983998219017,182.08309769381594 179.68585398374125,182.08309769381594 180.0278919879347,182.01455718331272 180.47794199350756,181.9688634940976 180.80197799752932,181.85462921655562 180.9099899989087,181.71754798061738 180.9279919990804,181.64900732060778 180.9099899989087,181.26060971737024 181.0,180.91790520198992 180.9819979997119,179.6384688160615 180.9099899989087,179.2272193308745 180.8919879986206,178.6103432099626 180.87398599844892,178.01631220558193 180.9099899989087,177.49082148414163 180.87398599844892,177.05671920994064 180.8919879986206,175.8686440748279 180.85598399827722,175.22890781934257 180.9099899989087,174.88619096306502 180.87398599844892,174.65771266934462 180.87398599844892,174.0865155714564 180.9459939992521,173.5381645248708 180.72996999660973,173.44677250925452 180.45993999333587,173.42392449751787 179.2898099787999,173.4924685232836 178.37170796759892,173.4924685232836 175.923435937264,173.58386051398702 175.0233359261183,173.58386051398702 174.57328592054546,173.5381645248708 173.88920991215855,173.6295564906468 172.34103789308574,173.67525245479192 171.8009778864216,173.6295564906468 171.18890987883788,173.6981004322297 163.08800977887586,173.97227591807314 162.04389376589097,173.949427978092 161.32381375704426,173.9951238550275 159.4516057339497,174.04081971939013 157.50738970993552,174.15505932603264 156.78730970108882,174.13221141090617 155.63518168684095,174.17790723797225 153.5109456605278,174.17790723797225 152.6468496499583,174.15505932603264 151.7827536392724,174.22360305262555 149.4244916101452,174.29214675104595 148.5423935992876,174.3835383054684 147.6062895876821,174.40638618622324 146.72419157682452,174.3835383054684 144.76197355252225,174.45208193850704 144.05989554396365,174.4292340638931 140.09945549501572,174.49777767821797 139.79342149128206,174.40638618622324 139.307367485133,174.15505932603264 138.91132348030806,173.85803618686623 137.16512945876457,172.4414570461231 136.42704744962975,171.73316298289865 136.1570174463559,171.5503769320203 135.94099344371352,171.36759068167885 135.50894543831237,171.09341093203693 135.05889543273952,170.65929207725276 134.24880542280152,170.0195359246136 133.88876541831996,169.76820248176227 132.62862540280912,168.69431897756294 131.74652739195153,168.03170657200099 131.38648738746997,167.5975797814317 130.3603733747732,166.7064738963818 129.08223135909066,165.76966516156972 128.6501833536895,165.51832534122514 128.03811534610577,164.9699462421122 127.12001333478838,164.33016835706076 126.56195132795256,163.8731826571602 125.96788532054052,163.50759319945064 125.58984331588726,163.16485235810978 125.22980331152212,162.7078634785139 124.83375930658076,162.4336695521779 124.61773530393839,162.22802381284419 124.29369929991663,161.81673157672049 124.23969329916872,161.6796339401044 124.22169129899703,161.49683691687824 124.20368929882534,158.00080544922093 124.02366929652635,157.33815073430014 123.98766529606655,156.83544540849107 124.05967329710256,156.3555889170384 124.04167129681446,155.16736692517588 124.07767529715784,154.3218961435341 124.02366929652635,152.74519598600455 123.98766529606655,152.47098574758274 123.89765529509168,150.50579923229816 123.95166129572317,149.95737097252277 123.95166129572317,149.3403870332695 123.93365929543506,147.9464519860776 123.98766529606655,147.51227312603442 123.95166129572317,147.16949954653683 124.00566729635466,146.64391202859406 123.51961329032201,146.64391202859406 122.70952328038402,146.6896153564594 122.13345927314367,146.62106035991746 121.64740526722744,146.62106035991746 119.72119124338496,146.64391202859406 118.6950772308046,146.71246701579366 114.4466051782947,146.71246701579366 111.85431714635342,146.59820868819952 111.26025113894138,146.48395028265077 110.52216912992299,146.3239883838978 110.07211912423372,146.16402633229154 109.85609512170777,146.0040641279047 109.73008112015668,145.86695354543917 109.49605511710979,145.82124999297957 109.26202911429573,145.68413926076028 107.73185909551103,144.31302576385497 106.79575508390553,143.26183114634478 105.82364707184024,142.41630025213817 105.53561506839469,142.23348220008484 105.01355706190225,142.0506639485102 103.98744304920547,141.45650325217866 103.59139904426411,141.34224133807584 103.15935103897937,141.31938894589257 102.24124902766198,141.34224133807584 100.56706300703809,141.20512693830824 99.558950994513,141.29653655063885 98.35281697975006,141.27368415219826 98.06478497607168,141.31938894589257 96.98466496274341,141.38794611304183 94.75241693516728,141.365093727145 93.51027891982812,141.29653655063885 92.9162129125325,141.22797934603295 91.92610290029552,141.20512693830824 91.06200688960962,141.13656969620206 90.64796088449657,141.04515999660362 90.01789087674115,141.09086485263833 88.86576286249328,141.06801242617075 88.43371485720854,140.9994551280397 87.9116568507161,141.11371727600635 87.69563284807373,141.13656969620206 86.66951883537695,141.11371727600635 85.71541282359976,141.13656969620206 85.30136681848671,141.11371727600635 85.10334481613245,141.04515999660362 84.77930881199427,141.09086485263833 83.14112679183017,141.1822745274403 82.1150127791334,141.11371727600635 80.20680075557902,141.15942211338552 79.36070674518123,141.13656969620206 78.98266474052798,141.06801242617075 78.92865873978008,140.95375024694658 79.00066674081609,140.49670075054746 79.01866874098778,140.1539128094737 79.01866874098778,139.5825980149384 78.94666074006818,138.50852092383138 78.94666074006818,136.84025986549386 78.98266474052798,135.1491289508267 78.87465273914859,133.80078260476876 78.94666074006818,132.70381485503458 78.91065673960838,132.04106002337357 78.92865873978008,131.37830256817688 78.91065673960838,130.8069578288414 78.96466274023987,129.9613640363532 78.96466274023987,128.5444135125581 78.91065673960838,127.53882844625332 78.92865873978008,126.96747060416965 78.8566507389769,126.57894615773694 78.7666407377692,126.51038292652811 78.58662073558662,126.4875285099406 78.19057673076168,126.53323734004516 78.19057673076168,126.4875285099406 78.0825647294987,126.41896524127515 77.93854872765951,126.2361297209427 77.68652072444092,126.14471188595053 77.43449272133876,126.09900294966064 76.48038670967799,126.14471188595053 74.23013668181375,126.05329400101618 72.53794866101816,126.09900294966064 71.58384264912456,126.00758503979887 69.83764862758107,125.91616707995126 69.74763862648979,125.82474907026335 69.71163462602999,125.6647674331034 69.6756306255702,124.70487439962744 69.54961662401911,123.44786329525232 69.60362262476701,123.08218556536303 69.56761862430722,122.37368269084254 69.60362262476701,121.23092980061483 69.5856206244789,120.93381277141452 69.54961662401911,120.79668165702606 69.45960662292782,120.63669521492557 69.33359262137674,120.52241909125587 68.95555061672349,120.31672187204822 68.91954661626369,120.17959025214077 68.91954661626369,120.01960322032392 68.95555061672349,119.99674791762664 68.86554061551578,120.29386660984892 68.91954661626369,120.3395771311043 69.06356261798646,120.40814288958791 69.6576286253985,120.54527432225586 69.90965662850067,120.54527432225586 70.26969663298223,120.45385337962944 71.38582064665388,120.36243238706084 71.52983664849307,120.24815607618075 71.67385265033226,119.99674791762664 71.67385265033226,120.22530080461001 71.61984664958436,120.45385337962944 71.78186465159524,120.52241909125587 71.90787865314633,120.52241909125587 71.97988665406592,120.56812955008354 72.12390265590511,120.7509712605679 72.23191465716809,120.79668165702606 72.1599066562485,120.65955043031136 72.0518946548691,120.63669521492557 73.70807867543772,118.67113501961285 73.61806867423002,118.73970146139618 73.40204467158765,118.7168459839595 73.15001666848548,118.64827953274653 72.96999666618649,118.67113501961285 72.82598066446371,118.73970146139618 72.80797866429202,118.83112334013276 72.75397266366053,118.85397880204255 72.64596066228114,118.80826787509432 72.24991665733978,118.53400205170328 71.88987665285822,118.44258001077105 71.3498166463105,118.6254240427952 71.15179464383982,118.55685755421291 71.00777864200063,118.57971305350657 70.77375263918657,118.73970146139618 70.4857206356246,118.78541240699997 70.34170463378541,118.92254516895628 70.4857206356246,118.85397880204255 70.84576063998975,119.47107509333 70.98977664182894,119.60820729353873 71.13379264355171,119.60820729353873 71.3318146460224,119.69962869799929 71.52983664849307,119.47107509333 71.43982664740179,119.95103730275878 71.51183464832138,120.06531381646346 71.2958106455626,120.13387968722964 70.98977664182894,120.15673497130047 70.84576063998975,120.22530080461001 70.80975663952995,120.22530080461001 70.30570063332561,118.69399050337961 70.55772863642778,118.6254240427952 72.17790865642019,118.55685755421291 72.32192465825938,118.57971305350657 72.48394266027026,118.67113501961285 72.75397266366053,118.69399050337961 73.13201466831379,118.6254240427952 73.60006667405833,118.60256854971522 73.63607067440171,118.69399050337961 73.61806867423002,118.89968971644703 73.69007667514961,118.99111150777026 73.63607067440171,118.94540061832231 73.61806867423002,118.89968971644703 73.70807867543772,118.60256854971522 73.69007667514961,118.3740134472464 73.72608067560941,118.25973577900731 73.8520946771605,118.1226024741045 75.07623069221154,117.91690230618406 75.59828869870398,117.93975789289107 77.59651072334964,118.09974691239768 77.74052672507241,118.1226024741045 77.8485387264518,118.23688023601426 77.99255472817458,119.26537658224697 78.17257473047357,121.07094377353496 78.15457273030188,121.6651768177544 78.22658073122147,123.81354022631422 78.19057673076168,125.87045808139374 78.10056672955398,126.00758503979887 77.9565507278312,126.09900294966064 77.77653072564863,126.12185741942085 77.00244471605401,126.12185741942085 75.79631070117466,126.03043952197186 73.7440826757811,125.93902157459524 72.32192465825938,125.96187606612511 72.1419046560768,125.93902157459524 71.96188465389423,125.87045808139374 71.67385265033226,125.93902157459524 70.35970663407352,125.87045808139374 69.56761862430722,125.89331258222228 68.91954661626369,125.96187606612511 68.36148460931145,125.91616707995126 66.57928658742458,125.89331258222228 65.78719857754186,125.77904004660377 65.75119457719848,125.96187606612511 65.82320257800166,126.73892692137451 65.85920657846145,127.69880829262547 65.84120457828976,127.79022527906636 65.75119457719848,127.9273506650934 65.28314257133752,128.361580313358 64.31103455938864,129.09291191202647 63.158906545024365,130.3270267409389 62.816868540947326,130.624127100411 60.27858650952112,132.45242540007166 59.36048449820373,133.0466180488438 58.47838648734614,133.50368788218475 57.362262473558076,134.5549437636655 56.678186465171166,135.10342247289373 55.88609845528845,135.7890183327836 55.652072452474385,136.0861090002436 55.36404044891242,136.63458269368857 54.769974441616796,137.9143476581521 54.33792643621564,138.66849028895376 54.06789643294178,139.39977686895872 53.81586842983961,139.83397676471213 53.36581842415035,140.81663552904502 53.131792421336286,141.20512693830824 52.9517724190373,141.27368415219826 50.647516390657984,141.27368415219826 50.197466385085136,141.22797934603295 49.89143238135148,141.11371727600635 49.54939437715802,141.04515999660362 48.7933103677351,141.04515999660362 48.343260362162255,141.09086485263833 47.01111234573182,141.09086485263833 45.87698633177206,141.02230756383506 45.768974330392666,141.04515999660362 45.67896432930138,141.2508317506581 45.642960328958,141.5479127272556 45.750972330220975,141.79928852652665 45.822980331024155,142.18777765589766 45.894988332060166,142.41630025213817 45.93099233240355,142.69052695589198 45.87698633177206,143.51320437263348 45.91299033223186,143.85598543666129 45.87698633177206,144.40443367960688 45.93099233240355,145.68413926076028 45.894988332060166,147.62653082991892 45.93099233240355,148.67769804788986 45.91299033223186,151.1227788776887 45.85898433160037,152.26532777410466 45.93099233240355,153.04225657091592 45.91299033223186,153.499271826513 45.84098233131226,153.7277789865475 45.71496832976118,153.9562858348072 45.336926325107925,154.50470099851373 44.72485831764061,155.19021742757468 44.41882431379054,155.41872228038847 44.20280031114817,155.62437638128176 43.80675630620681,156.12708534258127 42.97866429609712,157.38385114370612 41.75452828092966,159.09760749156703 40.33237026329152,161.2683403571864 39.36026225134265,162.63931503897766 37.52405822870787,165.35838162279106 37.236026225145906,165.70111797527352 36.533948216354474,166.86641632739338 36.10190021118615,167.437638048621 35.633848205325194,168.16879900889762 35.07578619848937,168.87710814541788 33.59962218021974,171.0248659245408 33.527614179300144,171.07056259934325 33.275586176197976,171.04771426347725 32.66351816873066,171.1162592616456 32.10545616177842,171.1162592616456 30.737304144888185,171.1162592616456 29.963218135293573,171.07056259934325 28.109012112487108,171.04771426347725 25.030670074396767,171.1162592616456 23.464496055035852,171.13910758815473 22.528392043546773,171.09341093203693 21.214246027288027,171.13910758815473 20.314146016258746,171.07056259934325 19.66607400821522,171.04771426347725 19.450050005456433,171.13910758815473 19.25202800310217,171.32189408790146 19.07200800080318,171.5503769320203 19.01800200017169,171.71031473748735 19.01800200017169,173.5381645248708 19.0,174.79479968297528 19.01800200017169,174.84049532932113 19.108012001379393,174.81764750767616 19.180020002182573,175.06897337369446 19.288032003561966,175.2517555848026 19.342038004193455,175.29745110649674 19.270030003390275,175.18321227902197 19.234026002814062,175.1603645041905 19.180020002182573,175.2517555848026 19.162018002010882,175.41168985591503 19.198022002354264,175.91433942822914 19.25202800310217,176.1199683638697 19.576064007123932,176.1428160078649" stroke="#4DD2FF" stroke-linecap="round" stroke-linejoin="round" stroke-width="0.5"><title>2024-07-11 14.3km</title><desc>11866200789</desc></polyline></svg>