<?xml version="1.0" encoding="utf-8" ?>
<svg baseProfile="full" height="200mm" version="1.1" viewBox="0,0,200,200" width="200mm" xmlns="http://www.w3.org/2000/svg" xmlns:ev="http://www.w3.org/2001/xml-events" xmlns:xlink="http://www.w3.org/1999/xlink"><defs /><rect fill="#1a1a1a" height="200" width="200" x="0" y="0" /><text alignment-baseline="middle" fill="#e1ed5e" style="dominant-baseline: central; font-size:9.0px; font-family:Arial;" text-anchor="middle" x="100.0" y="100.0">2026</text><line stroke="#e1ed5e" stroke-width="0.3" x1="100.0" x2="100.0" y1="15.0" y2="10.0" /><path d="M 100.0 14.0 a86.0,86.0 0 0,1 42.46469731375804,11.215312516191453" fill="none" id="id37" stroke="none" /><text fill="#e1ed5e" style="font-size:6.75px; font-family:Arial;" text-anchor="middle"><textPath startOffset="22.20632615414155" xlink:href="#id37">January</textPath></text><path d="M 100.0 79.0 l 0.0 -9.672784381050853 a30.672784381050853,30.672784381050853 0 0,0 0.5279815618421516,0.0045445039925034025 l -0.1665010825696233 9.67135125366691" fill="#ff3705" stroke="none" /><path d="M 103.2404852339499 79.25152402106235 l 3.5249066308477817 -22.569595377848856 a43.84319597333112,43.84319597333112 0 0,0 0.7446470244388992,0.1228731394143303 l -3.912882861425556 22.5055759754949" fill="#fff517" stroke="none" /><path d="M 103.95276090670814 79.375362276772 l 3.0022652743785474 -15.665160401683133 a36.950261665195356,36.950261665195356 0 0,0 0.6236387577678298,0.12509606791939878 l -3.2714704416135025 15.611160377686526" fill="#ff950d" stroke="none" /><path d="M 104.307194497241 79.44645832069477 l 8.401458766547798 -40.090999613742845 a61.96184516638785,61.96184516638785 0 0,0 1.0420131640658299,0.22774371809137003 l -9.090314654767155 39.94044239755561" fill="#31ff2f" stroke="none" /><path d="M 105.01212808612495 79.60689891045804 l 13.381548154965996 -54.44618724214944 a77.0665063672677,77.0665063672677 0 0,0 1.2855101028834666,0.3277051483014226 l -14.316767146534488 54.20777909767915" fill="#44ffe4" stroke="none" /><path d="M 105.71112130821622 79.79150937346287 l 9.11682511683079 -32.25938742575878 a54.52289631425185,54.52289631425185 0 0,0 0.9009513513855568,0.26301240518218927 l -9.670766685939775 32.09767669165789" fill="#84ff25" stroke="none" /><path d="M 106.0581310904928 79.89281104454417 l 18.174393271478365 -60.321566866367476 a84.0,84.0 0 0,0 1.380858509157127,0.4290394604699177 l -19.21003715334621 59.99978727101504" fill="#4dd2ff" stroke="none" /><path d="M 106.74666289553966 80.11325718540242 l 8.53693903722234 -25.163834874479704 a47.572502962937676,47.572502962937676 0 0,0 0.7732072082382793,0.2697568126328215 l -8.968828249523892 25.013157208674674" fill="#d9ff1c" stroke="none" /><path d="M 107.08798089147638 80.2323363322302 l 5.3797413018912215 -15.003555780360562 a36.93889276360391,36.93889276360391 0 0,0 0.596682156752663,0.2197630739398701 l -5.637205784416461 14.908729438614367" fill="#ff950d" stroke="none" /><path d="M 107.4271985657038 80.35727306442388 l 14.297265772355532 -37.812007449019404 a61.424741383094435,61.424741383094435 0 0,0 0.9857700919830696,0.3824634808321839 l -14.946019029338268 37.56030126429667" fill="#37ff2e" stroke="none" /><path d="M 107.76421540070413 80.48803036053334 l 5.912312585274253 -14.85801947901211 a36.991128257402465,36.991128257402465 0 0,0 0.5895965385655909,0.2405112319683472 l -6.167192993428231 14.754047360860183" fill="#ff950d" stroke="none" /><path d="M 108.09893153111575 80.62456947434976 l 13.14067273295653 -31.437010007989276 a55.072905337189624,55.072905337189624 0 0,0 0.8715057594868832,0.3731332841826608 l -13.679862250233727 31.206157195843826" fill="#7dff26" stroke="none" /><path d="M 109.73455568895987 81.39251694778311 l 4.055095528007991 -7.751265052405443 a29.747908873205777,29.747908873205777 0 0,0 0.4516794333164794,0.24127151062829413 l -4.187920007852781 7.680314815275395" fill="#ff2904" stroke="none" /><line stroke="#e1ed5e" stroke-width="0.3" x1="143.23703022742887" x2="145.7803849466894" y1="26.81831364943548" y2="22.513508569990506" /><path d="M 143.74570117128098 25.957352633546492 a86.0,86.0 0 0,1 28.547481713284135,27.462654790039103" fill="none" id="id38" stroke="none" /><text fill="#e1ed5e" style="font-size:6.75px; font-family:Arial;" text-anchor="middle"><textPath startOffset="19.985693538727396" xlink:href="#id38">February</textPath></text><path d="M 111.2981086023043 82.29822771554956 l 8.716878745365458 -13.65752516754481 a37.20222110587076,37.20222110587076 0 0,0 0.5368333194829925,0.34917132398201145 l -8.95067909063273 13.50545491940327" fill="#ff980e" stroke="none" /><path d="M 111.90073688211348 82.69761687909136 l 16.318159839150276 -23.724837895505274 a49.794969590261076,49.794969590261076 0 0,0 0.7020352333835882,0.4918205451013832 l -16.724126212117515 23.440432507639954" fill="#bdff1f" stroke="none" /><path d="M 112.48926042617603 83.11751280151076 l 13.07177542354485 -17.669907882375025 a42.979466719991414,42.979466719991414 0 0,0 0.590975539276719,0.4451105239754126 l -13.373997116579952 17.442280768893763" fill="#ffe915" stroke="none" /><path d="M 112.77801427241765 83.33499621200491 l 10.90381244532437 -14.220681854860544 a38.91984704901162,38.91984704901162 0 0,0 0.5281375889115537,0.41221976532509114 l -11.146982589395353 14.030883700312229" fill="#ffb110" stroke="none" /><path d="M 113.06298171725822 83.55741782278167 l 7.770586028324214 -9.78095982229413 a33.49196470812016,33.49196470812016 0 0,0 0.44830845023098004,0.36250092232384123 l -7.937797877119685 9.64575280270616" fill="#ff6209" stroke="none" /><path d="M 113.89432698308785 84.25364557470407 l 10.396705143783379 -11.78252133036586 a36.713665605048945,36.713665605048945 0 0,0 0.47026536442062783,0.42220888739675577 l -10.597981495799996 11.601813434199807" fill="#ff910d" stroke="none" /><line stroke="#e1ed5e" stroke-width="0.3" x1="172.23445277983987" x2="176.4835382374775" y1="55.19839476539836" y2="52.563006222186495" /><path d="M 173.08426987136738 54.67131705675599 a86.0,86.0 0 0,1 12.851231095245387,41.99856678651699" fill="none" id="id39" stroke="none" /><text fill="#e1ed5e" style="font-size:6.75px; font-family:Arial;" text-anchor="middle"><textPath startOffset="22.20632615414155" xlink:href="#id39">March</textPath></text><path d="M 120.08093135843002 93.85539295169968 l 15.39528603279947 -4.710836433790537 a37.099900991547706,37.099900991547706 0 0,0 0.1816024304605149,0.6122731161087482 l -15.474094360371687 4.445133930935259" fill="#ff970d" stroke="none" /><path d="M 120.18372546131832 94.20196356495316 l 15.343561129322499 -4.40763657044757 a36.96408870767145,36.96408870767145 0 0,0 0.17041013337433825,0.6130559179191014 l -15.417158033263199 4.142869349109517" fill="#ff950d" stroke="none" /><path d="M 120.67395015179393 96.31383870115 l 16.289458999391854 -2.9044073774915073 a37.54636082972009,37.54636082972009 0 0,0 0.1079692779617529,0.6372407903206567 l -16.33704013887383 2.623580798855013" fill="#ff9d0e" stroke="none" /><line stroke="#e1ed5e" stroke-width="0.3" x1="184.98032266829074" x2="189.97916517819016" y1="98.17113171792111" y2="98.06355123074" /><path d="M 185.9800911702706 98.14961562048488 a86.0,86.0 0 0,1 -9.607161424134198,41.387399972396054" fill="none" id="id40" stroke="none" /><text fill="#e1ed5e" style="font-size:6.75px; font-family:Arial;" text-anchor="middle"><textPath startOffset="21.466115282336823" xlink:href="#id40">April</textPath></text><path d="M 120.64145759157962 103.86396538481128 l 15.537797728995901 2.908588810391515 a36.80768949388635,36.80768949388635 0 0,0 -0.12193873452860081,0.6217629803000764 l -15.485429061491637 -3.1756155177595367" fill="#ff930d" stroke="none" /><path d="M 120.13307415673323 105.97154293290107 l 27.211803838709987 8.07111987168608 a49.38353825969478,49.38353825969478 0 0,0 -0.2487360107997522,0.8128836750628576 l -27.068841055404103 -8.538330519300995" fill="#c2ff1e" stroke="none" /><path d="M 120.02730092923936 106.31721596034902 l 15.16926436090295 4.784844411437584 a36.90601512927188,36.90601512927188 0 0,0 -0.1963184701929188,0.6042061237561811 l -15.084653639693785 -5.045249435171561" fill="#ff940d" stroke="none" /><path d="M 119.9155931802556 106.66101706037122 l 15.074163211014168 5.041740781235267 a36.894953495291006,36.894953495291006 0 0,0 -0.20662784871282466,0.6005572487114902 l -14.985144531358113 -5.300470733036057" fill="#ff940d" stroke="none" /><path d="M 119.26925614724726 108.34839909993367 l 5.650152314859099 2.4479266941809965 a27.157642916018396,27.157642916018396 0 0,0 -0.18953308033462318,0.4273470608826598 l -5.607178149793203 -2.544822091556344" fill="#ff0000" stroke="none" /><path d="M 118.97047184881838 109.00673069616215 l 14.311611231241928 6.794814025461081 a36.84271800149244,36.84271800149244 0 0,0 -0.27692871685704873,0.5705551803020142 l -14.192529257770165 -7.040158161728371" fill="#ff930d" stroke="none" /><line stroke="#e1ed5e" stroke-width="0.3" x1="174.80103733775053" x2="179.2010983576182" y1="140.37084112569926" y2="142.7455964860345" /><path d="M 175.68104954172406 140.8457921977663 a86.0,86.0 0 0,1 -30.038265399797805,32.042727171017184" fill="none" id="id41" stroke="none" /><text fill="#e1ed5e" style="font-size:6.75px; font-family:Arial;" text-anchor="middle"><textPath startOffset="22.206326154141568" xlink:href="#id41">May</textPath></text><path d="M 118.12598468904814 110.60418214915192 l 8.912570885791009 5.214090528679538 a31.325728053532846,31.325728053532846 0 0,0 -0.27629161515194434,0.4630806392586697 l -8.82149839494084 -5.3667332618243115" fill="#ff4106" stroke="none" /><line stroke="#e1ed5e" stroke-width="0.3" x1="143.8653032363475" x2="146.44561519142675" y1="172.8068346515853" y2="177.08958963109032" /><path d="M 144.38136562736335 173.6633856474863 a86.0,86.0 0 0,1 -40.68145358897372,12.25698825130547" fill="none" id="id42" stroke="none" /><text fill="#e1ed5e" style="font-size:6.75px; font-family:Arial;" text-anchor="middle"><textPath startOffset="21.466115282336833" xlink:href="#id42">June</textPath></text><line stroke="#e1ed5e" stroke-width="0.3" x1="102.19456741930631" x2="102.32365962044197" y1="184.97166512339345" y2="189.96999836594603" /><path d="M 102.22038585953345 185.97133177190398 a86.0,86.0 0 0,1 -42.740103519485714,-10.115201625700543" fill="none" id="id43" stroke="none" /><text fill="#e1ed5e" style="font-size:6.75px; font-family:Arial;" text-anchor="middle"><textPath startOffset="22.20632615414155" xlink:href="#id43">July</textPath></text><line stroke="#e1ed5e" stroke-width="0.3" x1="58.666819895761336" x2="56.23545636021788" y1="174.27360380694188" y2="178.64263932499728" /><path d="M 58.180547188652646 175.14741091055294 a86.0,86.0 0 0,1 -31.652253787137756,-30.449443065178592" fill="none" id="id44" stroke="none" /><text fill="#e1ed5e" style="font-size:6.75px; font-family:Arial;" text-anchor="middle"><textPath startOffset="22.20632615414155" xlink:href="#id44">August</textPath></text><line stroke="#e1ed5e" stroke-width="0.3" x1="26.63291911575756" x2="22.317208475507996" y1="142.92168965132927" y2="145.44649492493687" /><path d="M 25.769776987707644 143.4266507060508 a86.0,86.0 0 0,1 -11.730757126820373,-40.83630448921669" fill="none" id="id45" stroke="none" /><text fill="#e1ed5e" style="font-size:6.75px; font-family:Arial;" text-anchor="middle"><textPath startOffset="21.46611528233685" xlink:href="#id45">September</textPath></text><line stroke="#e1ed5e" stroke-width="0.3" x1="15.007084014347285" x2="10.007500721073583" y1="101.09737516637583" y2="101.16192664675087" /><path d="M 14.007167355692545 101.11028546245083 a86.0,86.0 0 0,1 10.666146001902534,-42.60595125391555" fill="none" id="id46" stroke="none" /><text fill="#e1ed5e" style="font-size:6.75px; font-family:Arial;" text-anchor="middle"><textPath startOffset="22.20632615414155" xlink:href="#id46">October</textPath></text><line stroke="#e1ed5e" stroke-width="0.3" x1="26.266209847984243" x2="21.928928074336255" y1="57.711370442889674" y2="55.22380399835377" /><path d="M 25.398753493254645 57.213857153982495 a86.0,86.0 0 0,1 29.58750427330803,-30.492523968695096" fill="none" id="id47" stroke="none" /><text fill="#e1ed5e" style="font-size:6.75px; font-family:Arial;" text-anchor="middle"><textPath startOffset="21.46611528233685" xlink:href="#id47">November</textPath></text><line stroke="#e1ed5e" stroke-width="0.3" x1="56.762969772571076" x2="54.21961505331055" y1="26.818313649435495" y2="22.513508569990535" /><path d="M 56.25429882871897 25.957352633546506 a86.0,86.0 0 0,1 42.265352541879196,-11.944610805530505" fill="none" id="id48" stroke="none" /><text fill="#e1ed5e" style="font-size:6.75px; font-family:Arial;" text-anchor="middle"><textPath startOffset="22.20632615414155" xlink:href="#id48">December</textPath></text></svg>